<svg xmlns="http://www.w3.org/2000/svg" viewBox="0 0 383.2 383.1"><defs><style>.cls-1{fill:#f9bc15;}</style></defs><g id="Layer_2" data-name="Layer 2"><g id="Layer_1-2" data-name="Layer 1"><path class="cls-1" d="M110.84,383.1c-6.9-2.78-9.13-7.91-9.07-15.25.27-32.68.12-65.35.12-98v-4c-.84-.59-1.25-.06-1.77.27-22.71,14.41-43.06,13.32-64.35-3.38a94.47,94.47,0,0,1-11.71-11c-5.86-6.45-5.87-11.81,0-18.42,12.49-14.18,24.73-21,44.69-24.85A137.13,137.13,0,0,1,61,190.72c-.66-1.93-2-1.54-3.23-1.64-9.84-.76-19.46-2.4-28.53-6.53C12,174.68,3.53,160.6.89,142.44a80.88,80.88,0,0,1-.17-22.73c1.09-7.93,4.76-11.59,12.79-11.64,13.07-.09,25.74,2,37.45,8.32.86.47,1.74.92,3.23,1.7.45-4.79.58-9.31,1.35-13.72,1.15-6.54-1.06-11.22-5.57-16.12C40,77.37,33.36,64.69,33.77,49.3c.34-12.49,5.78-23,13.08-32.65A75.84,75.84,0,0,1,60.05,2.94c4.7-3.76,9.82-4,14.36-.18C87.54,13.86,97.64,27,100.57,44.51c1.67,10-.7,19.27-5,28.16A79.46,79.46,0,0,1,80.64,93.09c-.93,1-2,1.71-2.09,3.35-.74,16.8-3.51,33.5-2.88,50.36,1.48,40.11,19,71.55,52,94.16,20.31,13.91,43.15,20,67.69,19.35,55.23-1.5,102.6-43.51,110.91-97.91,2.07-13.57,1.38-27.08.35-40.64-.59-7.83-1.37-15.64-1.83-23.47a7.76,7.76,0,0,0-2.38-5.54c-8.55-8.58-15.32-18.34-18.6-30.14-4.38-15.74.25-29.68,9.09-42.64A84.37,84.37,0,0,1,307.11,4.12c6.11-5.34,11.6-5.36,17.59,0,10.57,9.44,19.14,20.37,23.13,34.17,4.82,16.69-.38,31.36-10.16,44.85a26.38,26.38,0,0,1-4.24,5.21c-5.27,4.24-6.82,9.5-5.67,16,.77,4.37.86,8.86,1.3,13.8a68.13,68.13,0,0,1,22.88-8.56c6.51-1.18,13.08-2,19.69-1.44s10,4.23,10.85,10.76c.08.59-.08,1.28.72,1.51v20.21c-1.12.44-.68,1.46-.8,2.25-3.26,21-14.39,35.56-35,42.25a95.3,95.3,0,0,1-22,3.9c-1.3.11-2.55-.16-3.19,1.72a139.69,139.69,0,0,1-7.7,17.76c19.17,3.14,33.84,11.49,45.71,26,4.49,5.48,4.51,10.79-.09,16.14a85.59,85.59,0,0,1-11.82,11.41c-20.86,16.56-42.39,19.52-65.49,3.81a1.08,1.08,0,0,0-1.47,0V368.57c0,8.74-1.76,11.38-9.7,14.53h-4.49c-1.83-1.18-3.69-2.33-5.51-3.53q-33.66-22.18-67.27-44.44c-2.12-1.41-3.45-1.35-5.54,0-20.82,13.85-41.72,27.56-62.59,41.32-3.76,2.48-7.37,5.2-11.73,6.62Zm13.58-32.43c6.86-4.51,13.09-8.74,19.47-12.74a5.48,5.48,0,0,0,2.94-5.35c-.13-16.32-.06-32.63-.06-48.95,0-7.87,0-7.81-7.18-10.89-5.06-2.18-10-4.56-15.17-6.91Zm134.45-85c-7,3.57-13.66,6.88-20.71,9.19-1.78.58-1.64,1.81-1.64,3.2,0,18.43,0,36.86,0,55.28a4.27,4.27,0,0,0,2.32,4.17c4.12,2.54,8.06,5.36,12.16,7.95,2.54,1.61,4.84,3.66,7.91,4.72Zm-44.8,55.45c0-12.94-.06-25.13.05-37.32,0-2.33-.77-2.71-2.78-2.35a104.46,104.46,0,0,1-18.19,1.45A125,125,0,0,1,172,281.47c-1.14-.2-2.78-1-2.77,1.51.06,12.52,0,25,0,38.14,5.19-3.41,10-6.39,14.62-9.67,5.37-3.81,10.49-3.67,15.81.06C204.19,314.7,208.89,317.66,214.07,321.08ZM93.84,242.62c-5.88-5.11-11.93-9.31-19.49-10.7C63.74,230,55.74,235.4,48,241.45c-1.56,1.21-.42,1.85.42,2.52,14.81,11.73,25.29,12.91,39.87,2.89C90.09,245.61,91.79,244.18,93.84,242.62Zm219.09,11.12c7.19-.35,13.19-3.22,18.65-7.25,6.33-4.67,5.93-3.62-.06-7.91C317,228.2,306.11,229.23,291.38,241c-.61.49-2.56,1-.83,2.41C297.16,248.87,304.25,253.29,312.93,253.74ZM56.22,49.52C56.17,57,61.7,69,66.42,73.23c1.35,1.19,1.69.17,2.25-.52,13.3-16.39,12.78-28.11,0-44-.62-.78-1.22-1.68-2.3-.38C61,34.81,56.79,41.85,56.22,49.52Zm270.94,1.1c-.57-8.54-4.76-15.59-10.09-22.15-1.16-1.43-1.82-.63-2.57.31-12.91,16.19-12.94,27.89.22,44.05.66.81,1.18,1.59,2.24.27C322.26,66.53,326.55,59.52,327.16,50.62Zm33.4,80.51c-21.15,2.63-31.65,11.68-30.94,34.86C351.23,163.16,360.37,154,360.56,131.13Zm-337.85,0c.28,22,8.78,32.07,31,34.79C54.33,143.24,44.07,133.64,22.71,131.15Z"/><path class="cls-1" d="M191.83,50.77a93.54,93.54,0,0,1,93.27,93.76c-.17,51.27-42.47,93.41-93.61,93.25-51.44-.17-93.44-42.47-93.28-94A93.56,93.56,0,0,1,191.83,50.77Zm70.63,93.31A70.9,70.9,0,0,0,191,73.29c-38.57.13-70.24,32.17-70.14,71C121,183.48,153,215.35,191.94,215,231.11,214.72,262.62,183,262.46,144.08Z"/><path class="cls-1" d="M182.56,120.76c-1.17.59-1.72.85-2.24,1.14-4,2.28-6.41,2.08-8.53-.75-2.42-3.24-2.37-8.29.79-10.47,5.71-3.94,11.53-7.89,17.78-10.82,4.58-2.13,11.24.76,11.12,7.85-.41,23.52-.16,47.06-.16,70.59,0,6.12-2.28,8.5-8.45,8.72a14.23,14.23,0,0,1-4.08-.21c-4.81-1.3-6.33-2.87-6.29-7.68.15-18,.06-36.11.06-54.16Z"/></g></g></svg>