<svg xmlns="http://www.w3.org/2000/svg" viewBox="0 0 540.91 205.55"><defs><style>.cls-1{fill:#f8ae1b;}</style></defs><g id="Layer_2" data-name="Layer 2"><g id="Layer_1-2" data-name="Layer 1"><path class="cls-1" d="M484.85,73.84c10.14-22.55,18.58-45.44,27.81-68,1.13-2.76,2.28-3.93,5.3-3.82,5.81.23,11.63,0,17.45.12,1.44,0,3.83-.85,3.67,1.81-.12,2.06.59,5-2.83,5.53-.48.08-1,.3-1.44.4-8.14,1.58-8.2,1.58-7.8,10.26,1,21.4,2.06,42.79,2.94,64.19.15,3.83,1.81,5.31,5.39,5.54,2.4.14,5.23-.07,5.53,3.54.21,2.5-.38,4.29-3.36,4.29-8.48,0-17,.06-25.43,0-1.47,0-3.14-.15-3.32-2.19s.31-4.46,2.7-4.61c7.07-.46,6.57-5.08,6.32-10.09-.9-18.24-1.61-36.49-2.42-54.73a2.19,2.19,0,0,0-1.42-2.38c-2,4.75-4,9.47-5.94,14.2Q497.54,63.36,487.15,88.8a8.69,8.69,0,0,1-2.25,3.78c-2.48,2-4.32,3.06-6.21-1.18-9.4-21.1-19.13-42.06-28.79-63-.51-1.1-.65-2.62-2.59-3.14-.39,4.94-.9,9.77-1.12,14.61-.71,15.25-1.26,30.51-2,45.76-.16,3.28,1.94,4,4.33,4.19,3,.3,5.38,1,4.92,4.65-.43,3.37-3.06,3.34-5.67,3.32-5.82,0-11.63,0-17.45,0-1.85,0-3.86.08-4.25-2.4s1-3.74,3-4.5a10.78,10.78,0,0,1,3.34-.93c3.15-.06,3.72-1.93,3.85-4.58.42-8.94,1.09-17.88,1.47-26.83.62-14.59,1-29.2,1.68-43.8.15-3.21-.87-4.66-4.08-4.66a22.86,22.86,0,0,1-3.95-.44c-2.51-.44-3.73-1.82-3.34-4.52s2-3.06,4.26-3c5.48.07,11,.08,16.46,0,2.26,0,3.5.67,4.47,2.93,9.15,21.37,19.12,42.4,27.77,64C481.77,70.78,482.52,72.68,484.85,73.84Z"/><path class="cls-1" d="M336.37,41.49c0-9-.09-17.94.06-26.91,0-2.74-.43-4.32-3.57-4.7-2.51-.3-4.93-1.4-4.43-4.8s2.93-3,5.3-3c7.48,0,15,0,22.44,0,1.44,0,3.56-.46,3.82,1.36s-.13,4-2.46,4.9c-.62.23-1.22.51-1.84.71-7.14,2.28-6.91,2.27-6.81,9.68.2,14.11.09,28.24.13,42.36,0,2.16,0,4.32.21,6.47,1.16,13.61,7.4,20.84,19.81,23,13,2.28,25-3.72,29.94-15.13a29.23,29.23,0,0,0,2-11.66c0-16.28-.09-32.56.05-48.84,0-3.29-.78-5.07-4.35-5-1.12,0-2.23-.6-3.37-.8-2.64-.46-2.23-2.45-2.22-4.25,0-2.14,1.24-2.83,3.23-2.82,7,0,14-.05,20.94,0,1.51,0,3.54-.68,3.77,2,.2,2.28-.73,4.47-2.84,4.61-7.4.49-7.19,5.27-7.11,10.75.23,15.62-.36,31.25.23,46.85.57,15.32-11,28.7-25.22,31.88-12,2.69-23.35,2.38-34-3.74-9.7-5.56-13.27-14.93-13.67-25.54-.34-9.12-.07-18.27-.07-27.41Z"/><path class="cls-1" d="M45.07,63.86c-4.48,0-9,.17-13.45-.07-3-.15-4.65,1-5.53,3.75-1.79,5.65-3.67,11.28-5.57,16.89-1.05,3.09-1.47,5.67,3.17,5.5,2.84-.11,4.41,1.36,4.24,4.25s-2.21,3.69-4.87,3.63c-6.48-.13-13-.16-19.44-.21-1.27,0-2.87.63-3.36-1.15-.45-1.62-.45-3.35,1.08-4.55a4.37,4.37,0,0,1,2.11-1.18c7.91-.36,8.64-6.86,10.56-12.28Q26.91,42.07,39.75,5.69C40.84,2.62,49.05-1,51.91.27c2.06.93,2.22,3.21,2.86,5,9,25.47,18.12,50.92,26.91,76.48,1.71,5,3.46,8.77,9.62,8.43,2.11-.11,3.88,1.22,3.41,3.86-.43,2.35-1.53,3.8-4.33,3.75-7.8-.12-15.61,0-23.42,0-1.65,0-3.56.28-3.91-2s.36-4.46,2.55-4.8c7.51-1.18,5-5.36,3.35-9.63-1.81-4.6-3.49-9.26-4.94-14-.9-2.9-2.52-3.89-5.49-3.75-4.47.21-9,.05-13.45.05Zm.24-8.44v-.05h4c10.2,0,10.3-.07,6.71-9.8-3-8.19-5.28-16.67-9.48-24.38-.42-.78-.29-2.85-2-2-1,.46-2.09.8-2.62,2.47-3.2,10.05-6.65,20-10.28,29.93-1.18,3.21,0,3.86,2.76,3.85C38,55.41,41.66,55.42,45.31,55.42Z"/><path class="cls-1" d="M131.46,100c-10.26-.34-18.46-1.68-26-6-2.63-1.5-3.32-3.2-2.6-6,1.18-4.64,2-9.35,3.13-14,.39-1.69,1.24-3.2,3.34-3a2.8,2.8,0,0,1,2.8,3.38c-1,7.59,3.24,11.75,9.59,14.25,7.51,3,15.22,5.21,22.9.58,8.23-5,8.95-16.7,1.58-22.93-5.11-4.32-11.07-7.2-17-10.11-5.65-2.77-11.17-5.73-16-9.87-7.94-6.83-11-15.24-8-25.36,3-10.31,10.33-16.37,20.56-18.72C137-.45,147.69,1.93,157.9,7c2.17,1.09,3.23,1.87,2.25,4.8-1.57,4.66-2.26,9.61-3.23,14.46-.39,2-1.43,3-3.42,2.75-1.78-.18-2.54-1.46-2.72-3.07-.38-3.5,1.07-7.57-2.59-10.11a30.73,30.73,0,0,0-17.58-5.79c-9.45-.09-14.45,3.49-15.48,11.68-.85,6.78,3.17,11.26,8.26,14.81,6,4.18,12.73,7,19.14,10.46,5.43,2.91,10.7,6.1,14.58,11a24.94,24.94,0,0,1-13.26,39.65C139.28,99,134.67,100.75,131.46,100Z"/><path class="cls-1" d="M187.13,2.1c4.16,0,8.31-.08,12.46,0,1.43.05,3.69-1,3.92,1.66a4.82,4.82,0,0,1-2.71,4.91c-2.16,1.16-6.12.13-6.38,3.19-.2,2.31,1.92,4.8,3,7.22,4.17,9.51,8.37,19,12.47,28.55,1.38,3.19,3.19,3.14,4.91.59a51.42,51.42,0,0,0,3.48-7.06c4-8.66,7.94-17.37,12.09-26,1.53-3.19,1.3-4.89-2.64-5.21-2-.16-4.05-.71-5-2.71-1.21-2.51.74-5.16,3.85-5.19,7.64-.07,15.29,0,22.93,0,1.38,0,3.25-.49,3.36,1.82.08,1.89-.18,4.24-2.32,4.42-8.94.79-10.54,8.23-13.6,14.4-5.8,11.68-11.48,23.42-17.45,35-1.94,3.78-1.85,7.63-1.83,11.59,0,5,.14,10-.07,14.95-.15,3.4.81,5.43,4.54,5.55,2.64.08,5.21.71,5.06,4.06s-2.54,4-5.6,3.93c-7.14-.18-14.28,0-21.42-.08-2,0-4.2.16-4.52-2.66a3.61,3.61,0,0,1,3.21-4.32c7.14-.67,6.31-5.54,6.71-10.65.91-11.66-1.85-22-7.72-32.12-6.21-10.69-11.41-22-17-33.06-1.43-2.87-3.15-4.77-6.61-5.2-2.27-.29-5.05-.82-4.67-4.52.4-3.91,3.2-3.1,5.56-3.13C179.16,2.05,183.15,2.1,187.13,2.1Z"/><path class="cls-1" d="M293.85,97.79c-9.14,0-18.27,0-27.41,0-2,0-4.57.52-5-2.67s1.73-4.56,4-4.67c5.24-.25,5.48-3.59,5.49-7.44,0-22.4,0-44.8.17-67.2,0-3.84-1.1-5.75-5.16-6.17-2-.21-5-.63-4.24-4.2.59-2.88,2.46-3.41,5.13-3.36,8,.14,15.95,0,23.93.07,1.55,0,3.9-.61,4.13,1.52s-.47,5-3,5c-9.43.19-8.56,6.43-8.5,12.9q.29,31.38-.06,62.77c-.05,4.52,1.37,5.7,5.68,5.5,7.13-.34,14.29-.23,21.43,0,3.22.11,4.86-1.08,5.72-4.1.89-3.17,2.12-6.24,3.18-9.36.63-1.84,1.52-3.48,3.75-3.34,2.4.15,2.75,2,2.81,4,.18,5.81.27,11.62.5,17.42.12,3.15-1.73,3.39-4.18,3.37-9.47-.07-18.94,0-28.41,0Z"/><path class="cls-1" d="M100.49,198.91c-1.16.45-1.79,1.18-1.65,2.31.72,5.95-2.87,4.64-5.39,2.69-4.89-3.8-9.86-7.71-12.81-13.4-1.35-2.59-1.18-4.58,2.63-4.07a11.44,11.44,0,0,0,2.48,0c1-.1,2-.47,1.93-1.72s-1.24-.82-2-.93c-6.7-1-7.27-1.69-3.45-6.72,3.06-4,7.06-7.35,10.82-10.79,1.12-1,2.76-2.18,4.49-1.07,1.45,1,1.41,2.61,1,4.07s-.17,3,1.32,3.11c1.68.13,1.59-1.71,1.68-2.95.43-5.68,1.31-6.38,5.72-2.78s8.75,7.31,11.78,12.31c2.29,3.76,1.16,4.95-2.89,4.86-1.26,0-3.56-.85-3.46,1.45.07,1.72,2.08,1,3.31,1.06,4.92.28,5.76,1.45,2.77,5.62A73.26,73.26,0,0,1,108.49,203c-1.7,1.56-4.32,3.33-6.74,2.08C99.55,204,101.48,201.1,100.49,198.91Zm-9.75-13.77c.41.37.77,1,1.1,1,4.81-.27,8.13.91,7.11,6.77-.11.6.21,1.44,1,1.36a1.68,1.68,0,0,0,1.61-2c-1.24-5.31,1.81-6.16,6-6.08.46,0,.94-.7,1.53-1.17-.53-.5-.9-1.12-1.21-1.08-4.67.47-7.21-1.12-6.52-6.26.1-.74-.44-1.81-1.36-1.76-1.34.08-1.37,1.32-1.18,2.26,1,4.9-1.47,6.14-5.75,5.66A2.15,2.15,0,0,0,90.74,185.14Zm4.86-7.55c-.29-1.54-1.49-1.65-2.6-1.57a2.29,2.29,0,0,0-2.29,2.12c-.12,1.57,1.24,1.74,2.35,1.84C94.73,180.14,95.17,178.83,95.6,177.59Zm13.39.92c.19-2-1.16-2.24-2.48-2.28-1.14,0-1.75.66-1.68,1.84.09,1.7,1.56,2,2.71,2.21C109,180.6,108.75,179.18,109,178.51ZM92.22,189.82c-1.26,0-1.27,1-1.21,2,.1,1.6,1.39,2.14,2.6,2.43s1.75-.84,1.71-1.79C95.24,190.7,94,190,92.22,189.82Zm12.61,2.43c0,1.14.74,1.63,1.85,1.68a2,2,0,0,0,2.21-2.06,1.77,1.77,0,0,0-2.09-2C105.54,190,104.87,190.88,104.83,192.25Z"/><path class="cls-1" d="M398.15,133.49c2.44-5.9,4.37-10.56,6.29-15.22,2.1-5.1,3.57-5.67,9.29-3.55-4,3.94-3.78,18.8.6,25.82-3.17,1-6.15.39-9.54-.19,3.44-5.45,2.14-11,1-16.78-2.07,4.46-4.12,8.93-6.22,13.38-.45,1-.51,2.44-2.11,2.23-1.16-.16-1.4-1.32-1.81-2.19a139.88,139.88,0,0,0-7-13.66c-.18,4.92-2.79,9.66-.24,14.56.53,1,1.6,2.17.22,3-1.82,1.12-4.14.64-5.73-.21-1.85-1,.08-2.16.83-3.05a5.6,5.6,0,0,0,1.17-4.69c-1-5.86,3.05-12.31-2.11-17.73-.47-.49.58-1.48,1.47-1.54,2.92-.22,5.46,0,6.77,3.43C393,122.24,395.41,127.22,398.15,133.49Z"/><path class="cls-1" d="M492,130.42c-.25-5,1.92-10.15-1.74-14.81-.53-.68-.47-1.2.1-1.65,1.81-1.43,3.75-.92,5.69-.32.91.28,1.54.89,1.13,1.8-3.19,7.07-.94,14.54-1.66,21.78-.12,1.21-.07,2.51-1.19,3.05-1.78.86-2.13-1-2.88-1.93-4.73-5.9-9.43-11.82-14.72-17.53-.21,5.9-1.81,11.69,1,17.25.52,1.06.59,2.22-.54,2.42a13.81,13.81,0,0,1-5.36-.07c-1.19-.28-.5-1.52-.26-2.5,1.86-7.49,2.82-15-.35-22.4-.72-1.69-.13-2.66,1.62-2.31,2.34.45,4.66.64,6.39,3.07,3.59,5.08,7.68,9.82,11.56,14.69Z"/><path class="cls-1" d="M341.14,114.51c4.49-2.8,7.27-.8,9.7,2.21,3.82,4.72,7.57,9.5,11.91,14.09-.49-5.26,2.67-10.66-1.45-15.62-.72-.86.2-2.08,1.33-2,1.8,0,4-.07,5.28.88,1.9,1.41-1.17,2.19-1.2,3.56-.12,6.11-.2,12.22-.4,18.32-.05,1.56.87,3.81-1,4.48-2.19.78-2.23-1.91-3.2-3-4.66-5.45-9.22-11-14.68-17.51.26,6.46-.55,11.89,1,17.28.35,1.23,1.56,2.57-.2,3.38a5.31,5.31,0,0,1-5.26-.34c-1.76-1.24.31-2.15.64-3.25,1.49-5,.08-10.23.74-15.29C344.67,118.62,344.33,116.18,341.14,114.51Z"/><path class="cls-1" d="M46.61,121.18c1.83,5.61-1.64,11.69,2.15,17.14a1.24,1.24,0,0,1-.56,2c-1.91.61-3.91,1-5.75-.19-.88-.55-.53-1.3-.09-2.12,3.4-6.38.57-13.35,1.81-20,.39-2-2.53-1.76-3.1-3.65,3.54-1.87,6.46-1.59,9,1.71,3.9,5.08,7.91,10.08,12.41,14.92.11-5.78,3.65-12-3.07-16.64,1.43-.51,2.65-1.35,3.81-1.27,2.21.14,6.12-2.05,3.52,4.11-2.1,5-.56,11.42-.77,17.21-.08,2,1.18,5.14-.93,5.84s-2.93-2.58-4.23-4.13c-4.32-5.13-8.43-10.44-12.62-15.69Z"/><path class="cls-1" d="M431.68,113.74c5.25,0,10.53,0,15.81,0,1.11,0,2.59-.24,2.6,1.48,0,1.41.48,3.18-1.13,4s-1.8-.9-2.52-1.65c-2.27-2.4-5.05-1-7.49-.71-2.11.27-1.59,2.56-1.59,4.15,0,4.3,2.05,5.57,6,3.79,1.13-.51,2.36-2.11,3.39-.67s.76,3.66.09,5.26-1.92-.06-2.93-.18c-2.13-.24-5.11-2-6.06.75-.73,2.14-1.72,6,.88,7.23,2.29,1.07,5.78,1.67,8.32-.68,1-.92,1.34-3,3.25-2.07,1.21.58.7,2.06.76,3.18.12,1.94-.71,3.45-2.66,3.51-5.09.16-10.18.14-15.27,0-1.5,0-1.5-1.23-1-2.59C434.76,130.39,434.16,122.25,431.68,113.74Z"/><path class="cls-1" d="M17.52,130.47c-2.94-1.59-6.31-3.45-8.71-.61-1.33,1.58-1.92,6.12.42,7.23,4.3,2,8.93,1.38,11.78-3.82,2,6.54,1.31,7.49-4.44,8.2-4.18.52-8.25-.41-12.38-.47-2.57,0-1.53-1.38-1-3,2.44-7.23,3-14.64-.24-21.73-1.08-2.35-.52-2.57,1.41-2.58,4.64,0,9.28,0,13.93,0,1.36,0,2.75,0,2.86,1.9.06,1.13.55,2.5-.64,3.19s-2.06-.39-3-1.11c-2.46-1.92-5.38-1.55-8-.81-2,.56-1.12,2.8-1.28,4.37-.45,4.58,2.14,4.93,5.58,3.94a33.25,33.25,0,0,0,3.69-1.58A9.44,9.44,0,0,1,17.52,130.47Z"/><path class="cls-1" d="M171.92,114.12a51.06,51.06,0,0,1,15.06-.07c4.66.79,7.18,9.16,3.36,12-4.18,3.16-2.25,5.27-.3,8,.68.94,1.4,1.85,2.11,2.77.89,1.17,3.32,2.26,1.1,3.85-1.53,1.09-3.63.35-4.8-1.36s-2.13-3.72-3.28-5.53-2.13-5.23-4.82-3.69c-2.3,1.31-.93,4.56-.33,6.88.32,1.25,3.72,2.29,1.33,3.54a8.64,8.64,0,0,1-8-.57c-.87-.52,0-1.39.39-2.12,3.08-6.43,1.36-13.24,1.34-19.9C175.06,117,173.5,116,171.92,114.12Zm7.15,7.07c.79,1.91-.88,5.15,2.35,5.2,2.86.06,6-.8,6.22-4.87s-3-5.09-5.82-5.33C177.85,115.84,180.51,119.73,179.07,121.19Z"/><path class="cls-1" d="M268,131.78c-4.7-.91-4.95,2.42-4.82,6,.05,1.19,1.43,2.68-.67,3.26-1.74.47-3.59,1-5.35.11a1.24,1.24,0,0,1-.37-2.08c5.37-5.72,5.31-13.74,8.69-20.28.3-.59.44-1.26.78-1.82.86-1.46,1-3.82,3.44-3.52,2,.23,2.33,2.08,2.88,3.64q3,8.39,6,16.77c.5,1.39.86,2.84,2.12,3.84.84.67,2.58,1.45,1.54,2.56-1.74,1.85-4.35,1.23-6.62,1-1.6-.15-1.32-1.23-1.12-2.57C275.32,132.8,274.28,131.71,268,131.78Zm.41-10.94c0,2.79-3.87,4.85-1.59,7.57.82,1,3.78,1.12,4.34-.33C272.16,125.38,270.56,122.91,268.37,120.84Z"/><path class="cls-1" d="M133.58,126.4c-.78-3,1.47-7.15-1.62-10.74-1.05-1.21.23-2,1.66-2q6.72,0,13.45,0c1.55,0,2.62.55,2.68,2.22,0,1,.38,2.09-.52,2.8-1.64,1.29-2.37-.47-3.22-1.23-2.61-2.36-5.78-1.26-7.82-.08-1.79,1-1,4.55-.32,6.48.8,2.37,3.37,2,5.44.84,1.07-.61,2.41-2.07,3.22-.21a5.58,5.58,0,0,1-.32,5.27c-1.05,1.53-1.9-.07-2.79-.6-1.69-1-4-1.19-5.08,0-1.65,1.71-1.1,4.4-.76,6.66s2.47,2,4,1.84c2-.26,5.33,1.63,5.53-2.71,0-.41,1.37-1.17,2-1.07,1.37.21,1.59,1.5,1.63,2.71.06,1.69.14,3.6-1.84,4.17a20.6,20.6,0,0,1-5.9.76c-3.27,0-7,.54-9.72-.74-4.57-2.11,2-4.76.46-7.74C132.92,131.5,133.58,129.16,133.58,126.4Z"/><path class="cls-1" d="M312.41,175.65c1.7.21,4.18-.48,6.6.65,4,1.88,5.2,6.33,1.76,9-2.94,2.27-1.47,3.6-.09,5.54.71,1,3.2,1.87,1.15,3.45-1.37,1.06-3.27.5-4.45-.91s-2-3-3.19-4.41-2.55-2.21-4.36-1.58c-2,.69-1.32,2.38-1.21,3.8.16,2,.09,3.61-2.7,3.47-2.54-.13-2.48-1.73-2.29-3.45a38.1,38.1,0,0,0-.08-11.82c-.5-2.4.41-3.86,3.14-3.73C308.35,175.71,310,175.65,312.41,175.65Zm.3,8c1.71-.46,4.58,1,4.79-1.86.19-2.46-2.42-2.15-4.17-2.12s-4.57-.78-4.75,2S311.2,183.12,312.71,183.65Z"/><path class="cls-1" d="M232.46,183.5c-1.51,2.88-.71,5.71-.77,8.45,0,1.22-.07,2.49-1.6,2.61a2.17,2.17,0,0,1-2.49-2.42c0-4.65,0-9.3,0-13.95,0-1.27.35-2.34,1.83-2.5a4.49,4.49,0,0,1,4.32,1.75c2.61,3.15,5.06,6.49,8.71,9,1.57-2.68.8-5.34.63-7.86-.11-1.5-.28-2.7,1.56-2.93s2.79.79,2.81,2.59q.06,6,0,12c0,1.59.61,3.59-1.54,4.22-1.94.57-3.51-.48-4.76-2C238.51,189.34,236.07,186,232.46,183.5Z"/><path class="cls-1" d="M203.87,184.41c.18-8.79.18-8.79,9.09-8.78q3.22,0,6.47-.06c1.34,0,2.22.36,2.21,1.94,0,1.4-.55,1.88-2,2.2a31.32,31.32,0,0,1-8.78.79c-.88-.05-2.32-.29-2.25,1.13a2.07,2.07,0,0,0,2.46,1.88c.94-.1,1.81-.71,2.74-.85,1.81-.28,3.51.12,3.65,2.28.14,2.47-1.88,1.57-3.21,1.79-2,.33-5.64-1.56-5.68,1.84,0,4,3.85,1.5,5.91,2a13.56,13.56,0,0,0,4.94-.18c1.86-.24,2.36.72,2.36,2.28s-.79,2-2.22,2c-3.65-.07-7.3-.24-10.94-.05s-5.4-.83-4.82-4.76A38.36,38.36,0,0,0,203.87,184.41Z"/><path class="cls-1" d="M262,175.61c9.12-.89,12.7,2.79,12.54,10.29-.11,5.08-2.65,8-7.77,8.54-3.27.37-6.6.09-9.9.15-2,0-2.51-1.14-2.48-2.87.05-2.81,0-5.62.05-8.43C254.48,175.63,254.48,175.63,262,175.61Zm-2.85,9.89c-1,3.24-.39,5.6,4.3,5.44,4-.13,6.78-1.3,6.87-5.75.07-3.81-2.62-5.61-7.53-5.74C258.29,179.34,258.69,182.09,259.15,185.5Z"/><path class="cls-1" d="M193.34,189.13c-1.44-2.31-6.81,1.1-5.6-3.43.71-2.66,4.69-.69,7.17-1.06a2.05,2.05,0,0,1,2.52,1.85c-.05,2.21,1.06,4.64-1,6.59-3.52,3.34-15.73,1.74-18.27-2.43-4.17-6.84,0-14.83,8-15.05,2.63-.08,5.28-.23,7.88.63,1.52.51,3,1,2.53,2.93s-2.06,1.78-3.61,1.35a22.8,22.8,0,0,0-3.82-1c-3.56-.36-6.52.28-7.82,4.33-.94,2.92.06,5.13,2.39,6.3C186.94,191.78,190.52,192.9,193.34,189.13Z"/><path class="cls-1" d="M155.67,184.81c-.24-9.18-.24-9.17,8.93-9.19,1.83,0,3.66-.05,5.49,0,1.45,0,3.3-.31,3.14,2-.13,2-1.74,2.13-3.34,2.1-2.32-.05-4.65-.09-7,0-1.2,0-3-.7-3.12,1.37-.16,2.24,1.85,1.94,3.19,2.14a11.06,11.06,0,0,0,2.95-.26c1.52-.17,2.62.2,2.79,2,.21,2.16-1.3,1.87-2.61,1.88a1.4,1.4,0,0,0-.5,0c-1.94.79-5.9-2.18-5.69,2.16.15,3.22,3.68,1.48,5.7,1.74a45.93,45.93,0,0,0,6-.11,1.77,1.77,0,0,1,2,1.7c.15,1.41-.52,2.41-1.85,2.41-5,0-10,0-14.93-.31-1.49-.08-1.88-1.53-1.68-3.06C155.44,189.11,155.51,187,155.67,184.81Z"/><path class="cls-1" d="M216.13,120.2c-1.31-4.56-.25-6.67,4.23-6.51,4.31.16,8.63.13,12.94,0,2.71-.1,4,1.06,4.18,3.66.06.92.46,2.08-.76,2.6-1.05.45-1.41-.63-2-1.12-1.56-1.37-3.31-2.69-5.34-1.78-2.21,1-.82,3.23-.89,4.9-.16,3.48-.11,7-.08,10.44,0,2.33-.85,5.08,2.64,6a1.89,1.89,0,0,1,.81,1.59c-.13.93-1.08,1.2-1.91,1.2-1.66,0-3.32-.2-5-.13-1.45.06-3.35,1-4-.71-.54-1.37,1.36-2,2.37-2.78,1.45-1.09,1.13-2.65,1.14-4.11,0-4,.07-8-.07-11.93-.06-1.52.92-3.56-1.12-4.43s-3.83,0-5.17,1.77A9.28,9.28,0,0,1,216.13,120.2Z"/><path class="cls-1" d="M99.84,127.22c0,2.49,0,5,0,7.47,0,.94-.32,2.06.59,2.77,1.09.84,3.42,1.11,2.63,2.89s-2.87.92-4.5.7a15.69,15.69,0,0,0-3,.18c-1.17.09-2.6.35-3.19-.79s.59-2.07,1.57-2.63c1.74-1,1.77-2.63,1.76-4.32,0-4.48,0-9-.08-13.44,0-1.16.68-2.91-1.32-3.21-1.44-.22-3-.39-4,1.14-.6.88-.87,2.41-2.49,1.49a2.09,2.09,0,0,1-.82-2.2c.1-1.34.26-3.14,1.76-3.2a159,159,0,0,1,17.87,0c1.91.14,3,3.14,2,4.89-1.08,2-2.4,0-3.5-.84s-2.54-1.78-4.1-1.21c-1.94.71-1.06,2.53-1.16,3.87-.16,2.15-.05,4.31-.05,6.47Z"/><path class="cls-1" d="M528.87,127.91c1.23,3.13-2.39,8,3,10.92,1.57.86,0,2.44-1.49,2.43-2.48,0-4.93-.33-7.44-.16a1.2,1.2,0,0,1-.68-2.29c3.65-1.81,2.53-5,2.61-7.79.1-3.49.09-7,0-10.47,0-1.23.57-2.92-1-3.56a3.76,3.76,0,0,0-4.54,1c-.75.84-1.44,2-2.82,1.6-1-.3-.77-1.3-.75-2.12,0-1.62.57-3.4,2.21-3.47,5.63-.27,11.28-.28,16.92-.15,1.86,0,2,1.87,2.26,3.36.15.87.27,1.85-.5,2.24-2,1-1.8-1.37-2.75-2a4.45,4.45,0,0,0-3.8-.47c-1.58.37-1.18,1.8-1.21,2.87C528.82,122.32,528.87,124.81,528.87,127.91Z"/><path class="cls-1" d="M287.48,190c-2.57-.76-4.16.55-5,3.1a2.24,2.24,0,0,1-3.18,1.47c-1.81-.69-1-2.14-.46-3.32,2.05-4.48,4.21-8.92,6.21-13.43a3.26,3.26,0,0,1,3.43-2.21c2,.06,2.24,1.53,2.85,2.9,1.79,4,3.64,8,5.59,12,.64,1.28,3.27,2.27.91,3.85a3.17,3.17,0,0,1-4.65-1.5C292,190.17,290.34,189.32,287.48,190Z"/><path class="cls-1" d="M411.4,183.55c-3.47.56-3,5.68-6.48,4.85-2.68-.63-2.46-4.48-5.67-6.37,0,3.43,0,6.29,0,9.15,0,1.23.48,3.08-1.42,3.12-1.36,0-1.46-1.59-1.46-2.76q0-6.71.14-13.4a2.2,2.2,0,0,1,1.4-2.36c1-.29,1.52.51,2.06,1.09,2,2.13,2.64,6.41,5.43,6.51s3.42-4.32,5.62-6.23c.86-.75,1.62-1.87,2.94-1.44,1.55.51.92,1.89.94,3q.14,6.21.25,12.43c0,1.31.28,3.08-1.46,3.15s-2.26-1.61-2.26-3.22C411.4,188.58,411.4,186.12,411.4,183.55Z"/><path class="cls-1" d="M382.72,174.76c4.94-.16,10.22,4.83,10.48,9.91.24,4.55-4.86,10.4-9.29,10.65-5.31.3-10.51-4.68-10.7-10.23C373,180.31,378,174.9,382.72,174.76Zm-.31,16.9c4.71.25,7-1.69,7.32-5.94a6.64,6.64,0,0,0-6.17-7.49c-3.68-.22-7.35,3-7.06,6.76S378.13,191.89,382.41,191.66Z"/><path class="cls-1" d="M468,188.69a32,32,0,0,0,.36-10.22c-.08-1.21,0-2.57,1.5-2.59,1.35,0,1.15,1.36,1.16,2.29.06,4.63.07,9.27.08,13.9,0,.8.12,1.72-.77,2.18-1.2.61-1.85-.4-2.44-1.09-3.09-3.7-6.13-7.46-10-12.18,0,4.61,0,7.81,0,11,0,1.19-.26,2.52-1.8,2.42-1.37-.1-1.1-1.45-1.1-2.35q0-6.69.06-13.4c0-1.07-.43-2.52,1.09-2.93,1.29-.35,2.2.64,2.91,1.53C461.88,180.77,464.63,184.35,468,188.69Z"/><path class="cls-1" d="M418.53,183.81c.08.49-.22-.34-.14-1.14.24-2.36-1-5.88,1.77-6.66,3.47-1,7.52-1.68,10.93,1,2.22,1.72,2.72,4,2.08,6.68a5.1,5.1,0,0,1-5.44,4.13c-3.21,0-6.13-.09-5.67,4.47a1.8,1.8,0,0,1-1.88,1.91c-1.37.07-1.5-1.36-1.57-2.12C418.4,189.74,418.53,187.42,418.53,183.81Zm3.59-1.63c-.05,1.73-.19,3.47,2.4,3.34s5-.62,5.33-3.36c.25-2.37-1.73-3.92-4.13-4.15C422.75,177.73,422.18,179.81,422.12,182.18Z"/><path class="cls-1" d="M346.25,177.06c-1.18,1.59-2.42,3.34-3.76,5-2.29,2.85-4.7,5.57-3.38,9.75a2,2,0,0,1-1.94,2.78c-1.73.05-3.21-.73-2.84-2.57,1.12-5.59-2.6-8.86-5.6-12.52-.88-1.07-2.9-2.3-.93-3.48a4.1,4.1,0,0,1,5.39.67,7,7,0,0,1,.83,1.79c.63,1.53,1.26,3.52,2.92,3.65s2.52-2,3.19-3.41c.95-2,2.12-3.34,4.48-3.12C345.41,175.68,346.33,175.67,346.25,177.06Z"/><path class="cls-1" d="M142.24,194.69c-9-.09-9-.09-8.91-9a37.07,37.07,0,0,0-.2-6.92c-.39-2.13-.14-3.18,2.21-3.21s3.6.55,2.58,3.17a5.15,5.15,0,0,0-.1,1.48c-.52,10.3-.52,10.3,9.82,10.37,1.37,0,3.24-.7,3.39,1.66s-1.46,2.55-3.32,2.44S144.06,194.69,142.24,194.69Z"/><path class="cls-1" d="M307.3,114.06H318c-4.41,2.69-4.07,5.94-3.61,9,.8,5.36-2.37,11.2,2,16.17.8.91-.11,1.9-1.34,1.93a37.2,37.2,0,0,0-4.47-.08c-3.49.52-2.73-1.05-1.68-3C311.51,133.12,310.81,118.26,307.3,114.06Z"/><path class="cls-1" d="M451.91,193.15c.06.37-.3.91-.94,1.19-1.18.52-1.8-.33-2.46-1.09-4.28-4.86-7.59-4.92-12-.3-.75.79-1.55,2-2.87.88-1-.83-.42-1.69,0-2.63,2.16-4.41,4.21-8.87,6.35-13.3.82-1.7,2.43-3.94,3.85-1.52C447,181.6,449.19,187.31,451.91,193.15Zm-10.12-12.29c.23,2.24-3.71,4.06-.71,6.32.91.68,2.89.77,3.51-.53C445.8,184.1,443.69,182.54,441.79,180.86Z"/><path class="cls-1" d="M59.49,190.13c-2.72-.7-4.83-.18-6,2.71-.48,1.14-1.52,2.55-3,1.47-1-.75-.63-2.11.06-3.15,2.66-4,4-8.56,6-12.85.56-1.18,1-2.55,2.6-2.67s2.12,1.38,2.65,2.51c2,4.29,4,8.6,5.89,13,.45,1,1.41,2.64-.28,3.39-1.36.61-2-.78-2.46-1.83C63.87,190.16,62.27,188.93,59.49,190.13Zm-.67-9.29c.13,2.37-3.91,3.64-1.58,6.21.91,1,3.23,1,4-.12C63.09,184.16,60.05,182.84,58.82,180.84Z"/><path class="cls-1" d="M364.72,195.07c-4.17-.42-7.7-1.73-9.16-5.87-1.55-4.4-1-8.64,2.64-11.77,3-2.57,6.68-3.73,10.54-1.61,1.21.66,3.12,1.5,2.21,3.27-.79,1.55-2.37.52-3.44-.14-3.5-2.19-6-.52-8.12,2.11s-1.76,5.61-.06,8.28c1.82,2.86,4.76,2.47,7.58,2,1.48-.24,3.15-3.29,4.28-.54,1,2.52-2.22,2.7-3.75,3.66A7.93,7.93,0,0,1,364.72,195.07Z"/><path class="cls-1" d="M482.73,194.49a2.47,2.47,0,0,1-1.77-2.8c1-5.07-2.19-8.3-4.93-11.82-.82-1.06-3.13-2.61-.89-4,1.84-1.14,2.66,1.29,3.78,2.34.21.2.18.64.36.91,3.21,5,3.33,5,6.7.13a16.43,16.43,0,0,1,1.08-1.63c.94-1,1.89-2.9,3.46-1.73,1.3,1,.08,2.43-.74,3.42-3.1,3.73-5.87,7.51-5.13,12.81A2.22,2.22,0,0,1,482.73,194.49Z"/><path class="cls-1" d="M58.82,180.84c1.23,2,4.27,3.32,2.43,6.09-.78,1.17-3.1,1.12-4,.12C54.91,184.48,59,183.21,58.82,180.84Z"/></g></g></svg>