<svg xmlns="http://www.w3.org/2000/svg" viewBox="0 0 383.21 383.16"><defs><style>.cls-1{fill:#f9bc15;}</style></defs><g id="Layer_2" data-name="Layer 2"><g id="Layer_1-2" data-name="Layer 1"><path class="cls-1" d="M113.73,0h6c5.61,5.07,10.6,10.67,13.89,17.55,2.4,5,3.78,10.2,2.81,15.87-1.89,11-8.71,18.87-16.73,26.43h10.44c6.47,0,9,2.56,9,9,0,15.83.09,31.67-.07,47.5,0,2.88.78,3.47,3.49,3.4q11.78-.3,23.56,0c2.55.06,3-.78,3-3.12-.11-13.59.13-27.18-.11-40.77-.27-15.29.56-16.54,15.92-16.07,1.11,0,2.42.58,3.32-.36a56.91,56.91,0,0,1-11.48-13.27c-6.95-10.83-6.91-21.71,0-32.56A65.66,65.66,0,0,1,188.56,0h6c5.61,5.07,10.59,10.67,13.89,17.55,2.4,5,3.78,10.2,2.8,15.87-1.89,11-8.7,18.87-16.73,26.43H205c6.47,0,9,2.56,9,9,0,15.83.09,31.67-.08,47.5,0,2.88.78,3.47,3.5,3.4q11.78-.3,23.56,0c2.55.06,3-.78,3-3.12-.11-13.59.14-27.18-.1-40.77-.27-15.29.56-16.54,15.91-16.07,1.11,0,2.43.58,3.37-.41a53,53,0,0,1-11.52-13.22c-7-10.83-6.92-21.71,0-32.56A66.26,66.26,0,0,1,263.38,0h6C275,5.07,280,10.67,283.26,17.54c2.4,5,3.78,10.2,2.81,15.88-1.87,11-8.7,18.82-16.68,26.43,3.76,0,7.2,0,10.65,0,6.17,0,8.78,2.65,8.78,8.9q0,21.51,0,43c0,7.87,0,7.87,7.77,7.94,11.12.1,21,8.61,22,19.45.52,5.82,0,11.71.19,17.57.3,10.18-4.06,17.72-12.74,22.82a3.79,3.79,0,0,0-2.3,3.73q.13,21.51,0,43c0,2.06.46,2.75,2.63,2.71,6.73-.14,13.47-.09,20.2,0a22.21,22.21,0,0,1,22.09,22.09c.06,9.1.1,18.2,0,27.3s-4.29,16.24-12.24,20.8c-2.2,1.26-2.76,2.58-2.75,4.93.09,20.07.12,40.14,0,60.21,0,3,.5,4,3.75,3.91,12.59-.22,25.18-.12,37.77-.07,5.43,0,9,4.42,7.79,9.35-.95,3.8-3.94,5.6-9.35,5.6q-181.38,0-362.77.08c-4.52,0-8.14-.87-10.84-4.57v-6c2.69-3.72,6.31-4.69,10.84-4.58,11.84.27,23.69,0,35.53.15,2.42,0,3.09-.59,3.07-3.05q-.15-30.86,0-61.71a4,4,0,0,0-2.39-4c-8.39-4.76-12.64-12-12.63-21.72,0-8.85,0-17.7,0-26.55a22.22,22.22,0,0,1,22-22.16c6.61-.06,13.22-.12,19.82,0,2.4.06,3.12-.53,3.1-3q-.19-20.75,0-41.51c0-2.47-.57-3.93-2.87-5.31-8.08-4.83-12.32-12-12.16-21.62.09-5.24,0-10.48,0-15.71a22.38,22.38,0,0,1,14.45-20.71c4.09-1.63,8.3-1.53,12.5-1.34,2.53.12,3-.73,3-3.1-.1-15.71,0-31.42,0-47.12,0-7.48,2.26-9.69,9.87-9.7h9.93A53.55,53.55,0,0,1,102,46.2c-7-10.83-6.92-21.71,0-32.57A66.52,66.52,0,0,1,113.73,0Zm77.9,243.91H58.83c-6.58,0-9.41,2.78-9.44,9.23,0,8-.06,16,0,23.94.07,6.33,3.56,9.73,9.88,10.29,8.86.79,17.33,2.89,25.09,7.55,11.73,7.06,23.6,6.92,35.23-.23,18.08-11.12,36-11.12,54.1,0,11.78,7.23,23.78,7.32,35.56.07,18.21-11.21,36.25-11.17,54.44,0,11.51,7.08,23.32,7.17,34.9.23,7.67-4.59,16-6.75,24.69-7.6,7.22-.7,10.4-3.93,10.42-11.3s0-14.46,0-21.69c0-8.14-2.36-10.52-10.42-10.52ZM64.35,303.58v3.92c0,18.82.09,37.65-.08,56.47,0,3.36.77,4.23,4.19,4.22q123.06-.15,246.13,0c3.28,0,4.68-.64,4.21-4.15s1.51-8.31-.77-10.34c-2-1.75-6.63-.53-10.1-.53q-35.34,0-70.7,0c-5.38,0-8.69-3.39-8.25-8.29.37-4.12,3.53-6.66,8.39-6.66h78.18c1.66,0,3.34.56,3.28-2.42-.2-10-.15-19.95,0-29.92,0-2.35-1-2.45-2.64-1.94a37.67,37.67,0,0,0-8.62,3.44c-17.79,10.68-35.47,10.42-53.13-.42-12-7.4-24.17-7.26-36.22.14q-26.52,16.29-53.11.11c-12.34-7.54-24.53-7.56-36.87,0q-25.87,15.85-52.15.46A29.07,29.07,0,0,0,64.35,303.58ZM191.17,229c31.4,0,62.81,0,94.21.06,2.66,0,3.57-.43,3.53-3.37-.2-12.33-.14-24.67,0-37,0-2.13-.47-2.66-2.67-2.47a48.77,48.77,0,0,1-31.27-7.6c-12.36-7.81-24.69-7.56-37.15.05-17.56,10.72-35.24,10.57-52.77-.17-12.19-7.47-24.41-7.68-36.51-.07a49.26,49.26,0,0,1-31.21,7.81c-2.47-.22-3.09.32-3.07,2.8.13,12.21.17,24.43,0,36.64,0,2.89.8,3.4,3.5,3.39C128.85,228.91,160,229,191.17,229Zm.46-94.27q-51.06,0-102.11,0c-7.63,0-10.19,2.51-10.2,10,0,4.23,0,8.47,0,12.71a9.53,9.53,0,0,0,5,8.92c12.42,7.22,24.46,6.41,36.59-1,16.9-10.3,34.2-10.46,51.11-.18,13.29,8.09,26.08,8.27,39.16-.16a45.4,45.4,0,0,1,22.46-7.13c11-.6,20.79,2.46,30,8.24,10.92,6.84,22.24,7,33.65,1.09,4.37-2.24,6.74-5.65,6.49-10.77-.19-3.86,0-7.73,0-11.6,0-7.58-2.52-10.12-10.06-10.12Q242.68,134.66,191.63,134.68ZM124.21,97.27c0-3.49.09-7,0-10.47-.13-3.94,1.71-9.21-.75-11.42-2.16-1.93-7.35-.36-11.19-.61-2.46-.16-3.09.62-3,3,.14,10,0,19.94.09,29.91,0,3.94-1.74,9.35.74,11.39s7.6.42,11.56.63c2.13.12,2.72-.56,2.68-2.67C124.12,110.48,124.21,103.87,124.21,97.27Zm74.82,0c0-3.49.1-7,0-10.47-.14-3.93,1.7-9.2-.76-11.41-2.16-1.94-7.35-.36-11.18-.61-2.47-.17-3.09.63-3.06,3.06.14,10,0,19.94.1,29.91,0,3.93-1.74,9.34.73,11.39s7.61.41,11.57.62c2.14.12,2.72-.57,2.67-2.67C199,110.47,199,103.87,199,97.26Zm74.83.16c0-6.73-.08-13.46.05-20.18,0-2-.59-2.54-2.51-2.46-3.36.15-6.73.1-10.1,0-1.58,0-2.47.08-2.45,2.12.09,13.58.07,27.16,0,40.75,0,1.67.52,2.12,2.12,2.07,3.49-.11,7-.15,10.47,0,2,.1,2.48-.62,2.45-2.52C273.79,110.64,273.86,104,273.86,97.42ZM121.4,29.94c.17-3.62-1.55-6.6-3.5-9.52-.9-1.36-1.46-1.18-2.44,0a14.91,14.91,0,0,0,.14,19.18c1,1.06,1.41,1.1,2.19,0C119.78,36.66,121.51,33.68,121.4,29.94Zm74.83-.06c.09-3.77-1.65-6.74-3.64-9.63-.86-1.25-1.34-.92-2.2.06a14.89,14.89,0,0,0-.07,19.17c1.08,1.28,1.61,1.15,2.44-.09C194.7,36.46,196.42,33.47,196.23,29.88Zm74.84.08a17.38,17.38,0,0,0-3.53-9.6c-1.07-1.37-1.62-1.07-2.44.12-2,2.9-3.55,5.94-3.47,9.6s3.19,10.46,4.77,10.37S271.06,33.33,271.07,30Z"/><path class="cls-1" d="M44.9,0c5.44,5.35,10.92,10.67,16.31,16.07,3.94,3.95,4.22,8.59.88,11.81s-7.68,2.76-11.53-1S42.8,19.11,38.93,15.23c-6.3-6.3-6.3-9.52,0-15.23Z"/><path class="cls-1" d="M344.2,0c6.28,5.72,6.28,9,0,15.25-4,4-7.88,8-11.9,11.87-3.64,3.55-8.12,3.8-11.27.75s-3.09-7.78.63-11.52c5.47-5.5,11-10.91,16.57-16.35Z"/><path class="cls-1" d="M344.57,59.86c-3.49,0-7,0-10.47,0-4.78-.07-7.9-3.11-7.86-7.57,0-4.29,3.12-7.33,7.67-7.37q11-.1,22.06,0c4.55,0,7.63,3.08,7.68,7.36,0,4.46-3.08,7.51-7.86,7.58C352.05,59.9,348.31,59.86,344.57,59.86Z"/><path class="cls-1" d="M326.37,74.78A7.46,7.46,0,0,1,332,77.34c4.68,4.63,9.37,9.24,14,14,3.52,3.62,3.69,8.13.61,11.25s-7.66,3-11.25-.46c-4.8-4.69-9.51-9.46-14.22-14.24a7.28,7.28,0,0,1-1.74-8.52C320.66,76.26,323.13,74.89,326.37,74.78Z"/><path class="cls-1" d="M37.93,59.85c-3.61,0-7.23.06-10.84,0-4.53-.09-7.61-3.12-7.63-7.41A7.24,7.24,0,0,1,27,44.91q11.22-.12,22.43,0a7.46,7.46,0,0,1,.11,14.91C45.66,59.93,41.8,59.85,37.93,59.85Z"/><path class="cls-1" d="M64.38,82.2a6.84,6.84,0,0,1-2.15,5.4c-5,5-9.9,10.12-15,15A7.52,7.52,0,1,1,36.68,91.85c4.81-5,9.77-9.9,14.74-14.77a7.55,7.55,0,0,1,13,5.12Z"/><path class="cls-1" d="M214,345.59a7.49,7.49,0,1,1-7.65-7.41A7.35,7.35,0,0,1,214,345.59Z"/></g></g></svg>