<svg xmlns="http://www.w3.org/2000/svg" viewBox="0 0 383.09 292.38"><defs><style>.cls-1{fill:#f9bc15;}</style></defs><g id="Layer_2" data-name="Layer 2"><g id="Layer_1-2" data-name="Layer 1"><path class="cls-1" d="M383.09,55.61v220c-.2.12-.51.2-.58.38-5,12.29-10.87,16.25-24.13,16.25H240.92a40.21,40.21,0,0,1-4.11-.1,10.52,10.52,0,0,1-9.39-9.95c-.35-7.13,4.42-11.74,12.27-11.74,39.28,0,78.55-.06,117.83.09,3.45,0,3.94-1,3.94-4.11q-.13-101.19-.07-202.38a25.38,25.38,0,0,0,0-2.62c-.05-.43-.34-1.19-.55-1.2-2.12-.09-4.37-.49-6.31.09-1.36.4-.57,2.46-.57,3.75q-.06,87.72,0,175.45a25.83,25.83,0,0,1-1.25,8.81c-4.23,11.94-16.8,17.58-29.22,12.71a102.31,102.31,0,0,0-51.67-6.24c-26.74,3.56-50.15,14.65-70.3,32.49A18.85,18.85,0,0,1,188,292.38q-81.36-.18-162.72-.08c-1.74,0-3.49,0-5.23-.15A21.33,21.33,0,0,1,0,271Q0,165.34,0,59.66A20.32,20.32,0,0,1,4,47.49c5.35-7.4,12.89-9.81,21.63-9,2.95.26,3.75-.7,3.62-3.62-.49-10.28,4.12-17.47,13.35-22.11C67.69.11,94.08-2.55,121.41,2.23c25.35,4.43,47.93,15.15,68.09,31,1.54,1.21,2.38,1.34,4,.06,23-18,48.82-29.4,78-32.49,23.52-2.49,46.06.82,67.53,11.13,10.09,4.84,15.44,12.22,14.75,23.52-.16,2.63.86,3.06,3.15,2.95,4.47-.22,8.93-.18,13.19,1.72C377,43.21,380.66,48.89,383.09,55.61ZM180.34,258.18c.07-.67.17-1.13.17-1.59q0-100.06.06-200.14a5.06,5.06,0,0,0-2.3-4.31C158,35.67,135.21,25.24,109.08,22.46c-19.36-2.06-37.9.65-55.52,9.16-2.08,1-2.91,2.2-2.79,4.55.23,4.35.17,8.72.12,13.09A10.58,10.58,0,0,1,40,60.09c-5,.06-10,.2-15-.06-2.81-.14-3.45.66-3.44,3.45q.13,101.75,0,203.5c0,2.67.45,3.53,3.37,3.52,43-.11,86-.07,129-.11.82,0,2,.64,2.56-.61a112.53,112.53,0,0,0-15.55-7.27c-27-10.18-54.13-12.18-81.5-1.42a22.93,22.93,0,0,1-7.21,1.74,21.65,21.65,0,0,1-23.16-21.92q0-76.87,0-153.75a20.94,20.94,0,0,1,.05-2.24,10.83,10.83,0,0,1,13.88-9.17c5.24,1.59,7.79,5.36,7.79,11.68q0,74.63,0,149.26v4.08C97.3,223.8,139.77,232.23,180.34,258.18Zm22.24.37c2.22-1.42,3.85-2.51,5.53-3.53,38.29-23.17,78.55-30.5,121.59-15,3.58,1.29,2.38-1.24,2.38-2.55q.09-100.78.14-201.57a4,4,0,0,0-2.59-4.29A92.63,92.63,0,0,0,293.89,22c-33.35-1.91-62.49,9-88.39,29.63-2.3,1.83-3,3.8-3,6.63q.1,98,.05,196Z"/></g></g></svg>