<svg xmlns="http://www.w3.org/2000/svg" viewBox="0 0 261.35 258.88"><defs><style>.cls-1{fill:#70c16d;}</style></defs><g id="Layer_2" data-name="Layer 2"><g id="Layer_1-2" data-name="Layer 1"><path class="cls-1" d="M261.34,256.85c-44.91,4.6-63.57-4.37-89-40.77-1.18.59-3.33,1.1-3.39,1.8-3.93,40.71-4.22,41-46.38,41H1.77C-5.15,217.94,12,190,48.2,167.91c-10.91-.69-17.85-.76-24.69-1.64C9,164.39.15,156.53.09,141.3-.07,95.39,0,49.49,0,2.28,41.23-5.45,69.71,10.69,92.15,48c.74-11.23-1.27-20.21,2.27-25.53,5.78-8.67,14.92-20.9,23.09-21.26,46.69-2,93.52-1,139.87-1,9.15,38.56-2.16,62.7-40.06,88.09.58,1.17,1.08,3.3,1.77,3.36,42,3.76,42.24,4,42.25,47.55C261.35,178,261.34,216.76,261.34,256.85ZM129.64,183c61.68-.73,54.53,8.05,55-54,0-.79,0-1.59,0-2.38-.33-56.61,5.72-50.51-51.49-50.3-63.68.23-55.89-8.51-56.06,55.11C77,190.35,71.28,182.44,129.64,183Z"/></g></g></svg>