<svg xmlns="http://www.w3.org/2000/svg" viewBox="0 0 468.58 306.07"><defs><style>.cls-1{fill:#be2226;}.cls-2{fill:#c6c6c6;}</style></defs><g id="Layer_2" data-name="Layer 2"><g id="Layer_1-2" data-name="Layer 1"><path class="cls-1" d="M47.86.05c15,0,30,0,45.05,0,2,0,2.49.49,2.4,2.5Q94.45,23,93.86,43.63c0,1.81-.92,1.78-2.22,1.77-12,0-24.09,0-36.14,0-1.74,0-2.49.19-2.47,2.27.12,11.79.09,23.58,0,35.37,0,1.81.5,2.24,2.26,2.23,11.45-.08,22.91,0,34.36-.11,2.43,0,2.71.76,2.62,2.86q-.69,17.39-1.09,34.79c0,2.13-.71,2.65-2.77,2.63-11.29-.1-22.57,0-33.86-.08-1.62,0-2.11.36-2.1,2.06q.1,24.3,0,48.6c0,2.08.73,2.27,2.47,2.26,10.69-.07,21.38,0,32.07-.08,1.78,0,2.28.4,2.2,2.22q-.87,19.66-1.51,39.34c0,1.43-.57,1.63-1.8,1.63q-38.18,0-76.36,0c-1.44,0-1.82-.42-1.86-1.86q-1-31.11-2.08-62.22-1-28.83-2-57.64-1-29.09-2-58.16C1,28.43.57,15.4,0,2.37-.07.5.35,0,2.29,0,17.48.09,32.67.05,47.86.05ZM86.27,198.31q-.36,9.27-.7,18.55c0,.82-.34,1.79.91,2.34a177.78,177.78,0,0,0,0-21c1.45-2.18-.2-4.24-.14-6.37C86.35,194,85.79,196.14,86.27,198.31ZM50.54,178.72c1.81-16,.38-31.84,0-47.71Zm.57-92.31,1,0c-.17-11.74.32-23.48-1-35.21ZM92.37,42.09c.68-12,1.36-24,1.15-36.09C92.71,18,92,30,92.37,42.09Zm-12.32,1.8c-8.14-1.43-16.49-1-24.84-.74v.74ZM90,102.76c-.54,6.61-1.27,13.24-.44,19.9C90.54,116.06,90.2,109.41,90,102.76ZM68,123.58c-5.71-.37-11.52-.07-17.32-.69v.69Z"/><path class="cls-1" d="M47.67,306c-12.56,0-25.12,0-37.67,0-1.73,0-2.27-.35-2.26-2.19q.1-32.19,0-64.38c0-1.79.47-2.23,2.24-2.23q37.8.09,75.6,0c1.66,0,2.08.43,2.08,2.08q-.09,32.32,0,64.64c0,1.65-.41,2.09-2.08,2.08C73,306,60.31,306,47.67,306Zm37.84-27.18q-.11,11.06-.19,22.11c0,1-.25,2.16,1.07,3.1.36-8.65-.41-17-.43-25.35.51-8.13-.31-16.22-.76-24.33-.1,7.43-.11,14.86-.1,22.28A3.13,3.13,0,0,0,85.51,278.85Z"/><path class="cls-2" d="M354.91,132.75a5.63,5.63,0,0,0-.23,2.75c0,27.39-.05,54.78.06,82.18,0,2.52-.69,3.13-3.09,3a77.84,77.84,0,0,0-9.66,0c-2,.11-2.35-.54-2.34-2.4q.09-43.76,0-87.52c0-14.16.09-28.32-.08-42.48,0-2.72.8-3.32,3.26-3.1a44.54,44.54,0,0,0,7.12,0c1.8-.12,2.66.49,3.32,2.2q11.16,28.72,22.47,57.41l11.73,29.86c.15.38.37.73.93,1.83v-2.76q0-42.87-.05-85.74c0-2.11.32-3,2.71-2.82a73,73,0,0,0,9.92,0c2-.12,2.3.62,2.3,2.42q-.07,56.74,0,113.47c0,5.85-.07,11.71.05,17.56,0,1.72-.51,2.13-2.13,2-2.7-.13-5.43-.14-8.14,0a2.6,2.6,0,0,1-3-2q-12.45-30.93-25.05-61.81-4.56-11.23-9.15-22.46C355.67,133.82,355.64,133.08,354.91,132.75Z"/><path class="cls-2" d="M230.61,175.8c0-29.47,0-58.65-.06-87.83,0-2.41.71-3,2.94-2.84,3.39.19,6.79.13,10.18,0,1.49-.05,2,.46,1.79,1.86a7,7,0,0,0,0,1q0,64.89.06,129.79c0,2.38-.66,3-2.9,2.82a43.4,43.4,0,0,0-7.12,0c-1.88.15-2.61-.62-3.28-2.27Q215.5,177,198.65,135.75a9.67,9.67,0,0,0-1.62-2.92v2.6c0,27.48,0,55,.06,82.45,0,2.24-.5,2.91-2.76,2.77a88.65,88.65,0,0,0-10.18,0c-2,.11-2.33-.57-2.33-2.41q.09-50.78,0-101.54c0-9.76,0-19.51,0-29.27,0-1.76.43-2.38,2.25-2.28a56,56,0,0,0,7.88,0c2-.15,2.93.56,3.67,2.45,7.21,18.61,14.54,37.19,21.83,55.77q5.87,14.93,11.74,29.86A5.34,5.34,0,0,0,230.61,175.8Z"/><path class="cls-2" d="M105.44,153.33c0-10.43,0-20.86,0-31.29.05-8,1.25-15.68,5-22.8,5.14-9.7,13.41-14.63,24.2-15.65,6.51-.61,12.86,0,18.85,2.73,9.83,4.56,15,12.81,17.56,22.92a52.27,52.27,0,0,1,1.51,13.08c0,21,0,41.9,0,62.85a50.64,50.64,0,0,1-3,17.9c-3.64,9.59-10.32,15.86-20.27,18.57a37.79,37.79,0,0,1-23.69-.89c-11.43-4.28-17-13.22-19.19-24.75a69.84,69.84,0,0,1-1-13.15C105.47,173,105.44,163.17,105.44,153.33Zm51.93.23c0-10.52,0-21,0-31.56a41.35,41.35,0,0,0-1.11-9.81c-1.51-6.26-4.65-11.38-11.23-13.21-6.73-1.87-13.19-1.07-18.48,3.89-5,4.67-6.28,10.94-6.31,17.4-.12,21.63-.08,43.27,0,64.9a33.9,33.9,0,0,0,2,11.69c2.69,7.35,8.68,11.42,16.58,11.35s13.72-3.94,16.49-11.17a31.81,31.81,0,0,0,2-11.41Q157.39,169.6,157.37,153.56Z"/><path class="cls-2" d="M414,152.86c0-21.71,0-43.42-.06-65.13,0-2.14.54-2.61,2.64-2.6q24.81.15,49.63,0c1.89,0,2.48.42,2.39,2.36-.17,3.46-.14,7,0,10.42.07,1.69-.46,2.09-2.1,2.08-11.79-.07-23.58,0-35.37-.08-1.86,0-2.42.37-2.4,2.33q.13,20.61,0,41.21c0,2,.64,2.31,2.42,2.28,6.78-.1,13.57,0,20.35-.08,1.51,0,2.09.29,2,1.93-.13,3.65-.12,7.3,0,10.94,0,1.59-.42,2-2,2-7-.08-13.92,0-20.87-.08-1.62,0-1.93.45-1.93,2q.09,20.86,0,41.72c0,1.65.52,1.91,2,1.91,11.79-.06,23.58,0,35.37-.09,2,0,2.58.58,2.48,2.55-.15,3.47-.1,6.95,0,10.42,0,1.32-.33,1.72-1.69,1.71-17.05,0-34.1-.07-51.15,0-2.19,0-1.74-1.22-1.74-2.4Z"/><path class="cls-2" d="M255.87,152.91c0-21.71,0-43.42-.05-65.13,0-2.13.54-2.76,2.66-2.65,3.47.18,7,.14,10.43,0,1.62-.06,2,.5,2,2-.08,5.76,0,11.53,0,17.3q0,49.49-.05,99c0,2.15.38,2.85,2.72,2.81,10.26-.15,20.52,0,30.79-.1,1.69,0,2.37.27,2.28,2.15-.17,3.47-.11,6.95,0,10.43,0,1.34-.22,1.9-1.76,1.89q-23.54-.09-47.08,0c-2,0-1.88-1-1.88-2.34Q255.89,185.61,255.87,152.91Z"/><path class="cls-2" d="M314.24,152.57c0-21.63,0-43.26-.05-64.89,0-2,.44-2.66,2.5-2.54a76.36,76.36,0,0,0,9.92,0c2.51-.19,2.85.81,2.84,3q-.1,37.15-.05,74.31c0,18.57,0,37.15.05,55.73,0,2-.5,2.59-2.5,2.49a101,101,0,0,0-10.44,0c-2,.1-2.32-.61-2.31-2.43Q314.29,185.4,314.24,152.57Z"/><path class="cls-1" d="M50.54,178.72V131C50.92,146.88,52.35,162.75,50.54,178.72Z"/><path class="cls-1" d="M51.11,86.41V51.16c1.28,11.73.79,23.47,1,35.21Z"/><path class="cls-1" d="M92.37,42.09C92,30,92.71,18,93.52,6,93.73,18.05,93.05,30.07,92.37,42.09Z"/><path class="cls-1" d="M80.05,43.89H55.22v-.74C63.56,42.85,71.91,42.46,80.05,43.89Z"/><path class="cls-1" d="M86.49,198.17a177.78,177.78,0,0,1,0,21c-1.25-.55-.94-1.52-.91-2.34q.33-9.29.7-18.55h.15Z"/><path class="cls-1" d="M90,102.76c.23,6.65.57,13.3-.44,19.9C88.7,116,89.43,109.37,90,102.76Z"/><path class="cls-1" d="M68,123.58H50.71v-.69C56.52,123.51,62.33,123.21,68,123.58Z"/><path class="cls-1" d="M86.49,198.17l-.07.14h-.15c-.48-2.17.08-4.34.08-6.51C86.29,193.93,87.94,196,86.49,198.17Z"/><path class="cls-1" d="M86,278.71c0,8.35.79,16.7.43,25.35-1.32-.94-1.07-2.06-1.07-3.1q.09-11.06.19-22.11A.46.46,0,0,0,86,278.71Z"/><path class="cls-1" d="M86,278.71a.46.46,0,0,1-.45.14,3.13,3.13,0,0,1-.41-2.19c0-7.42,0-14.85.1-22.28C85.65,262.49,86.47,270.58,86,278.71Z"/></g></g></svg>