<svg xmlns="http://www.w3.org/2000/svg" viewBox="0 0 917.21 916.87"><defs><style>.cls-1{fill:#ffcb05;fill-rule:evenodd;}.cls-2{font-size:124.9px;fill:#fff;font-family:Roboto-Bold, Roboto;font-weight:700;}.cls-3{letter-spacing:-0.09em;}</style></defs><g id="Layer_2" data-name="Layer 2"><g id="Layer_1-2" data-name="Layer 1"><path class="cls-1" d="M917.21,458.43v-.2h0C913.06,206.89,710,4,458.65,0h-.08C207.18,4,4.14,206.88,0,458.23H0a1.27,1.27,0,0,0,0,.2,1.55,1.55,0,0,0,0,.21H0C4.14,710,207.21,913,458.65,916.87h0C710,912.92,913.06,710,917.21,458.64h0ZM458.61,804.56c-189.45-3.9-342.3-156.69-346.3-346.13,4-189.43,156.85-342.22,346.3-346.12C648.06,116.21,800.9,269,804.89,458.43,800.9,647.87,648.05,800.66,458.61,804.56Z"/><text class="cls-2" transform="translate(190.46 499.87)">ES<tspan class="cls-3" x="146.67" y="0">P</tspan><tspan x="215.4" y="0">AÑOL</tspan></text></g></g></svg>