<svg xmlns="http://www.w3.org/2000/svg" viewBox="0 0 156.78 117.61"><defs><style>.cls-1{fill:#f4c85c;}.cls-2{fill:#f1af1d;}.cls-3{fill:#f9bc15;}</style></defs><g id="Layer_2" data-name="Layer 2"><g id="Layer_1-2" data-name="Layer 1"><path class="cls-1" d="M10.69,117.61H35.63V57L0,30.32v76.6a10.68,10.68,0,0,0,10.69,10.69"/><path class="cls-1" d="M121.15,117.61h24.94a10.68,10.68,0,0,0,10.69-10.69V30.32L121.15,57Z"/><path class="cls-2" d="M121.15,10.72V57l35.63-26.72V16.06A16,16,0,0,0,131.13,3.24Z"/><polygon class="cls-3" points="35.63 57.04 35.63 10.72 78.39 42.79 121.15 10.72 121.15 57.04 78.39 89.11 35.63 57.04"/><path class="cls-2" d="M0,16.06V30.32L35.63,57V10.72l-10-7.48A16,16,0,0,0,0,16.06"/></g></g></svg>