<svg xmlns="http://www.w3.org/2000/svg" viewBox="0 0 40.52 15.7"><defs><style>.cls-1{fill:#f9bc15;}</style></defs><g id="Layer_2" data-name="Layer 2"><g id="Layer_1-2" data-name="Layer 1"><path class="cls-1" d="M1.05,13.15c-.18.16-.53.32-.7.24A.87.87,0,0,1,0,12.72C0,10.38,0,8,0,5.7A5.26,5.26,0,0,1,.41,3.81a4.67,4.67,0,0,1,9,1.87q0,3.52,0,7c0,.24-.15.63-.31.67a1,1,0,0,1-.74-.26c-.52-.48-1-1-1.51-1.56-.57.58-1.06,1.1-1.57,1.6s-.65.43-1.07,0l-1.55-1.6C2.06,12.14,1.57,12.67,1.05,13.15ZM4.67,7.7v-2h-1l0,1-.49.1V7.7Zm2.57,0v-2h-1v1l-.5.1V7.7Z"/><path class="cls-1" d="M21.25,7.77l4.17,4.17c.73.73.73,1.07-.05,1.74a7.47,7.47,0,0,1-8,1.42,7.41,7.41,0,0,1-4.9-6.45A7.79,7.79,0,0,1,20.92,0a7.58,7.58,0,0,1,4.63,2.11c.54.52.55.9,0,1.45L21.84,7.3A7.15,7.15,0,0,1,21.25,7.77ZM20.16,4.3A1.14,1.14,0,1,0,19,5.45,1.12,1.12,0,0,0,20.16,4.3Z"/><path class="cls-1" d="M28.61,7.83a1.33,1.33,0,1,1-2.65,0,1.33,1.33,0,1,1,2.65,0Z"/><path class="cls-1" d="M33.17,7.85a1.28,1.28,0,0,1-1.34,1.33,1.3,1.3,0,0,1-1.3-1.32,1.32,1.32,0,1,1,2.64,0Z"/><path class="cls-1" d="M40.52,7.84a2.62,2.62,0,1,1-5.23,0,2.62,2.62,0,1,1,5.23,0Z"/></g></g></svg>