<svg xmlns="http://www.w3.org/2000/svg" viewBox="0 0 16.43 19.65"><defs><style>.cls-1{fill:#f9bc15;}</style></defs><g id="Layer_2" data-name="Layer 2"><g id="Layer_1-2" data-name="Layer 1"><path class="cls-1" d="M15.8,9.52H2.55L3,9.21c3.29-1.9,10.57-6.47,10.57-6.47a.64.64,0,0,0,.23-.87L13.15.32a.63.63,0,0,0-.86-.24L.32,7.36a.64.64,0,0,0-.24.87L1.23,9.47V19a.64.64,0,0,0,.63.64H15.8a.64.64,0,0,0,.63-.64V10.15A.63.63,0,0,0,15.8,9.52Zm-5.42-7.7L12.63.37,12.3,2.49,10,4Zm-4,2.46L8.66,2.86,8.25,5,6,6.42ZM1.82,9,2.2,6.87,4.47,5.42,4.09,7.57Zm.47,3.15,1.9-1.9H6.72l-1.9,1.9Zm4.43,0,1.9-1.9h2.59l-2,1.9Zm7,0H11.15l1.9-1.9h2.51Z"/><path class="cls-1" d="M15.41,17.56h-.58l-.31-.84a.15.15,0,0,0-.14-.1.16.16,0,0,0-.15.09l-.28.66L13.59,16a.17.17,0,0,0-.16-.12.18.18,0,0,0-.15.13l-.43,2.26-.31-1.22A.14.14,0,0,0,12.4,17a.13.13,0,0,0-.15.1l-.23.6h-.58a.16.16,0,0,0-.16.15.16.16,0,0,0,.16.16h.69a.16.16,0,0,0,.15-.1l.08-.24L12.72,19a.16.16,0,0,0,.15.12h0A.14.14,0,0,0,13,19l.44-2.28.31,1.14a.14.14,0,0,0,.14.11.15.15,0,0,0,.15-.09l.3-.72.22.58a.15.15,0,0,0,.14.1h.69a.16.16,0,0,0,.15-.16A.15.15,0,0,0,15.41,17.56Z"/></g></g></svg>