<svg xmlns="http://www.w3.org/2000/svg" viewBox="0 0 21.71 16.56"><defs><style>.cls-1{fill:#f9bc15;}</style></defs><g id="Layer_2" data-name="Layer 2"><g id="Layer_1-2" data-name="Layer 1"><path class="cls-1" d="M20.92,8.42H18L16.42,4.18a.79.79,0,0,0-.72-.52.77.77,0,0,0-.74.48L13.54,7.47,11.7.59a.79.79,0,0,0-1.54.05L8,12.12,6.41,5.92A.79.79,0,0,0,4.9,5.84l-1.13,3h-3a.8.8,0,0,0,0,1.59H4.32A.79.79,0,0,0,5.06,10L5.5,8.77,7.3,16a.8.8,0,0,0,.77.6h0a.79.79,0,0,0,.75-.64L11.06,4.33l1.54,5.76a.79.79,0,0,0,.71.59.8.8,0,0,0,.78-.48l1.54-3.61,1.08,2.9a.79.79,0,0,0,.74.52h3.47a.8.8,0,0,0,0-1.59Z" transform="translate(0)"/></g></g></svg>