<svg xmlns="http://www.w3.org/2000/svg" viewBox="0 0 834.62 417.38"><defs><style>.cls-1{fill:#f9bc15;}</style></defs><g id="Layer_2" data-name="Layer 2"><g id="Layer_1-2" data-name="Layer 1"><path class="cls-1" d="M416.94.06Q576.41,0,735.87,0C758,0,778.44,5.31,796.23,18.72c25.56,19.26,38,45.5,38.18,77.17.36,61.16.18,122.31.08,183.47,0,17.81.3,35.69-1,53.43-2.93,40.21-34.88,75.12-74.68,82.41a124.49,124.49,0,0,1-22.3,2q-321.19.17-642.37-.05C41.31,417.11-.22,375.31,0,319.48Q.51,209,0,98.53c-.21-48.78,29.93-87,77.63-96.85A87.85,87.85,0,0,1,95,.15Q175.49,0,256,.06ZM347.26,317.72H395V86.59H318c-4.25,35.57-8.46,70.86-12.68,106.16l-.8.12q-9.3-53.16-18.59-106.29h-71V317.77h51.8V194.24l.92-.1c7.09,41.2,14.18,82.4,21.35,124,10.42,0,20.56-.11,30.69.06,3.24.05,4.51-.79,5.12-4.27,5.45-31.28,11.15-62.51,16.78-93.76,1.51-8.36,3.05-16.71,4.57-25.07l1.14.13Zm76.32-2.79c1.52.1,2.49.22,3.46.22,21.16,0,42.34.47,63.48-.13a171.1,171.1,0,0,0,34.12-3.93c23.13-5.43,38.21-19,37-46.8-.36-8.31-.07-16.66-.08-25,0-36.82.15-73.65-.16-110.47-.12-14.57-5.84-31.55-26.66-37.16a156.76,156.76,0,0,0-35.36-5.08c-23.63-.79-47.31-.28-71-.31-1.59,0-3.18,0-4.87,0Zm154.24,3.19c15.54,0,30.51.06,45.47-.13,1.07,0,2.75-1.7,3.08-2.9,3.13-11.52,1.48-12,15-7.71,2.53.81,5,1.76,7.52,2.67,11.59,4.19,23.37,6,35.78,4.44,11.73-1.45,24.67-10.53,24.53-26.6-.35-43.48-.08-87-.24-130.46-.09-22.77-19.3-38.28-42-34.4-10.26,1.75-19.21,6.24-27.55,12.22-1,.7-2,1.31-3.84,2.48v-51H577.82Zm-391.58-.24V86.7H131.86V317.88Z"/><path class="cls-1" d="M478.62,276.23V121.7c5.92.87,11.62,1.3,17.09,2.66,4.18,1,4.85,4.9,4.84,8.86q-.06,53,0,105.93c0,8.83-.1,17.66,0,26.48.09,4.94-2.18,8.16-6.8,9.06C489,275.62,484,275.72,478.62,276.23Z"/><path class="cls-1" d="M651.76,219.83q0,27.48,0,54.95c0,1.83,0,3.67-.1,5.5-.15,3.36-2.18,5.69-5.26,5.43-2.21-.19-5.2-1.86-6.13-3.72-1.34-2.66-1.49-6.1-1.49-9.22q-.12-56.7,0-113.41c0-1.16-.28-2.53.22-3.44,1-1.87,2.25-4.61,3.83-4.95,2-.42,5.34.57,6.39,2.12a16.64,16.64,0,0,1,2.53,8.78c.21,19.32.11,38.64.11,58Z"/></g></g></svg>