<svg xmlns="http://www.w3.org/2000/svg" viewBox="0 0 910.73 911.28"><defs><style>.cls-1{fill:#ffcb05;}.cls-1,.cls-3{fill-rule:evenodd;}.cls-2{fill:#1a1b1c;}.cls-3{fill:#5e5e6b;}.cls-4{font-size:124.9px;fill:#fff;font-family:Roboto-Bold, Roboto;font-weight:700;}.cls-5{letter-spacing:-0.01em;}.cls-6{letter-spacing:-0.05em;}.cls-7{letter-spacing:0.01em;}</style></defs><g id="Layer_2" data-name="Layer 2"><g id="Layer_1-2" data-name="Layer 1"><path class="cls-1" d="M910.72,455.19V455h0C906.62,205.43,705,3.93,455.41,0h-.09C205.58,3.94,3.89,205.64,0,455.4H111.51c3.86-188.19,155.67-340,343.86-343.89,188.11,3.88,339.88,155.6,343.83,343.68-4,188.12-155.75,339.83-343.88,343.69V910.39C705,906.5,906.62,705,910.72,455.4h0A1.55,1.55,0,0,0,910.72,455.19Z"/><path class="cls-2" d="M394.44,817.57c-160.26-3.24-289.55-130.82-292.84-289H6.65C10,738.49,181.74,908,394.44,911.28Z"/><path class="cls-3" d="M394.44,817.57c-160.26-3.24-289.55-130.82-292.84-289H6.65C10,738.49,181.74,908,394.44,911.28Z"/><text class="cls-4" transform="translate(186.64 499.43)"><tspan class="cls-5">I</tspan><tspan class="cls-6" x="34.88" y="0">T</tspan><tspan x="99.89" y="0">AL</tspan><tspan class="cls-7" x="248.76" y="0">I</tspan><tspan x="286.51" y="0">ANO</tspan></text></g></g></svg>