<svg xmlns="http://www.w3.org/2000/svg" viewBox="0 0 408.61 353.34"><defs><style>.cls-1{fill:#f2f2f3;}</style></defs><g id="Layer_2" data-name="Layer 2"><g id="Layer_1-2" data-name="Layer 1"><path class="cls-1" d="M307.74,257.25c2.14,1.2,4.36.17,6.5.09,20-.69,38.1,5.47,55.49,14.51,3,1.58,6.08,3.25,9,5.09,4.79,3,5.82,8.73,1.79,12.57-18.91,18-39.46,33.49-65.44,39.91C292.37,335,272,327.69,258.17,308.9c-1.78-2.42-3-2.8-5.47-1.13a228.13,228.13,0,0,1-26.52,14.82c8.45,3.15,16.63,5.13,24.72,7.39,1.15.32,2.34.53,3.45.94,4.67,1.71,7,6.08,5.49,10.38-1.43,4.14-5.6,6.15-10.34,4.93a372.18,372.18,0,0,1-41.27-12.79,10.4,10.4,0,0,0-8,0,360,360,0,0,1-40.9,12.65c-5,1.29-9.25-.65-10.64-4.95-1.46-4.49.91-8.81,6-10.37,8.23-2.5,16.52-4.76,24.78-7.14.74-.22,1.45-.56,2.77-1.07A298.74,298.74,0,0,1,154,306.74c-2.21-1.42-2.46.77-3.14,1.69-6.3,8.49-14,15.27-23.9,19.19-13.78,5.43-27.64,4.33-41.24-.34C63.46,319.63,45,305.9,28.24,289.73c-4.42-4.27-3.2-9.93,2.41-13.23C52,263.89,74.5,255.2,100,257.8c.19,0,.42-.3.63-.46,0,.18,0,.37,0,.55l.36,0-.42-.47L86,232.85c-.59-1-1.22-.89-2.3-.55-27.25,8.53-43.47,3.54-61.25-19a140.84,140.84,0,0,1-21.76-40c-2.16-6,1-11.2,7.4-11.58,20.28-1.24,40.09.15,58,11.22a3.92,3.92,0,0,0,1,.16c-.51-6.92-1.85-13.71-1.83-20.6,0-1.7-1.29-1.85-2.49-1.92-24-1.48-35.56-16.89-42.14-37.73C16.58,100,15.2,86.71,15.3,73.23c.06-7.8,5.18-11.19,12.5-8.49,16.07,5.93,30.38,14.42,41.53,28.71C70.68,86.91,73,81.68,69.27,75,62,61.8,64.16,48.27,72,35.83c9.68-15.34,23.68-26,39.3-34.7a7.7,7.7,0,0,1,11.31,4.55c4.22,16.74,5.63,33.52-.93,50.06-5.79,14.61-16.37,24.56-30.76,30.48-2.55,1-4,2.21-4.63,5a261,261,0,0,0-5,38.11,125.07,125.07,0,0,1,26.3-22.25,148.84,148.84,0,0,1,16.61-9.36c5.45-2.56,10.92-.07,12,5.73,3.17,17.54,4.07,35-2,52.26-7,19.79-20.38,33.15-40.07,40.22-5,1.81-5.11,1.7-3.11,6.73,4,10,7.78,20,13.16,30,2.77-11.62,8-21.53,14.45-30.86a157.74,157.74,0,0,1,27.26-30c4.3-3.68,10.12-2.74,12.5,2.2,7.29,15.08,12.22,30.93,12,47.79-.28,21.73-8.69,39.91-25.93,53.62-.63.49-1.24,1-1.84,1.54a8.56,8.56,0,0,0-.65.79A207.93,207.93,0,0,0,176.9,301.6c.29-2-.74-3.4-1.2-4.93-4-13.39-1.08-25.68,6.1-37.21a76.56,76.56,0,0,1,16.7-19.14c3.53-2.86,7.63-3.24,10.88-.49,12.25,10.32,21.81,22.46,24.79,38.71,1.41,7.74-.06,15.23-3.19,23.36a209.68,209.68,0,0,0,35.71-24.2c-5.34-4.43-10.49-8.92-14.65-14.39-12.09-15.91-15.59-33.93-13.11-53.38,1.5-11.79,5.31-22.92,10.12-33.74,3.25-7.34,8.81-8.61,14.74-3.35,14.84,13.18,27.5,28,35.95,46.19a78.07,78.07,0,0,1,4.58,13.6,207.6,207.6,0,0,0,11.06-24.75c1.24-3.21,4.05-6.8,3.35-9.49-.75-2.86-5.76-2.63-8.81-4C288.47,184.63,276,168,271.41,145.07c-2.76-13.91-1.61-27.77.91-41.55,1.1-6,6.68-8.46,12.3-5.62C299.16,105.24,312.75,114,324,126a15.55,15.55,0,0,0,2.77,2.79c-.17-10.26-1.66-20.14-3-30.06-1-7.41-3.87-11.6-11-15.07-20.46-9.93-29.39-27.7-30.24-50a95.56,95.56,0,0,1,3.21-27.19C287,1.25,292.24-1.61,296.84,1c16.9,9.43,32.16,20.83,41.59,38.33,6.91,12.83,7.05,25.85-.5,38.58a7.9,7.9,0,0,0-1,6.41c.73,2.81,1.39,5.64,2.22,9,1.55-1.8,2.75-3.25,4-4.63C354,76.82,367.58,69.26,382.61,64.15c5.15-1.75,10.43,1.47,10.47,7.06.19,22.27-1.93,44.14-15.66,62.9-7.35,10-17.44,15.75-30.05,16.29-3.27.14-4.19,1.33-4.31,4.51-.23,6.07-1,12.13-1.57,18.61a84.06,84.06,0,0,1,24.08-9.74c11.68-2.74,23.46-2.46,35.29-2,3.69.14,5.83,2.67,7.75,5.43v5.58c-4.05,8.39-7.28,17.17-12.09,25.2-7.7,12.84-16.29,24.87-29.53,32.67-13,7.64-26.5,8.46-40.26,2.41-2.85-1.25-3.91-.8-5.38,1.79-4.32,7.58-9,15-13.47,22.44,0,.21-.05.42-.08.62l.31-.17Zm53.47,28.4c-11.86-6.08-23.77-10.24-36.71-11.78-22.35-2.64-38.89,7.26-52.91,23.23-.76.87-1,1.41-.23,2.61,7.61,11.39,22.34,17.22,35.83,14.75C328.19,310.62,344.78,298.85,361.21,285.65Zm-313.56-.2A127.47,127.47,0,0,0,92.84,312.6c17.65,5.9,32.8,1.64,43.77-12.28.82-1,1.78-1.74.49-3.25-7.08-8.2-14.61-16-25.1-19.59C89.41,269.82,68.25,275,47.65,285.45Zm100.5-93.63c-10.49,10.74-19.9,21.78-25.52,35.59-5.35,13.12-4.35,25.28,4.81,36.48,1.48,1.81,2.46,2.55,4.65.81a78.72,78.72,0,0,0,9.39-8.57C156.91,239.19,157.26,213.91,148.15,191.82Zm112.07-.23c-4.08,10.9-6.32,21.68-5.76,33,.85,17.24,8.8,30.48,22.59,40.53,1.58,1.15,2.36.87,3.54-.43,7.71-8.49,10.33-18.28,7.6-29.42C283.88,217.66,272.61,204.55,260.22,191.59ZM121.93,117.32c-12.68,7.61-24.12,15.82-32.54,27.62-7.53,10.56-8.25,21.73-3,33.45.84,1.88,1.57,2.89,4.12,1.83,11.62-4.81,20.57-12.36,26.12-23.79C122.55,144.17,123.12,131.19,121.93,117.32Zm164.75,0c-1,10-.95,19.35,1.43,28.54,4.26,16.48,14.12,28.12,30.08,34.43,1.53.6,2.63,1,3.46-.95,4.1-9.73,5.93-19.31.21-29.24C313.56,135.67,300.83,126.21,286.68,117.29ZM19.78,177.41c6.06,13.37,13,25.48,23.84,34.91,9.43,8.23,20,11.1,32,5.92,1.77-.76,2.34-1.61,1.75-3.51-1.21-3.91-2.13-7.91-4.23-11.5C61.23,182.82,41.81,178,19.78,177.41Zm369,.23a60.92,60.92,0,0,0-17.18,1.57c-19.47,4.35-34.41,14-40.1,34.48-.7,2.52-.63,3.75,2.22,4.87,9.7,3.84,18.71,2.75,27.11-3.14C374.23,206,381.77,192.27,388.78,177.64ZM218.62,284.75c-.49-10.9-6.35-19.13-13.35-26.8-1-1-1.53-.47-2.24.29-17.26,18.59-17.28,33.94,0,52.6.95,1,1.56,1.09,2.53,0C212.36,303.38,218,295.31,218.62,284.75ZM31.86,84.33c1,12.17,2.89,24,8.71,34.84,4,7.56,9.8,13.09,18.5,15,5.16,1.13,5.81.58,5.84-4.71C65,108.73,50.15,92,31.86,84.33Zm345-.38a69.38,69.38,0,0,0-14.59,9c-12,9.73-18.67,22.06-18.62,37.81,0,3.52,1.39,4.29,4.45,3.7,5.46-1.07,10.39-3.17,14.18-7.38C373.19,114.94,375.09,99.76,376.81,84ZM299.6,21.45a50.45,50.45,0,0,0-.35,18.49c2,13.86,9.37,23.9,21.86,30.26,1.73.88,2.52.61,3.39-1,2.66-5,3.72-10.22,2.16-15.71C322.51,38.84,311.29,30.21,299.6,21.45ZM109.12,21.4C100,28,91.83,34.65,86.06,43.82c-5,7.87-6.7,16-2.33,24.78,1,2.1,2,2.56,4.23,1.38,8.24-4.39,14.57-10.53,18.3-19.16C110.27,41.54,110.58,31.86,109.12,21.4Z"/><path class="cls-1" d="M123.47,353.31a7.91,7.91,0,0,1-7.74-8.31,8.29,8.29,0,0,1,8.55-7.66c4.2.18,7.91,4,7.84,8A8.23,8.23,0,0,1,123.47,353.31Z"/><path class="cls-1" d="M284.71,353.34a8.26,8.26,0,0,1-8.27-8c-.09-4.21,3.86-8.07,8.22-8.05a8.29,8.29,0,0,1,8.18,8A7.94,7.94,0,0,1,284.71,353.34Z"/><path class="cls-1" d="M100.52,257.4l.42.47-.36,0c0-.18,0-.37,0-.55Z"/><path class="cls-1" d="M307.74,257.25l.37.5-.31.17c0-.2.06-.41.08-.62Z"/></g></g></svg>