<svg xmlns="http://www.w3.org/2000/svg" viewBox="0 0 799.16 398.24"><defs><style>.cls-1{fill:#2084c0;}</style></defs><g id="Layer_2" data-name="Layer 2"><g id="Layer_1-2" data-name="Layer 1"><path class="cls-1" d="M397.32,199.11c-.52,109.4-86.69,195.46-191.71,199C93.78,401.9,3.13,313.87.08,205.13-3.08,92.38,85.58,3,193.09.07,304.33-2.91,396.7,85.79,397.32,199.11Zm-7.09,0c-.09-106-86.05-192.07-191.81-192S7,93.29,7.06,199.43s86,191.82,192,191.73C304.43,391.07,390.32,304.77,390.23,199.07Z"/><path class="cls-1" d="M485.3,229.41c4.44-31.33,8.89-62.66,13.37-94.28h25.51v127H507.74V184.33l-1.05-.07q-3.1,22.07-6.2,44.12c-1.43,10.19-2.75,20.4-4.38,30.56-.2,1.28-1.95,3.26-3.07,3.32-6.11.32-12.26.15-18.88.15-3.71-26.25-7.36-52.13-11-78l-1,.05v77.71H445.73v-127h25.39q6.69,47.1,13.39,94.31Z"/><path class="cls-1" d="M537.3,198.52c0-14,0-27.91,0-41.86,0-13.21,6-20.62,19.29-22a66.23,66.23,0,0,1,21.08,1.49c7.37,1.66,11.7,7.34,12.68,15a96.75,96.75,0,0,1,.71,11.91c0,25.08,0,50.16,0,75.23,0,16.14-7.05,24-23.19,24.94a56.15,56.15,0,0,1-14.34-1.07c-10.28-2.09-16-9.26-16.14-19.77-.14-14.62,0-29.23,0-43.84Zm35,.38h-.05c0-14.28.05-28.57,0-42.85,0-3.6-.8-7.51-4.84-8.32-2.76-.55-6.86-.31-8.58,1.38-2,2-2.89,5.92-2.91,9-.22,26.57-.14,53.15-.11,79.72a32.92,32.92,0,0,0,.54,6c.86,4.66,4.41,7.08,9.08,6.37s6.88-3.7,6.9-9.91C572.36,226.48,572.32,212.69,572.32,198.9Z"/><path class="cls-1" d="M641.3,262.42c-7.69,0-14.51.17-21.31-.16a5,5,0,0,1-3.53-3.27q-8.7-59.62-17-119.3a35.33,35.33,0,0,1,0-4.62h17.81c3.12,30.94,6.23,61.64,9.33,92.34l.89.16c.92-6.14,1.88-12.28,2.76-18.42,3.4-23.66,6.73-47.32,10.24-71,.18-1.22,1.69-3.15,2.68-3.21,5.26-.32,10.55-.15,16.25-.15C653.3,177.64,647.33,219.83,641.3,262.42Z"/><path class="cls-1" d="M748.29,213.83H762c.09,1.66.24,3.4.24,5.14,0,7.31-.06,14.63.05,21.94.1,6.16,4.57,9.57,12,9.44,6.88-.13,9.88-3,9.9-9.58s-.1-13.3,0-19.94a12.41,12.41,0,0,0-5.38-11.07c-6.82-5-13.09-10.84-20.15-15.48-7.56-5-10.09-12.08-10.52-20.3-.39-7.29-.32-14.62-.06-21.92.28-8.21,5.08-14.45,13.17-16.86a41.17,41.17,0,0,1,25.5.44c6.76,2.32,11.12,7,11.44,14.21.45,9.73.11,19.5.11,29.6H784.21c0-7.54-.08-15.12,0-22.69,0-3.84-.12-7.33-4.51-8.93-5-1.82-12.75-1.07-15.1,1.95a8.13,8.13,0,0,0-1.47,4.54c-.14,6.48,0,13,0,19.44a10.48,10.48,0,0,0,4.74,9.23c7.28,5.23,14.25,10.9,21.42,16.29,6.47,4.85,9.42,11.5,9.68,19.29.28,8.3.14,16.62,0,24.93-.11,10.68-5.58,17.05-16,19a42.25,42.25,0,0,1-24.46-2.09c-5.88-2.4-9.83-6.92-10.13-13.1C747.89,236.29,748.29,225.19,748.29,213.83Z"/><path class="cls-1" d="M714.93,202.52v46.76h22.63v12.77H696.41V135.13h41v12.62H715v41.71h20.87v13.06Z"/><path class="cls-1" d="M686.72,262.09H668.78V135.26h17.94Z"/><path class="cls-1" d="M319.35,224.47h-9.61V191.89l-1-.17c-4,9.59-8,19.13-11.8,28.79-1.17,3-2.48,4.35-6,4.35s-4.86-1.56-6-4.48A288.78,288.78,0,0,0,272.2,192v32.38h-9.27V173.63c3.6,0,7.1-.37,10.46.17,1.46.23,3.17,2.07,3.83,3.59,4.23,9.73,8.2,19.58,12.28,29.39.37.89.85,1.72,1.67,3.35,4.28-10.44,8.66-20,12.13-30,1.85-5.31,4.45-7.54,10-6.56a37.09,37.09,0,0,0,6.08,0Z"/><path class="cls-1" d="M175.56,173.87v8.72h-21.5v11.95h19.4v8.81H154.12v12h21.24v8.95H144.08V173.87Z"/><path class="cls-1" d="M361.19,203.62H342v11.77h21.21v9H332V173.93h31.29v8.82H342v11.74h19.23Z"/><path class="cls-1" d="M129.58,195.39v9.15H110v19.68h-9.81V173.85h31.59v8.87H110.15v12.67Z"/><path class="cls-1" d="M186.87,183V173.9h41.65v8.81H212.91v41.67h-10V183Z"/><path class="cls-1" d="M33.66,224.23V173.88h9.68v14.73c0,7.47.1,14.94-.1,22.4-.09,3.28,1,4.37,4.3,4.26,5.94-.2,11.89-.06,18.17-.06v9Z"/><path class="cls-1" d="M87.62,173.84v50.37H78.13V173.84Z"/><path class="cls-1" d="M240.9,173.86h9.29v50.47H240.9Z"/></g></g></svg>