<svg xmlns="http://www.w3.org/2000/svg" viewBox="0 0 287.49 383.04"><defs><style>.cls-1{fill:#f9bc15;}</style></defs><g id="Layer_2" data-name="Layer 2"><g id="Layer_1-2" data-name="Layer 1"><path class="cls-1" d="M121.31,383c-3.59-1.44-7.44-1.09-11.17-1.45-23.59-2.25-46.77-6.43-68.9-15.2-10.92-4.32-21.26-9.78-29.72-18.16C-4,332.86-3.82,313,12,297.91c10.77-10.3,24-16.16,37.8-21.07,2.11-.75,4.22-1.5,6.37-2.08a12.18,12.18,0,0,1,15,7.74,11.85,11.85,0,0,1-7.73,15.2c-7.15,2.47-14.33,4.84-21.08,8.3-5.34,2.73-10.5,5.74-14.63,10.19-4.76,5.12-4.75,9.26.1,14.3C34,336.92,41.91,340.62,50,343.81c16.5,6.47,33.69,10.1,51.23,12.43a320.19,320.19,0,0,0,64.9,2.05c25.38-1.8,50.37-5.7,74.06-15.62,6.33-2.65,12.44-5.74,17.6-10.35,7.4-6.61,7.4-11.71-.16-18.21-8.45-7.27-18.62-11.28-29-14.88-1.4-.49-2.82-.94-4.23-1.42-6.43-2.23-9.93-8.21-8.34-14.25,1.76-6.68,7.84-10.82,14.55-8.87,16.08,4.67,31.5,10.9,44.09,22.48,17.47,16.08,16.93,37.94-1.22,53.38-13.18,11.22-28.88,17.29-45.22,21.93a278,278,0,0,1-61.73,9.85c-.68,0-1.55-.31-1.86.71Z"/><path class="cls-1" d="M24,119c.27-57.25,41.77-106.76,97.29-117C185.93-9.81,246.67,30.53,261,94.79c4.95,22.14,1.86,43.42-6.06,64.37-10.32,27.28-24,52.84-39,77.81-19,31.75-39.65,62.35-61.64,92.08-5.95,8-14.91,8.53-20.6.81-30.73-41.67-59.47-84.64-83.34-130.68C40.67,180.34,31.9,161,26.83,140.27,25.05,133,23.69,125.67,24,119ZM142.14,23.88l-9.14.71c-.62.05-1.25.06-1.86.16C96,30.52,70.51,49.4,55.93,82c-9,20.23-10.63,41.15-3.06,62.47a303.83,303.83,0,0,0,13.88,33.29c21.46,43.23,47.74,83.51,75.46,122.91,2.06,2.93,2.53.68,3.44-.59,14.66-20.57,28.71-41.56,41.93-63.08,16.32-26.57,32-53.53,43.48-82.63,6.33-16,10.05-32.23,7.24-49.84C231,58.75,190.61,23.93,142.14,23.88Z"/><path class="cls-1" d="M143.61,167.55a47.89,47.89,0,1,1,48-47.74A47.78,47.78,0,0,1,143.61,167.55Zm24.07-47.89a23.93,23.93,0,1,0-24.11,23.92A24.23,24.23,0,0,0,167.68,119.66Z"/></g></g></svg>