<svg xmlns="http://www.w3.org/2000/svg" viewBox="0 0 2085.06 2085.06"><defs><style>.cls-1{fill:#ffcb05;}.cls-2{fill:#231f20;}</style></defs><g id="Layer_2" data-name="Layer 2"><g id="Layer_1-2" data-name="Layer 1"><rect class="cls-1" width="2085.06" height="2085.06"/><path class="cls-2" d="M1364,796a32.36,32.36,0,0,0-45.75,0L1262.14,852a258.31,258.31,0,0,0-60.58-37.83,223.28,223.28,0,0,0-92.32-19.67q-52.47,2-97.37,21.69T934.19,868.7a240,240,0,0,0-51.46,76.68q-18.68,43.89-18.66,94.34,0,52.46,19.16,96.85A239,239,0,0,0,919,1195.16l-48.18,48.18a32.34,32.34,0,0,0,45.74,45.74L967,1238.65a247.5,247.5,0,0,0,45.87,25q43.89,18.16,94.34,18.16,51.46,0,95.85-19.17a241.48,241.48,0,0,0,77.19-52.47,253.85,253.85,0,0,0,52-77.18,230.74,230.74,0,0,0,19.17-93.32q0-50.44-19.68-94.85A261.26,261.26,0,0,0,1306,899.7l58-58A32.34,32.34,0,0,0,1364,796ZM940.74,1109.84a175.23,175.23,0,0,1-14.12-70.12,179,179,0,0,1,14.12-70.63,181.11,181.11,0,0,1,96.36-96.86,175.4,175.4,0,0,1,70.12-14.13,179.14,179.14,0,0,1,70.63,14.13,185,185,0,0,1,40.43,23.67l-253.9,253.9A184.7,184.7,0,0,1,940.74,1109.84Zm334-140.75a179.13,179.13,0,0,1,14.12,70.63,175.4,175.4,0,0,1-14.12,70.12,183.17,183.17,0,0,1-38.85,57.51,181.27,181.27,0,0,1-58,38.84,178.79,178.79,0,0,1-70.63,14.13,175.06,175.06,0,0,1-70.12-14.13,187.68,187.68,0,0,1-24.61-13l249.12-249.11A188.92,188.92,0,0,1,1274.71,969.09Z"/><path class="cls-2" d="M625.35,991q0-65.26-11.7-88.15t-40.2-22.89q-34,0-54,29.6t-20,81.44v192.46h8.32q28.21,0,37.72,6.7t9.48,25.22q0,16.67-7.87,25t-24,8.33H464.35q-19.89,0-27.07-9.26t-7.16-39.79V954.88q0-34.71-15.63-54.84t-42.7-20.11a63.88,63.88,0,0,0-37.9,12.26q-17.24,12.25-29.61,36.31v254.93h17.11q27.75,0,37.48,6.94t9.7,25q0,19-7.85,26.14t-30.07,7.17H206.85q-18.15,0-26.75-8.09t-8.61-25.22q0-18.49,10.87-25.22t42.34-6.7h9.24V886.86h-8.32q-32.4,0-44.19-7.41t-11.8-25.9q0-16.2,9.31-24.28t27.91-8.11H278q15.48,0,20.4,5.33t5.87,22.43q18.84-20.34,40.49-30.07t48.77-9.71q32.22,0,53.15,14.11T477.76,866q19.44-29.13,44.88-43t58.29-13.87q59.69,0,87.23,38.85t27.52,125.85v209.59h7.4q28.68,0,38.4,6.94t9.72,25q0,16.67-8.33,25t-24.52,8.33H661.93q-18.76,0-27.67-11.11t-8.91-35.16Z"/><path class="cls-2" d="M1513.39,1215.35V1133q0-20.35,7.63-29.14t24.75-8.8q19,0,30.07,25.92,7.4,15.72,13.41,23.59,19.44,25,57.38,40t83.75,15q49,0,78.64-19.89t29.62-52.27q0-32.85-23.83-46.73t-81.67-13.89H1707.7q-94.38,0-143.89-32.84t-49.5-95.31q0-61.06,48.35-94.84t135.78-33.77a279.17,279.17,0,0,1,72.64,9.94q37,9.94,38.88,10,5.05,0,19.42-9t28.22-9q15.72,0,23.37,11.56t7.63,34.7v54.13q0,24.51-7.41,35.39t-23.59,10.87q-13.87,0-34.23-23.59-14.34-16.18-23.6-24.52-24.52-22.68-52.28-32.62t-65.24-10q-43.49,0-70.08,19.2t-26.61,48.81q0,29.15,27.3,41.65t117.52,14.33q96.21,2.32,140.64,33.55t44.41,96.47q0,62.46-49,99.93t-132.32,37.47a400.45,400.45,0,0,1-58.77-4.85q-32.38-4.86-81.43-16.42a222,222,0,0,1-27.76,16q-11.55,5.31-19.42,5.31-16.2,0-24.76-11.33T1513.39,1215.35Z"/></g></g></svg>