<svg xmlns="http://www.w3.org/2000/svg" viewBox="0 0 569.61 444.75"><defs><style>.cls-1{fill:#2084c0;}.cls-2{fill:#282627;}.cls-3{fill:#c6c6c6;}.cls-4{fill:#343233;}.cls-5{fill:#f8ae1b;}.cls-6{fill:#be2226;}</style></defs><g id="Layer_2" data-name="Layer 2"><g id="Layer_1-2" data-name="Layer 1"><path class="cls-1" d="M502.05,368.89c-10.9,3.23-21.13,7.76-29.71,15.43l-6.82-1.12c0-47.26.09-94.53-.06-141.8,0-7,.31-13.71,3.7-20l31.92-54.59c.68,1.23,1.94,2.46,1.94,3.69C502.63,236.65,504.62,302.78,502.05,368.89Z"/><path class="cls-2" d="M469.16,221.43c-3.39,6.26-3.72,13-3.7,20,.15,47.27.07,94.54.06,141.8-.19,1.78-.38,3.55-.56,5.33-55.62,2-111.24,1.1-166.86.43-.71-2.17-1.41-4.34-2.12-6.5a10.3,10.3,0,0,0,2.82.91c51.13.19,102.26.16,153.39.62,9.22.08,8.93-5.15,8.92-11.44q-.11-52.79,0-105.59V240.11c-13.58,17-14,33.59-16.21,49.34-1.67,11.89-3.36,23.46-17.47,25.84s-25-5.14-29.7-17.46a618.29,618.29,0,0,1-34.52-130c-1.88-12.62,5.35-19.6,17.18-21.74,12.87-2.33,22.67,4.25,25.35,16.85,1.43,6.76,1.83,13.73,2.87,20.59,1.89,12.49,2.85,25.26,9.68,36.66,5.67-2.79,6.81-7.85,8.73-12.27,8.47-19.52,17.76-38.64,29.53-56.41,3.84-5.79,4.32-11.86,4.3-18.38-.09-37.68-.4-75.36.19-113,.16-10.5-1.79-14.59-13.58-14.41C400.27,6.4,353.1,6,305.93,6c-4.87,0-10-1.06-14.29,2.53-.95-.94-1.91-1.87-2.87-2.8C291-.11,295.93.12,301,.12q78.4.12,156.81,0c5.65,0,10.79.3,14.19,5.57-5.57.78-6.57,4.29-6.55,9.36.17,38,.1,76,.06,114,0,3.23.07,6.09,4.63,4.34l2.9,2.66c-16.28,24.29-31.12,49.35-42.05,76.59-2.33,5.82-4.64,13.76-12.26,13.16-8.47-.67-8.62-9.45-10.65-15.91-4.62-14.73-4.59-30.22-7.55-45.21-2.15-10.91-9.65-14.37-19.88-12.74-9.88,1.56-12.7,8.3-11.75,17.36.46,4.43.59,8.94,1.57,13.26,7.65,33.72,16.16,67.22,26.94,100.1,2.15,6.54,4.38,13.11,9,18.56,5.54,6.54,12.26,10,20.93,8.31,9.29-1.84,10.89-9.37,11.31-16.95,1.55-27.51,11.46-51.86,27.28-74.08Z"/><path class="cls-2" d="M177.3,384.29c-3.48,5.37-8.82,5.31-14.4,5.3-50.64-.09-101.27-.23-151.9.12-8.24.06-11-1.9-11-10.59Q.42,194.73,0,10.34C0,1.5,3,0,11,0c49.64.33,99.28.19,148.92.15,7.24,0,14.14.77,19.77,5.95l-.72,6.46c-7.17-.22-11-7.22-19.51-7-47.59,1-95.22.67-142.83.28C8,5.72,5.82,8.39,5.84,16.69Q6.2,195,5.83,373.25c0,8.4,2.4,10.84,10.81,10.77,46.12-.37,92.25-.48,138.37.07,10.1.12,12.25-3.2,12.15-12.6-.46-43.08-.2-86.17-.2-129.26V201.5c5,5.48,10.33,6.64,9.52,12.8-6.68.5-5.45,5.45-5.45,9.69q0,74.56,0,149.14C171,378.21,170.63,383.14,177.3,384.29Z"/><path class="cls-1" d="M177.3,384.29c-6.67-1.15-6.32-6.08-6.31-11.16q.12-74.58,0-149.14c0-4.24-1.23-9.19,5.45-9.69l-.31,0c-.31,2.32.47,3.58,3,3.05l-.07-.07c.64,5.26,2.93,9,8.8,9.29l-.15-.16c-.95,3,.09,4.09,3.14,3.13l-.16-.16c-.87,2.94-.15,4.31,3.12,3.14l-.14-.15c-1,3-.4,4.52,3.09,3.14l-.13-.13c-1.24,3.31-.27,4.41,3.11,3.1l-.13-.12c-1.28,3.34-.25,4.39,3.11,3.1l-.13-.12q-.16,58.24-.29,116.48c0,3.35-.82,7,2.49,9.55Z"/><path class="cls-1" d="M470.15,133.38c-4.56,1.75-4.63-1.11-4.63-4.34,0-38,.11-76-.06-114,0-5.07,1-8.58,6.55-9.36,10.42,8.19,23.26,13,32.18,23.3-1.85,18.16-1.09,36.33-.41,54.51C495.4,102,479.33,115.39,470.15,133.38Z"/><path class="cls-1" d="M178.92,12.56l.72-6.46c24.6,10.65,53.47,12.7,72,35.62-.26,2.22-.52,4.43-.77,6.65l0-.42c-3,.86-5.88,1.76-3.4,5.8l.08-.09c-8-.42-9.48,6.27-12.36,11.41-7.88,6.05-10.32-2.79-12.82-6C213,47.18,202.1,37,191.17,26.77c-.4-2.34.32-5.36-3.46-5.62l.16.17c0-2.05-.9-3.22-3.1-3.09l.11.11c.11-2.17-.91-3.2-3.09-3.08l.11.1q.19-3.25-3.08-3.09Z"/><path class="cls-3" d="M27.77,421.58c5.46-6.47.1-20.12,14.66-18.63,3,.3,6.91,0,7.06,3.63.46,11.32.37,22.67,0,34-.08,2.94-3.28,2.95-5.78,3.14-4.09.3-5-2-4.91-5.43.08-4.73,0-9.47,0-14.68-7.3,5.35-1.4,18.77-10.78,19.47-12.1.9-3.48-15-12-18.42-.09.2-.42.85-.68,1.52-2.15,5.67,4.69,16.71-4.49,16.72-11.52,0-3.15-11.55-5.26-17.61-1.23-3.52-.49-7.84-.16-11.76.37-4.32-2.43-10.27,6-10.72,6.34-.34,10.06,1.15,11.87,7.69C24.32,414,22.91,418.51,27.77,421.58Z"/><path class="cls-3" d="M274.82,443.72c-28.21-.09-28.37-.09-27.52-29,.12-4-3.71-11.14,4.56-11.58,9.1-.49,6.05,7.07,6.42,11.88s.19,9.9.1,14.86c-.11,6.12,4.17,5.49,8.16,5.54s8.23.29,7.83-5.82c-.19-3,0-5.94,0-8.91,0-18.26,3.53-21.12,21.32-17.78,2.49.46,5.07.48,5.48,3.62.61,4.55-2.77,4-5.69,4.5-3.29.53-9.11-2.53-8.71,4.27.38,6.54,6.06,2.89,9.35,3.64,2.51.58,5.09.61,4.79,4s-3.16,2.9-5.52,3.38c-3.28.66-8.64-2.41-8.79,4.4s5.23,4.22,8.55,4.54c3.08.31,6.24.1,6.44,4.19.28,5.95-4.44,4-7.41,4.1C287.72,443.89,281.26,443.72,274.82,443.72Z"/><path class="cls-3" d="M338.14,405.62c-2.44,9.28-4.47,18.7-7.48,27.8-1.47,4.44-1,10.58-9.45,10.65-8.15.06-8.22-4.8-9.5-10q-2.82-11.46-6-22.82c-.89-3.17-3.8-6.93,1.77-8.07,4-.82,7.9-.15,8.78,5.35,1,6.28,2.48,12.48,4.11,20.48,1.7-4.88,3.12-8,3.89-11.33,2.87-12.18,12.33-18,23.92-14.7,2.2.63,3.64,1.66,3.67,3.79.14,10.88.13,21.77.17,32.65,0,4.34-3,4.22-6.07,4.27-4.73.08-5.64-2.62-5.58-6.63.12-10.35,0-20.7,0-31Z"/><path class="cls-1" d="M283.85,255.79c-10.22,9.32-22.69,12.21-36.05,12.56-2.85-2.12-7.73,1.22-9.59-3.56l6.81-8.66c2.38-.16,5.23.48,5.47-3.26l-.18.17c2.06,0,3.11-1.07,3.11-3.13l-.14.15a2.92,2.92,0,0,0,3.12-3.13l-.14.15a2.9,2.9,0,0,0,3.11-3.13l-.16.2c2.88-1.64,6.89-2.74,3.6-7.38l1-.24.2-1c4.49,3.09,4.46-.2,4.6-3.24l-.13.14q4.76,1.64,3.12-3.11l-.14.13c3.17,1.09,4.22.07,3.11-3.11l-.13.13c3.28,1.18,4-.17,3.1-3.12l-.14.14c3.06,1,4.11-.05,3.1-3.12l-.13.13q4.62,1.5,3.11-3.1l-.13.12c4.16,1.67,5.19-2.56,7.67-4.06l-.64-.08c3.93,11,1,22.33,1.7,33.49-1,1-1.95,2.08-2.93,3.11h0a3.25,3.25,0,0,0-2.78,3.51l.3-.36Z"/><path class="cls-3" d="M451,428.9c-8.79,3.46,3.11,14.59-7.12,14.28-11.4-.35-3.82-10.59-5.43-16.16-1-3.66-.74-8,0-11.8.76-4.15-3.77-10.53,4.3-12,7-1.28,9.77,2.7,11.12,8.82.5,2.26,2,4.3,4.6,9.44.33-4.75.28-6.7.64-8.57.7-3.7-2.73-9.92,5-9.64,7.22.25,4.84,6.17,5,10.12.3,6.92.35,13.88,0,20.79-.19,3.38,2.43,8.52-3.89,9.37-4.75.64-8.69.05-9.8-6.07C454.79,434.41,452.47,431.67,451,428.9Z"/><path class="cls-3" d="M435.23,422.76c.66,11.82,0,21.28-15.45,21.59-17,.34-15.62-10.85-16.14-21.89-.55-11.86,1.92-21,16.36-20.59S436.53,411.71,435.23,422.76Zm-11.61.8c-1.62-4.9,2.9-13.58-4.39-13.61-6.9,0-4.2,8.57-4.11,13.43s-3,13.34,4.3,13.23C426.91,436.49,421.52,427.82,423.62,423.56Z"/><path class="cls-2" d="M470.15,133.38c9.18-18,25.25-31.36,33.63-49.9,1.07-1.15,2.13-2.31,3.2-3.47,6.2-6.08,9.21-14.7,17-19.72,11.59-7.48,23.23-11.35,35.56-2.76,10.05,7,12.84,22.37,7.23,36.27-1.24,3.07-3.46,5.75-5.23,8.6l-3.25-2.67c2.63-4.75,4.94-9.55,5.38-15.15.77-9.89-.63-18.71-10.14-24.26-9.2-5.37-17.28-1.38-24.72,3.61a39.8,39.8,0,0,0-11.42,11.34C504,96.55,488.15,116,473.05,136.05Z"/><path class="cls-3" d="M103.93,417.4c2.43,1.62,4.78,3.37,7.3,4.84,5.73,3.35,6.47,8.74,4.89,14.16-2,6.92-8,7.75-14.37,7.79S89.9,442.86,87,436.52c-.78-1.71-1.66-3.93.82-5,2.8-1.24,5.86-1.48,8.4.55,2.85,2.29,5,10.22,9.09,2.15,2.27-4.46-3.92-7.59-6.91-7.21-9.94,1.26-9.49-7.37-11.73-12.14-1.8-3.86,2.23-8.1,6.19-10.48,6.06-3.64,12.29-3.61,18.27.11,2.94,1.83,6.37,4.45,4.75,8.19-1.77,4.1-6.05,1.51-9.28,1.59-1.63-2.65-3.26-7.44-6.86-3.29C96.66,414.54,100.16,416.72,103.93,417.4Z"/><path class="cls-3" d="M84.35,423.46c-1,7.23,4.54,19.33-11.58,20.62C58.59,445.22,54,441.38,53.83,427c-.07-5.93.09-11.86,0-17.79-.08-4.29,1.6-6.18,6.1-6.15s6,2.23,5.9,6.39q-.18,11.12,0,22.24c0,2.26-.38,5.32,3.22,5.39,2.91.06,4.53-2,4.64-4.67.28-6.41-.06-12.86.45-19.24.29-3.75-2.78-9.8,4.89-9.93s4.81,5.82,5.24,9.66C84.62,415.83,84.35,418.83,84.35,423.46Z"/><path class="cls-3" d="M371.92,417.56c7.45,4.72,17.13,9.06,11.45,20.15-4.78,9.35-14.39,7.35-22.47,5-4.16-1.19-8.31-5.65-5.43-10.29,2.34-3.77,7.12-2.54,9.94,1.08,1.85,2.38,3.65,5.93,6.45,2.44,2.13-2.65,1.68-6.35-3.21-7.61-2.21-.57-4-2.75-6-4.06-4.91-3.12-8.33-7-6.76-13.3,1.37-5.52,5.53-8.06,10.61-8.91,6.13-1,11.86.26,15.91,5.43,1.09,1.39,2.26,4.05,1.65,5.18-2.17,3.93-6.12,1.39-9.32,1.7-1.78-2.35-3-7.73-6.87-3.5C364.65,414.4,368.23,416.68,371.92,417.56Z"/><path class="cls-3" d="M217.5,411.31c-11.82-3.7-13.28,2.39-13.84,12.46-.36,6.5,6.63,18.94-4.91,19.08-12,.14-3-12.37-5.41-18.77-1.49-3.9,2.06-9.32-2.1-12.38-2.65-1.94-9-.15-6.28-6.62,1.78-4.2,6.28-2.37,9.23-1.95,15.6,2.23,31.43-2.7,46.91,1.73C233.41,407.67,222.55,398.9,217.5,411.31Z"/><path class="cls-3" d="M136.2,424.88c-.06-20.54,9.42-28.42,24.07-21.06,3.95,2,6.18,4.64,6.78,8.83.32,2.24-.49,4.13-2.9,4.05-3.51-.11-6.83,1.36-9.58-3.91-3.65-7-7-2.56-7.59,2.62-.63,5.34-.2,10.82-.12,16.23,0,2.6,1,5,3.8,5.55,3.05.54,4.51-1.57,4.61-4.3.2-5.43,4.18-4.39,7.44-4.56,2.87-.16,4.46,1.06,4.53,4.2a9.71,9.71,0,0,1-4.47,8.81c-6.76,4.43-14.6,4.19-21.24,1.26C133.64,439.12,137,430.61,136.2,424.88Z"/><path class="cls-2" d="M238.21,264.79c1.86,4.78,6.74,1.44,9.59,3.56-10.24,7.26-19.06,6.62-26.7-4.14-3.59-5-8.11-9.46-12.2-14.16l-4,1.42q0,57.93,0,115.86c-3.31-2.53-2.5-6.2-2.49-9.55q.09-58.23.29-116.48c9.6,3.51,15.11,11.85,21.82,18.69C228.45,264,232.11,267.5,238.21,264.79Z"/><path class="cls-3" d="M217.5,411.31c5.05-12.41,15.91-3.64,23.6-6.45,3.23,6.79-1.87,5.68-5.66,6.11-3,.34-7.79-1.68-7.81,3.78,0,4.95,4.35,4.2,7.7,4.46,2.66.2,6.52-1,6.3,3.63-.17,3.51-3.37,2.49-5.58,3-3.6.75-9.84-2.73-9.15,5.28.51,6,4.8,6.47,9.59,6.45,2.71,0,6-.93,7.74,4.24-8.82,3.34-17.6,2.22-26.41.69a7,7,0,0,0-.41-2.76c0-2.39,0-4.78,0-7.18q0-5.37,0-10.74Z"/><path class="cls-4" d="M502.05,368.89c2.57-66.11.58-132.24,1-198.36,0-1.23-1.26-2.46-1.94-3.69.81-2.42,2.81-2.89,5-3q.3,97.65.66,195.3C506.78,363.28,506.68,367.11,502.05,368.89Z"/><path class="cls-2" d="M506.1,163.84c-2.21.11-4.21.58-5,3l-31.92,54.59-3.23-2.94c15.22-28.79,30-57.87,50.65-83.35l3,2.81C516.25,147.2,506.1,152.89,506.1,163.84Z"/><path class="cls-3" d="M399.6,423.13c0,4.89-.15,9.78,0,14.67.17,4.3-1.43,6-5.94,5.95s-6.08-1.58-6-6c.21-8.8.18-17.61,0-26.4-.09-4.9.23-8.59,6.82-8.32s4.75,4.89,5,8.37C399.81,415.29,399.6,419.22,399.6,423.13Z"/><path class="cls-3" d="M132.29,423.55c-4.24,6.21,5.56,18.9-5.69,19.31-13.37.48-6-12.86-6.07-19.44s-7.08-20.07,6.17-19.54C137.42,404.31,128.41,417,132.29,423.55Z"/><path class="cls-4" d="M296,382.46c.71,2.16,1.41,4.33,2.12,6.5-10.56,1.34-6.21-6.89-6.25-10.89-.38-41.52-.32-83.05-.37-124.58l4.26-.09Z"/><path class="cls-2" d="M295.74,253.4l-4.26.09a7.08,7.08,0,0,1-2.28.29c0-1.25-.05-2.51-.07-3.77h0c1-1,1.95-2.07,2.93-3.11-.71-11.16,2.23-22.5-1.7-33.49-2.52-5.73,1.19-7.21,5.39-9.39Z"/><path class="cls-4" d="M250.82,48.37l.78-6.65c9.87-4.44,13.77-15.36,22.69-20.83q1.4,1.62,2.78,3.25C267.37,31.18,264.3,45.4,250.82,48.37Z"/><path class="cls-2" d="M561.52,102.4c-5.13,9.29-15.15,11.91-23.23,17.24-4.42,2.92-8,7.06-12,10.64l-2.92-3.53c7.85-13.89,25.57-15.06,34.92-27Z"/><path class="cls-4" d="M507,80c-1.07,1.16-2.13,2.32-3.2,3.47-.68-18.18-1.44-36.35.41-54.51C509.84,45.72,505,63.05,507,80Z"/><path class="cls-2" d="M277.07,24.14q-1.38-1.63-2.78-3.25L288.77,5.74c1,.93,1.92,1.86,2.87,2.8Z"/><path class="cls-2" d="M526.27,130.28q-3.36,3.84-6.73,7.67l-2.95-2.81,6.76-8.39Z"/><path class="cls-4" d="M465,388.53c.18-1.78.37-3.55.56-5.33l6.82,1.12C470.78,387.31,467.7,387.62,465,388.53Z"/><path class="cls-3" d="M217.46,421.77q0,5.37,0,10.74A16.34,16.34,0,0,1,217.46,421.77Z"/><path class="cls-4" d="M283.85,255.79l2.8-2.63C287.6,256,285.28,255.44,283.85,255.79Z"/><path class="cls-4" d="M289.13,250c0,1.26,0,2.52.07,3.77l-2.85-.26A3.25,3.25,0,0,1,289.13,250Z"/><path class="cls-3" d="M217.41,439.69a7,7,0,0,1,.41,2.76,9.4,9.4,0,0,1-1.08-1.78C216.66,440.46,217.17,440,217.41,439.69Z"/><path class="cls-5" d="M277.07,24.14l14.57-15.6C295.91,5,301.06,6,305.93,6c47.17-.06,94.34.39,141.5-.34,11.79-.18,13.74,3.91,13.58,14.41-.59,37.67-.28,75.35-.19,113,0,6.52-.46,12.59-4.3,18.38-11.77,17.77-21.06,36.89-29.53,56.41-1.92,4.42-3.06,9.48-8.73,12.27-6.83-11.4-7.79-24.17-9.68-36.66-1-6.86-1.44-13.83-2.87-20.59-2.68-12.6-12.48-19.18-25.35-16.85-11.83,2.14-19.06,9.12-17.18,21.74a618.29,618.29,0,0,0,34.52,130c4.72,12.32,15.53,19.84,29.7,17.46s15.8-14,17.47-25.84c2.22-15.75,2.63-32.31,16.21-49.34V267q0,52.8,0,105.59c0,6.29.3,11.52-8.92,11.44-51.13-.46-102.26-.43-153.39-.62a10.3,10.3,0,0,1-2.82-.91l-.24-129.06V204c-4.2,2.18-7.91,3.66-5.39,9.39l.64.08c-5.6-4.38-6.38.33-7.67,4.06l.13-.12c-2.35-.28-3.38.75-3.11,3.1l.13-.13c-2.39-.31-3.21.94-3.1,3.12l.14-.14c-2.22-.14-3.27.89-3.1,3.12l.13-.13c-2.25-.17-3.2,1-3.11,3.11l.14-.13c-2.18-.1-3.22.93-3.12,3.11l.13-.14-4.6,3.24-.2,1-1,.24c-1.49,2.32-6.52,2.92-3.6,7.38l.16-.2c-3.39-1.3-4.23-.06-3.11,3.13l.14-.15c-3.21-1.13-4.27-.1-3.12,3.13l.14-.15c-3.28-1.18-4.15,0-3.11,3.13l.18-.17c-3.84-2.3-4.7.4-5.47,3.26l-6.81,8.66c-6.1,2.71-9.76-.76-13.72-4.8-6.71-6.84-12.22-15.18-21.82-18.69l.13.12c0-2.09-1-3.13-3.11-3.1l.13.12c0-2.09-1-3.12-3.11-3.1l.13.13c0-2.09-1-3.12-3.09-3.14l.14.15c0-2.07-1-3.11-3.12-3.14l.16.16c0-2.07-1.06-3.11-3.14-3.13l.15.16c-.46-5.44-2.53-9.34-8.8-9.29l.07.07c1.09-3.1.22-4.26-3-3.05l.31,0c.81-6.16-4.53-7.32-9.52-12.8v40.73c0,43.09-.26,86.18.2,129.26.1,9.4-2,12.72-12.15,12.6-46.12-.55-92.25-.44-138.37-.07-8.41.07-10.82-2.37-10.81-10.77Q6.21,195,5.84,16.69c0-8.3,2.16-11,10.74-10.9,47.61.39,95.24.68,142.83-.28,8.47-.17,12.34,6.83,19.51,7.05l-.1-.28c-1.22,3.26-.29,4.39,3.08,3.08l-.11-.1q-1.92,5,3.09,3.08l-.11-.11c-1.27,3.33-.27,4.4,3.1,3.09l-.16-.17c-2.41,4.06.08,5.12,3.46,5.62C202.1,37,213,47.18,222.3,59.08c2.5,3.2,4.94,12,12.82,6,6.7-1,10.81-4.83,12.36-11.41l-.08.09c3.48-.57,5.95-1.72,3.4-5.8l0,.42C264.3,45.4,267.37,31.18,277.07,24.14ZM256.66,190.81h0c13.22-5.57,22.4-17.44,36.24-22.39,8.77-3.13,12.71-1.72,14.13,7.49,4.13,26.93,8.12,53.84,4,81.16-3.49,23-6,46-1,69.21,2.85,13.27,3.75,15.89,11.93,19.34l-.21-.18c-3,5.1,1.32,5.4,4.27,6.35,20.85,6.66,39.22-7.54,34.18-29.74-6.4-28.17-2.48-56-3.39-84-1-29.63-2.84-59.24-5-88.81-.71-9.88,2.53-15.62,11.69-19.3,12.8-5.15,25.49-10.68,37.76-17,7.68-3.94,13.83-10.34,12.84-20-.85-8.14-6.47-13.16-14.08-15.56-8.67-2.72-16.59-1.74-22.81,5.81-6.41,7.78-14.84,13-23.62,17.61-7.2,3.78-13.35,7.38-22.81,1.82-10.92-6.42-28.32.83-29.83,13.17-2.25,18.4-15.18,23.28-28,30.28-5.53,3-10.1,7.79-15.11,11.77l-4.36,4.29c-9.41,8.22-20.56,13.1-32.1,17.57-9.19,3.57-14,11.1-12.33,21.1,1.54,9.22,6.65,16.6,16.08,19.31,9.74,2.81,15.86-2.75,20.47-10.53C249.34,203.42,253,197.1,256.66,190.81Z"/><path class="cls-6" d="M523.35,126.75l-6.76,8.39c-20.69,25.48-35.44,54.56-50.66,83.35-15.82,22.22-25.73,46.57-27.28,74.08-.42,7.58-2,15.11-11.31,16.95-8.67,1.73-15.39-1.77-20.93-8.31-4.61-5.45-6.84-12-9-18.56-10.78-32.88-19.29-66.38-26.94-100.1-1-4.32-1.11-8.83-1.57-13.26-1-9.06,1.87-15.8,11.75-17.36,10.23-1.63,17.73,1.83,19.88,12.74,3,15,2.93,30.48,7.55,45.21,2,6.46,2.18,15.24,10.65,15.91,7.62.6,9.93-7.34,12.26-13.16,10.93-27.24,25.77-52.3,42.05-76.59,15.1-20,30.92-39.49,44.32-60.77a39.8,39.8,0,0,1,11.42-11.34c7.44-5,15.52-9,24.72-3.61,9.51,5.55,10.91,14.37,10.14,24.26-.44,5.6-2.75,10.4-5.38,15.15C548.92,111.69,531.2,112.86,523.35,126.75Z"/><path class="cls-2" d="M179.14,217.24c6.27-.05,8.34,3.85,8.8,9.29C182.07,226.2,179.78,222.5,179.14,217.24Z"/><path class="cls-2" d="M199.69,238.32c2.09,0,3.13,1,3.11,3.1C199.44,242.71,198.41,241.66,199.69,238.32Z"/><path class="cls-2" d="M196.71,235.34c2.1,0,3.13,1,3.11,3.1C196.44,239.75,195.47,238.65,196.71,235.34Z"/><path class="cls-2" d="M193.75,232.33c2.07,0,3.12,1,3.09,3.14C193.35,236.85,192.77,235.35,193.75,232.33Z"/><path class="cls-2" d="M190.77,229.34c2.07,0,3.12,1.07,3.12,3.14C190.62,233.65,189.9,232.28,190.77,229.34Z"/><path class="cls-2" d="M187.79,226.37c2.08,0,3.12,1.06,3.14,3.13C187.88,230.46,186.84,229.41,187.79,226.37Z"/><path class="cls-2" d="M176.17,214.26c3.26-1.21,4.13,0,3,3.05C176.64,217.84,175.86,216.58,176.17,214.26Z"/><path class="cls-4" d="M247.48,53.66c-1.55,6.58-5.66,10.4-12.36,11.41C238,59.93,239.45,53.24,247.48,53.66Z"/><path class="cls-4" d="M250.8,48c2.55,4.08.08,5.23-3.4,5.8C244.92,49.71,247.83,48.81,250.8,48Z"/><path class="cls-2" d="M191.17,26.77c-3.38-.5-5.87-1.56-3.46-5.62C191.49,21.41,190.77,24.43,191.17,26.77Z"/><path class="cls-2" d="M187.87,21.32c-3.37,1.31-4.37.24-3.1-3.09C187,18.1,187.86,19.27,187.87,21.32Z"/><path class="cls-2" d="M184.88,18.34q-5,1.92-3.09-3.08C184,15.14,185,16.17,184.88,18.34Z"/><path class="cls-2" d="M181.9,15.36c-3.37,1.31-4.3.18-3.08-3.08Q182.09,12.1,181.9,15.36Z"/><path class="cls-2" d="M283.32,217.56c1.29-3.73,2.07-8.44,7.67-4.06C288.51,215,287.48,219.23,283.32,217.56Z"/><path class="cls-2" d="M259.21,244.15c-2.92-4.46,2.11-5.06,3.6-7.38C266.1,241.41,262.09,242.51,259.21,244.15Z"/><path class="cls-2" d="M245,256.13c.77-2.86,1.63-5.56,5.47-3.26C250.25,256.61,247.4,256,245,256.13Z"/><path class="cls-2" d="M250.31,253c-1-3.1-.17-4.31,3.11-3.13C253.42,252,252.37,253,250.31,253Z"/><path class="cls-4" d="M292.05,246.91c-1,1-1.95,2.08-2.93,3.11C290.1,249,291.07,248,292.05,246.91Z"/><path class="cls-2" d="M253.28,250.06c-1.15-3.23-.09-4.26,3.12-3.13A2.92,2.92,0,0,1,253.28,250.06Z"/><path class="cls-2" d="M256.26,247.08c-1.12-3.19-.28-4.43,3.11-3.13A2.9,2.9,0,0,1,256.26,247.08Z"/><path class="cls-2" d="M264,235.57l4.6-3.24C268.44,235.37,268.47,238.66,264,235.57Z"/><path class="cls-2" d="M268.45,232.47c-.1-2.18.94-3.21,3.12-3.11Q273.21,234.12,268.45,232.47Z"/><path class="cls-2" d="M271.43,229.49c-.09-2.16.86-3.28,3.11-3.11C275.65,229.56,274.6,230.58,271.43,229.49Z"/><path class="cls-2" d="M274.41,226.51c-.17-2.23.88-3.26,3.1-3.12C278.41,226.34,277.69,227.69,274.41,226.51Z"/><path class="cls-2" d="M277.37,223.53c-.11-2.18.71-3.43,3.1-3.12C281.48,223.48,280.43,224.5,277.37,223.53Z"/><path class="cls-2" d="M280.34,220.54c-.27-2.35.76-3.38,3.11-3.1Q285,222,280.34,220.54Z"/><path class="cls-6" d="M253.51,162.25l4.36-4.29c11.42,2.61,16.73-8.52,25.8-11.5,11.95-3.93,19.6-11.32,21-25.46,1.13-11.49,15.55-18.76,25.09-12.41,8.67,5.77,14.38,2.85,21.54-.64,11.19-5.46,22-11.49,30.37-20.9,8.57-9.59,17.29-7,23.95,1.22,7.55,9.3.47,15.85-7.35,20-10,5.31-20.67,9.36-31,14-22.44,10.11-22.78,12-20.39,36,3.57,35.9,6.66,72,4.09,108.05-1.18,16.52-.5,32.21,3,48.33,5.92,27.23-5.09,37.27-32.2,30.75l.21.18c-9.45-24-10.94-48.49-7-73.89,5.2-33.86,4.15-67.71-4.13-101.12-1.13-4.58-1.25-10.29-7.82-11-11.09-1.23-41.67,19.46-46.33,31.21h0c-11,0-10.64,11-15.81,16.56-4.11,4.46-7.57,9.48-14.71,7.12-6.13-2-9.82-6.48-11.12-12.69-1.46-7,.5-12.92,7.12-16.22,7-3.5,14.7-5.82,21.48-9.72C248.55,173,256.26,171.1,253.51,162.25Z"/><path class="cls-2" d="M321.75,345.44c27.11,6.52,38.12-3.52,32.2-30.75-3.51-16.12-4.19-31.81-3-48.33,2.57-36.05-.52-72.15-4.09-108-2.39-24-2.05-25.9,20.39-36,10.35-4.66,21-8.71,31-14,7.82-4.16,14.9-10.71,7.35-20-6.66-8.2-15.38-10.81-23.95-1.22-8.41,9.41-19.18,15.44-30.37,20.9-7.16,3.49-12.87,6.41-21.54.64-9.54-6.35-24,.92-25.09,12.41-1.39,14.14-9,21.53-21,25.46-9.07,3-14.38,14.11-25.8,11.5,5-4,9.58-8.74,15.11-11.77,12.8-7,25.73-11.88,28-30.28,1.51-12.34,18.91-19.59,29.83-13.17,9.46,5.56,15.61,2,22.81-1.82,8.78-4.6,17.21-9.83,23.62-17.61,6.22-7.55,14.14-8.53,22.81-5.81,7.61,2.4,13.23,7.42,14.08,15.56,1,9.62-5.16,16-12.84,20-12.27,6.29-25,11.82-37.76,17-9.16,3.68-12.4,9.42-11.69,19.3,2.15,29.57,4,59.18,5,88.81.91,28-3,55.78,3.39,84,5,22.2-13.33,36.4-34.18,29.74C323.07,350.84,318.71,350.54,321.75,345.44Z"/><path class="cls-2" d="M256.65,190.81c4.66-11.75,35.24-32.44,46.33-31.21,6.57.72,6.69,6.43,7.82,11,8.28,33.41,9.33,67.26,4.13,101.12-3.91,25.4-2.42,49.93,7,73.89-8.18-3.45-9.08-6.07-11.93-19.34-5-23.23-2.52-46.18,1-69.21,4.14-27.32.15-54.23-4-81.16-1.42-9.21-5.36-10.62-14.13-7.49C279.05,173.37,269.87,185.24,256.65,190.81Z"/><path class="cls-2" d="M253.51,162.25c2.75,8.85-5,10.77-9.89,13.61-6.78,3.9-14.44,6.22-21.48,9.72-6.62,3.3-8.58,9.23-7.12,16.22,1.3,6.21,5,10.67,11.12,12.69,7.14,2.36,10.6-2.66,14.71-7.12,5.17-5.6,4.78-16.58,15.81-16.56-3.68,6.29-7.32,12.61-11,18.89C241,217.48,234.9,223,225.16,220.23c-9.43-2.71-14.54-10.09-16.08-19.31-1.68-10,3.14-17.53,12.33-21.1C233,175.35,244.1,170.47,253.51,162.25Z"/></g></g></svg>