<svg xmlns="http://www.w3.org/2000/svg" viewBox="0 0 1186.93 389.83"><defs><style>.cls-1{fill:#4e3695;}</style></defs><g id="Layer_2" data-name="Layer 2"><g id="Layer_1-2" data-name="Layer 1"><path class="cls-1" d="M233.79,67.85c1.93.54,3.69,1,5.42,1.53,11.5,3.61,19,10.92,20.38,23.19,1.47,13.1-1.77,24.48-13.76,31.88a45.05,45.05,0,0,1-21.76,6.48c-25.46,1.24-50.93.28-76.4.54-1.06,0-2.51.51-2.95-1-.33-1.13.67-1.92,1.43-2.43,7.7-5.15,8.09-12.73,8-21.05-.33-25.08-.37-50.18,0-75.26.12-7.23-1.34-13-7.21-17.41-1.07-.8-2.92-1.76-2.24-3.47.59-1.48,2.38-.71,3.6-.71q35.22,0,70.43,0a43.22,43.22,0,0,1,19.8,4.31c12,6.12,17.1,16.23,16.19,29.45-.83,11.84-7.5,19.09-18.54,22.72-.62.2-1.23.46-1.83.72C234.23,67.41,234.13,67.55,233.79,67.85Zm-32.07,41.36c5.37-.27,11.91.66,18.29-.83,8.18-1.9,12.14-7.21,11.73-15.42-.37-7.27-4.61-11.77-12.66-12.93-11.58-1.68-23.24-.4-34.86-.8-2.18-.08-2.39,1.11-2.38,2.8,0,8.13.07,16.26,0,24.39,0,2.18.72,2.87,2.86,2.82C190,109.13,195.31,109.21,201.72,109.21Zm-2-51.13v0h14.45c.33,0,.66,0,1,0,8.17-.82,12.26-5.11,12.21-12.82s-4.58-12.78-12.6-13c-10-.3-19.92-.09-29.89-.24-2.41,0-3.12.75-3.08,3.11.14,6.63.18,13.27,0,19.89-.09,2.8,1,3.29,3.48,3.21C190.08,58,194.9,58.08,199.72,58.08Z"/><path class="cls-1" d="M35.74,59.37V86.78c0,7.81.4,15.64-.12,23.42-.48,7.06,1.32,12.66,7.07,17,1.1.82,3,1.87,2.28,3.49s-2.68.81-4.09.82q-18.23.07-36.46,0c-1.27,0-3,.65-3.7-.7s.88-2.41,1.83-3.11c6.62-4.85,7.76-11.42,7.68-19.24-.36-33.06-.17-66.12-.11-99.18,0-1.53-1-3.76.79-4.49s2.79,1.42,4,2.47Q53.65,42.07,92.37,77c1.21,1.09,2.45,2.14,3.71,3.23,1.54-1.35.84-2.94.84-4.3.06-14.79-.27-29.58.18-44.35.21-7-1.18-12.69-7-17-1.19-.88-3.32-2-2.5-3.79.65-1.45,2.72-.64,4.13-.65q18.48-.07,37,0c1.06,0,2.51-.64,3.13.73s-.64,2.2-1.5,2.81c-7.32,5.13-8,12.4-7.88,20.63.34,32.39.15,64.79.11,97.19,0,1.41.8,3.36-.65,4.14-1.9,1-2.86-1.16-4-2.17C90.84,109.1,63.81,84.7,35.74,59.37Z"/><path class="cls-1" d="M481.44,58.39c0-10.19-.42-18.19.12-26.13.49-7.37-1.18-13.37-7.25-17.93-1.08-.81-3-1.81-2.33-3.42s2.63-.78,4-.79q19.49-.09,38.95,0c1.21,0,2.92-.77,3.57.8s-.93,2.44-1.9,3.14c-6.48,4.74-7.57,11.15-7.49,18.8.22,19.26,1.16,38.56-.44,57.78-1.9,22.82-14.53,36.79-36.84,41.72a68.35,68.35,0,0,1-33.59-.87c-20.82-5.83-33.17-21.91-33.53-44.1-.31-18.76-.35-37.54,0-56.31.13-6.66-1.25-12-6.66-16.15-1.3-1-3.77-2.21-2.89-4.1.8-1.72,3.31-.69,5-.7q18.72-.12,37.45,0c1.24,0,3-.72,3.66.61.89,1.77-1.06,2.7-2.09,3.47-5.87,4.44-7.43,10.21-7.24,17.42.45,16.77.1,33.55.18,50.33a57,57,0,0,0,.87,11.4c2.46,11.62,11.63,17.9,24.89,17.45,12.79-.44,20.84-7,22.7-18.8S480.9,68.11,481.44,58.39Z"/><path class="cls-1" d="M341.39,8.11c5.32-.2,11.93.72,18.51,1.61,5.81.79,11.26.51,16.33-2.68.85-.53,1.77-1.27,2.72-.61s.26,1.79,0,2.71Q374.45,27,369.92,44.81c-.22.85.1,2.17-1.28,2.35-1,.14-1.48-.65-1.76-1.45-6.56-18.37-36.81-18.68-50.26-5.86-16.55,15.76-16.39,48.15.74,63.34,13.23,11.74,36,10.44,48.31-3.07,2.57-2.82,3.71-3.21,6.11,0a141.9,141.9,0,0,0,11.06,12.83c2.25,2.35,1.67,3.63-.45,5.55-9.84,9-21.53,13.68-34.62,14.94-20,1.92-38.47-1.75-53.84-15.64-16.84-15.22-21.39-34.88-18.59-56.27C279.73,28.08,305,7.7,341.39,8.11Z"/><path class="cls-1" d="M593.49,290.57h585.34a6.54,6.54,0,0,1,2,0c2,.7,5.79-1.91,5.84,2.32s-3.78,2.32-5.74,2.32q-587.34.15-1174.66.1c-1.17,0-2.34-.06-3.5,0-1.83.07-2.79-.58-2.7-2.59.07-1.81,1.11-2.19,2.62-2.17s3,0,4.49,0Z"/><path class="cls-1" d="M564.42,62c6.86-9.67,15.15-14.38,25.77-15.08,16.93-1.11,28.74,8.88,30.26,25.92,1.08,12.09.65,24.23.36,36.34-.17,7.48,1.23,13.74,7.52,18.36,1,.73,2.54,1.66,2,3.13s-2.34.83-3.56.84c-9.32.06-18.64-.11-28,.1-3.43.08-4.14-1.2-4.1-4.34.16-12.61.07-25.23.06-37.85,0-2,0-4-.14-6-.56-8.81-4.86-13.81-12.24-14.28-9-.58-15.74,4-16.66,12.78-1.26,11.88-.75,23.88-.23,35.82.21,4.6,4.46,6.75,7.09,9.87.8.95,2.48,1.62,1.73,3.19-.6,1.26-2.09.68-3.18.69q-19.21,0-38.43,0c-1.06,0-2.56.59-3.06-.85s.78-2.17,1.67-2.8c6.91-4.92,8.07-11.82,7.81-19.74q-.61-18.92,0-37.85c.22-7.29-1.19-13.42-7.32-18-1-.78-2.93-1.78-2-3.51.68-1.31,2.41-.56,3.66-.57,9-.06,18,.12,26.94-.11,3.31-.08,4.4.9,4.09,4.15C564.2,55,564.42,57.82,564.42,62Z"/><path class="cls-1" d="M1098.06,121.25c-9.79,11.59-21.42,14.58-34.74,11.59a23.4,23.4,0,0,1-18.26-20c-1.24-12,3.48-21,13.65-25.79,7.51-3.53,15.58-4.48,23.76-4.92,3-.16,6-.3,8.94-.61s5.47-1.55,6-5c.54-3.64-1.2-6.12-4.3-7.65-5.65-2.78-11.63-2.41-17.56-1.24a25.5,25.5,0,0,0-11.93,5.93c-1.89,1.65-2.87,1.35-4.3-.45a80.25,80.25,0,0,0-8.49-9.78c-3.72-3.36-2.11-5.19,1-7.43,10.37-7.48,22.23-9.23,34.56-9.15a59.28,59.28,0,0,1,17.23,2.32c11.61,3.59,18,11.49,19.34,23.38,1.35,12.24.68,24.56.47,36.84-.13,7.27,1.1,13.43,7.26,18,1,.78,2.91,1.75,2.08,3.5-.67,1.39-2.41.68-3.67.69-8.65.06-17.31-.21-25.95.13-4.25.17-5.72-1.19-5.1-5.26A40.41,40.41,0,0,0,1098.06,121.25Zm-4.2-26.45c-6.56.83-12.31.49-17.54,3.11-4,2-5.84,5.38-5.21,9.79s3.48,6.88,8,7.59c9.62,1.54,17.87-5.33,18.59-15.47C1097.93,96.23,1097.89,93.24,1093.86,94.8Z"/><path class="cls-1" d="M842,97.26c-8.48,0-17,.1-25.45-.06-3.14,0-3.76.83-2.6,3.71a17.51,17.51,0,0,0,12.66,11c8.42,2.06,16.59,1.51,23.64-4.17,1.91-1.54,2.7-.9,3.92.59,3.48,4.23,7,8.49,10.64,12.53,1.87,2,.93,3-.76,4.24-7,5.23-15.1,7.6-23.65,8.42-14.43,1.38-28.32,0-40.06-9.69-13-10.7-17.65-30.2-11.81-48.37,5.18-16.1,19.1-27,36.18-28.33a62.57,62.57,0,0,1,16.91.47c16.83,3.28,27.47,15.29,29.51,33.1,1.91,16.6,1.91,16.6-14.65,16.6ZM828.77,82.12c4.48,0,9-.19,13.44.07,3.08.18,3.23-1.19,2.75-3.55-1.62-8-7.28-12.55-15.56-12.53-8,0-14.83,5.51-16.18,12.82-.41,2.26-.06,3.36,2.6,3.24C820.13,82,824.45,82.12,828.77,82.12Z"/><path class="cls-1" d="M1023.67,78.06c-7.33-12-17.7-13.44-29-12.29-3.28.34-6.33,1.51-6.65,5.49-.34,4.27,2.76,5.9,6.09,6.67,5.5,1.26,11.13,2,16.65,3.14a48.11,48.11,0,0,1,8.53,2.64c8.34,3.48,14.35,8.89,15,18.64.68,10.23-2.54,18.7-11.29,24.47-11.18,7.36-23.81,7.76-36.56,6.72-9.55-.77-18.63-3.25-26.78-8.57-2.36-1.54-3.26-2.77-1.13-5.38a102.43,102.43,0,0,0,7.66-11c1.71-2.79,2.94-3.43,6-1.25,8.17,5.8,17.57,7.59,27.48,6.86,3.92-.28,7.5-1.48,8-5.93.56-4.61-2.88-6.46-6.64-7.31-5.18-1.17-10.46-1.85-15.67-2.91a55.55,55.55,0,0,1-8.62-2.38c-9.59-3.67-15.23-10.43-15.59-21-.4-11.39,4.41-19.32,14.48-23.87,10.73-4.85,22-4.68,33.31-3.12,6.94,1,13.86,2.49,20.15-2.25a1.83,1.83,0,0,1,2.3-.23c.81.63.38,1.51.18,2.29C1029.11,57.25,1026.55,67,1023.67,78.06Z"/><path class="cls-1" d="M1175,59.31c0,16.92.23,33.86-.12,50.78-.13,6.81,1.45,12.34,6.89,16.66,1.21,1,3.38,2.13,2.77,3.76-.78,2.1-3.22.91-4.88.92-12,.11-23.94.09-35.91,0-1.38,0-3.32.79-4-.94-.56-1.4,1-2.36,2-3.11,6.21-4.69,7.45-11,7.37-18.43q-.48-43.8,0-87.61c.07-6.83-1.4-12.33-6.87-16.63-1.18-.93-3.35-2.07-2.53-3.79s3-.69,4.56-.7c9-.07,18,.11,26.93-.11,3.16-.08,3.86.91,3.83,3.91C1174.92,22.47,1175,40.89,1175,59.31Z"/><path class="cls-1" d="M735.31,88.8c4.86-12.91,9.38-24.41,13.46-36,1.24-3.52,2.77-4.86,6.62-4.71,8.3.34,16.63.09,24.94.14.9,0,2.13-.52,2.62.69s-.61,1.76-1.35,2.36c-5.85,4.71-9.41,11.06-12.7,17.62q-15.51,30.87-31.07,61.72c-.83,1.63-.91,4.46-3.36,4.36-2-.08-2.22-2.65-3-4.19q-15.65-30.8-31.16-61.66c-3.31-6.54-6.94-12.86-12.68-17.66-.77-.65-1.78-1.27-1.45-2.37.48-1.58,2-.86,3-.87,8.48-.06,17,.08,25.45-.1,2.6,0,3.75.89,4.71,3.19C724.36,63.33,729.55,75.33,735.31,88.8Z"/><path class="cls-1" d="M917.88,62.34c7.3-11.38,16.75-17.28,30.32-15.19,5.74.88,6.09,1.41,4.63,6.91-1.56,5.93-3.24,11.83-4.67,17.78-.61,2.56-1.26,2.69-3.59,1.39-13.05-7.33-24.68-1.37-25.84,13.61-.72,9.4-.24,18.9-.31,28.36,0,5.68,4.11,8.77,7.55,12.33.87.91,2.53,1.69,1.92,3.16s-2.37.76-3.59.77q-18.72.07-37.43,0c-1.26,0-3,.65-3.67-.72-.8-1.73,1.06-2.7,2.12-3.49,5.95-4.45,7.3-10.38,7.08-17.52q-.63-20.14,0-40.33c.22-7-1.35-12.68-7.1-17-1.09-.82-2.95-1.84-2.28-3.47s2.66-.75,4-.76c9.14-.08,18.29,0,27.44-.09,2.54,0,3.59.63,3.44,3.33C917.72,55.06,917.88,58.7,917.88,62.34Z"/><path class="cls-1" d="M674.16,83.94c0,8.47.32,17-.1,25.42-.35,7.26,1,13.46,7.2,18,1,.75,3,1.72,2,3.48-.71,1.3-2.44.64-3.71.65q-18.48.06-37,0c-1.35,0-3.29.93-4-.89-.54-1.43,1.07-2.37,2.06-3.11,6.26-4.66,7.71-11,7.48-18.42-.4-12.78-.38-25.59,0-38.38.21-7.43-1.11-13.78-7.42-18.45-1-.77-3-1.78-2-3.51.69-1.22,2.44-.51,3.69-.51,9.16,0,18.32.15,27.47-.12,3.61-.1,4.42,1.07,4.35,4.48C674,63,674.16,73.47,674.16,83.94Z"/><path class="cls-1" d="M831.09,216.09c.06-16.78,12.37-28.49,29.9-28.44s29.25,11.73,29.18,29c-.07,16.39-13,28.83-29.95,28.74S831,233.08,831.09,216.09Zm45.15.37c0-9.31-4.37-16.1-11.43-17.67-8.91-2-16.51,2.32-19.1,10.83-3,9.91,1.11,20.66,9.11,23.74C866.11,237.7,876.21,229.73,876.24,216.46Z"/><path class="cls-1" d="M397.56,221.94c7,4.52,10.87,10.95,13.48,18.35,1.11,3.16.32,4.38-3,4.1a8.92,8.92,0,0,0-2,0c-5.23.68-8.82,0-10.17-6.53-1.11-5.34-5.42-9.51-10.4-12.22-5.23-2.84-8-1.11-8,4.67,0,3.15-.17,6.32,0,9.46.23,3.38-.9,4.76-4.5,4.67-10.35-.28-8.46.92-8.53-8.38-.11-14.28.1-28.57-.12-42.84-.05-3.82,1.18-4.9,4.84-4.68,8.95.53,18-.93,26.86.91,9.65,2,13.81,6.44,14.42,14.59s-2.85,13.06-11.79,16.81C398.45,221,398.26,221.28,397.56,221.94ZM377.5,206.75c0,9.69,0,9.69,9.68,8.28a26.29,26.29,0,0,0,3.45-.49c4-1.15,6.12-3.78,6-8-.16-5.3-3.42-7.89-10.47-7.9C375.75,198.58,377.73,197.53,377.5,206.75Z"/><path class="cls-1" d="M954.27,210.92c0,10.51-.28,19.61.12,28.68.21,4.82-2.17,5-5.74,4.84-3.41-.13-6.47.51-6.37-4.85.29-16.78.1-33.56.12-50.34,0-1,.14-1.91.32-4L982.94,221c0-10.12.31-19-.12-27.92-.25-5.24,2.86-4.54,6-4.48s6.25-1,6.15,4.35c-.32,16.28-.11,32.56-.14,48.85,0,1.24.6,3-.94,3.55s-2.3-1.05-3.26-1.91C978.86,232.94,967.12,222.42,954.27,210.92Z"/><path class="cls-1" d="M464.46,185.35l40,35.66V196c0-7.32,2.52-9.11,9.93-7.37,2.81.66,2,2.71,2,4.32q.09,24.4,0,48.81c0,1.23.69,2.94-.83,3.58s-2.34-.91-3.28-1.76c-10.52-9.41-21-18.87-31.54-28.27-1.18-1-2-2.61-4.38-2.93,0,9-.34,18,.12,26.83.29,5.52-2.75,5.07-6.48,5.3-4.26.25-5.74-.85-5.66-5.43C464.63,221.64,464.46,204.21,464.46,185.35Z"/><path class="cls-1" d="M69.68,185.92l38.67,34.52c1-2.85.51-5.44.54-7.93.08-6.81.11-13.62,0-20.42,0-2.51.69-3.81,3.37-3.49a12.51,12.51,0,0,0,1.5,0c8.31.09,7.06-.77,7.09,7.22.06,16.41,0,32.83-1.07,50.11l-38-33.68c-1.74.87-1,2.39-1,3.53-.08,8.14-.11,16.28,0,24.41,0,2.84-.72,4.17-3.9,4.26-8,.24-8,.39-8-7.85,0-15.11,0-30.22,0-45.33C68.92,189.7,68.45,188,69.68,185.92Z"/><path class="cls-1" d="M269.89,216.34c0-7.81.12-15.62-.05-23.43-.07-3.1.67-4.44,4.11-4.38,11,.2,22,.25,33,0,4.25-.1,4,2.27,3.9,5s.67,5.7-4,5.44c-6.3-.34-12.67.25-19-.18-5.36-.37-4.77,2.82-4.95,6.27-.2,3.88.69,5.88,5.16,5.54,4.79-.36,9.65.08,14.47-.13,4.24-.18,3.34,2.73,3.31,5s1,5.25-3.25,5.09c-5.32-.19-10.65.09-16-.09-2.88-.09-3.73,1-3.69,3.76.15,11.33-.69,9,8.8,9.22,5.16.1,10.33.23,15.48-.05,4-.22,3.92,2.25,3.54,4.76-.35,2.31,2,6.17-3.15,6.16-11.48,0-23-.07-34.45,0-2.8,0-3.29-1.29-3.27-3.67C269.94,232.62,269.89,224.48,269.89,216.34Z"/><path class="cls-1" d="M595.13,186.18c2.4,2.86,3.34,6.45,4.88,9.7,7,14.83,13.87,29.73,20.91,44.55,1.34,2.84,1.43,4.3-2.34,4a36.79,36.79,0,0,0-6.47,0c-3,.3-5.19-.52-6-3.73-.59-2.49-2.14-3.3-4.71-3.2-5,.19-10,.16-15,0-2.47-.08-4.31.44-4.86,3.05-.68,3.24-2.72,3.91-5.8,3.9-10.76,0-10.76.07-5.83-9.72q11.19-22.22,22.37-44.41C593.11,188.89,593.46,187.17,595.13,186.18Zm-.76,25c-2.54,5.47-4.42,9.51-6.28,13.57-.39.86-1.05,2.4.12,2.49a94.55,94.55,0,0,0,11.42.1c1.09,0,.76-1.22.63-2a2.44,2.44,0,0,0-.15-.48Z"/><path class="cls-1" d="M1073.49,185.23l22.35,47.71c1.27,2.7,2.43,5.45,3.82,8.09s.55,3.54-2.27,3.38a45.18,45.18,0,0,0-7,0c-3.11.31-5.16-.69-5.87-3.85-.58-2.63-2.3-3.2-4.78-3.08-3.81.17-7.64.14-11.46,0-4.08-.14-8-.48-9.24,4.91-.52,2.33-2.78,1.91-4.58,2-11.12.32-11.12.32-6.21-9.42q11.19-22.22,22.38-44.41C1071.38,189.09,1072.18,187.67,1073.49,185.23ZM1072.7,211c-2.47,5.45-4.41,9.65-6.28,13.89-.37.84-1,2.35.38,2.44a96.35,96.35,0,0,0,11.4,0c1-.05.73-1.32.43-2.06C1076.83,220.84,1075,216.45,1072.7,211Z"/><path class="cls-1" d="M562.87,371.3l11.59-30.36a25.85,25.85,0,0,1,1.12-2.77c1.47-2.77,4.25-2.08,6.2-1.5,2.66.79.43,2.76,0,4-5.58,15.26-11.28,30.49-17,45.71-.33.88-.26,2.05-2.15,2.67-4.45-11.79-8.9-23.61-13.9-36.86L534.9,389c-2-.67-2.11-2.28-2.58-3.54-5.57-14.74-11.15-29.48-16.55-44.28-.48-1.32-2.81-3.61.14-4.48,2.34-.69,5.26-1.13,6.57,2.48,3.16,8.73,6.54,17.39,9.84,26.07.58,1.52,1.2,3,2.37,5.93,4.73-12.69,9-24.15,13.28-35.61l1.21-.26Z"/><path class="cls-1" d="M691.11,188.6c6.49,0,13,.31,19.47-.1,4.5-.29,4.61,1.93,4.73,5.34.12,3.79-.82,5.6-5,5.08-2.46-.3-5,.19-7.47-.1-4.25-.51-5.79.75-5.65,5.36.36,11.78-.06,23.58.22,35.37.1,4.1-1.3,5.41-5.1,4.84a8.16,8.16,0,0,0-1,0c-8-.09-7,.84-7-6.81-.05-11.29-.21-22.59.09-33.88.11-4.12-1.31-5.25-5.11-4.87-2.64.26-5.35-.21-8,.11-4.14.5-5.08-1.31-5-5.09.11-3.42.23-5.62,4.74-5.34C677.78,188.91,684.45,188.6,691.11,188.6Z"/><path class="cls-1" d="M188.86,221.43c0-6.31-.12-12.63,0-18.93.08-2.88-1-3.81-3.77-3.67-3.48.17-7-.16-10.47.09-4,.28-3.83-2.24-3.61-4.8.2-2.33-1.35-5.6,3.33-5.56q21,.19,41.94,0c4.67-.05,3.2,3.16,3.37,5.5.17,2.5.51,5.14-3.53,4.85-3.31-.23-6.68.18-10-.1-3.64-.32-4.44,1.21-4.39,4.56.17,12.13-.08,24.25.16,36.37.07,3.79-1.1,4.85-4.8,4.72-9.92-.36-8.13,1.06-8.29-8.09C188.79,231.39,188.86,226.41,188.86,221.43Z"/><path class="cls-1" d="M720.1,366.88a29.35,29.35,0,0,1,12.07,16.55c.39,1.31,2.66,3.79-.67,4.2-2.23.27-5.47,1.75-6.57-2.28a24.86,24.86,0,0,0-7.52-12.67,21.61,21.61,0,0,0-4.87-3.39c-6.55-3.06-9.47-1.2-9.47,5.83,0,3-.11,6,0,9s-1.1,3.8-3.85,3.78-3.86-.93-3.84-3.79c.1-14.78.06-29.56,0-44.35,0-1.82.16-3.38,2.57-3.28,6.64.25,13.31-.65,19.91.6,8.89,1.69,13,5.52,14,13.14.89,6.34-2.71,12-9.9,15.67Zm-10.39-23.65c-1.77.75-6.06-2-6.73,1.47-1,5.42-2,11.82.46,16.53,1.6,3,7.67.71,11.73,1a4.09,4.09,0,0,0,1-.06c5.08-.77,8.18-4.44,8.14-9.65s-3-8.7-8.39-9.25C714.1,343.07,712.26,343.23,709.71,343.23Z"/><path class="cls-1" d="M305.25,335l35.44,37.74c0-11.34,0-21.37,0-31.4,0-2.38-.78-5,3.41-5,4,0,3.58,2.33,3.58,4.85,0,15.71,0,31.41,0,48.66l-36.74-39c0,11.7-.11,22.06.07,32.41.05,3.34-1.14,4.44-4.35,4.14-1.89-.18-2.67-.94-2.66-2.78q.11-24.14.19-48.27C304.19,336.08,304.56,335.84,305.25,335Z"/><path class="cls-1" d="M1150,216.15c0-7.8.14-15.6-.06-23.4-.08-3.28,1-4.31,4.28-4.21,10.62.32,8.6-1.17,8.76,8.6.12,6.64-.08,13.28.06,19.92.11,5.26-2.23,12.06.91,15.39s10.07.72,15.32,1.07a22.15,22.15,0,0,0,4,0c4.11-.45,3.73,2.42,3.44,4.84s1.86,6.1-3.25,6.06c-10-.09-20-.12-29.93,0-3,0-3.6-1.27-3.56-3.9C1150.1,232.41,1150,224.28,1150,216.15Z"/><path class="cls-1" d="M661.48,362.16c0,12-5.4,20.68-15.26,24.48-9.54,3.67-20.94,1.23-27.64-5.94-7.42-7.94-8.56-23.84-2.42-33.6s17.85-13.64,29.37-9.85C655.82,340.64,661.49,349.5,661.48,362.16Zm-24.27-20c-10.43-.1-17.42,7.8-17.54,19.86-.11,11.44,7,19.86,17,20,10.16.16,17.44-8.12,17.58-20C654.4,350.58,647.3,342.31,637.21,342.2Z"/><path class="cls-1" d="M777.15,360.74c6.1-6.78,12.23-13.53,18.27-20.35,4.05-4.57,4.22-4.69,11.75-3.22-5.31,5.83-10.23,11.58-15.56,16.91-2.71,2.72-2.57,4.15.39,6.53,7.24,5.81,12.24,13.5,16.38,21.69.75,1.5,3.67,3.91.48,5.21-2.24.92-5.52,1.36-7.17-2.3a64.19,64.19,0,0,0-14.25-19.62c-2.46-2.38-3.71-2.09-6.41.05-6.21,4.92-5.08,11.42-5,17.77.06,3.1-.76,4.65-4.18,4.47-2.57-.14-3.47-1.15-3.46-3.66q.09-22.16,0-44.31c0-2.53.75-3.61,3.4-3.53,2.43.08,4.26.28,4.22,3.4-.09,6.9,0,13.81,0,20.71Z"/><path class="cls-1" d="M385.64,362.13c0-7.14.14-14.28-.06-21.42-.09-3.14.7-4.44,4.12-4.35,8,.22,16,.14,24,0,2.55,0,4,.38,4,3.47,0,3.35-1.91,3.25-4.22,3.23-5.82,0-11.64.06-17.47,0-2.29,0-3.49.71-3.25,3.13a8.34,8.34,0,0,1,0,1c-.31,11-.31,11,10.73,11,2.33,0,4.66.1,7,0s3.29.61,3.28,3.08-1.08,3.1-3.32,3.05c-4.82-.09-9.65.06-14.47-.05-2.34,0-3.45.78-3.2,3.16a8.34,8.34,0,0,1,0,1c-.33,12.84-.33,12.83,12.45,12.84,3,0,6,.06,9,0,2.11-.06,3.47.3,3.47,2.92s-.82,3.68-3.42,3.66c-8.49-.05-17-.09-25.46,0-2.94,0-3.12-1.57-3.1-3.81C385.69,376.75,385.64,369.44,385.64,362.13Z"/><path class="cls-1" d="M858.25,336.26c5.26-.31,9.37.12,13.14,2.17,2,1.08,3.69,2.19,2,5-1.49,2.45-2.6,2.45-5,1-4.47-2.7-9.43-2.84-14.46-1.45-3.39.94-5.7,2.79-5.74,6.53a6.59,6.59,0,0,0,5.22,7c3.51,1,7.05,1.88,10.55,2.9,8.71,2.54,12.21,6.25,12.33,12.91.15,8.54-4.31,13.8-13.74,15.38a37.69,37.69,0,0,1-19.67-1.63c-2.1-.79-4.66-1.21-3.3-4.75,1.26-3.26,2.77-3.06,5.6-1.78,5.55,2.51,11.41,3.41,17.48,1.6,3.81-1.14,6-3.67,6.34-7.45s-2.3-6.14-5.67-7.28c-3.92-1.33-8-2.11-11.95-3.45-8.22-2.8-11.93-7.87-10.89-14.46,1.13-7.12,6.71-11.75,14.83-12.25C856.63,336.19,858,336.26,858.25,336.26Z"/><path class="cls-1" d="M660.8,5.67a15.26,15.26,0,0,1,15.49,14.92,15.44,15.44,0,0,1-30.88.13A15.37,15.37,0,0,1,660.8,5.67Z"/><path class="cls-1" d="M778.44,216.64c0,7.81-.12,15.62,0,23.42.07,3.12-.69,4.49-4.14,4.39-11.05-.33-8.83,1.2-8.94-8.93-.14-14,.08-27.91-.11-41.86,0-3.72.69-5.34,4.89-5.15,9.72.44,8.11-1.06,8.23,8.19C778.51,203.35,778.44,210,778.44,216.64Z"/><path class="cls-1" d="M13.09,216.21c0,8-.13,15.95.07,23.92.08,3.22-.83,4.41-4.18,4.31C-1.9,244.14.21,245.56.12,236,0,221.83.21,207.7,0,193.59c0-3.84.88-5.25,5-5.07,9.67.42,8-1.13,8.13,8.25C13.17,203.25,13.09,209.73,13.09,216.21Z"/><path class="cls-1" d="M463.57,365.15c0-6.15-.12-12.29.05-18.43.08-2.86-1-3.86-3.75-3.67s-5.33,0-8,.05c-2.29,0-4.22.13-4.22-3.22,0-3.07,1.41-3.51,4-3.48q15.48.14,30.94,0c2.5,0,4,.27,4,3.42s-1.79,3.25-4.14,3.3c-11.84.26-11.84.3-11.84,11.94,0,9.63-.06,19.26,0,28.88,0,2.6-.47,4-3.51,4s-3.7-1.09-3.63-3.83C463.68,377.76,463.57,371.45,463.57,365.15Z"/></g></g></svg>