<svg xmlns="http://www.w3.org/2000/svg" viewBox="0 0 999 463.29"><defs><style>.cls-1{fill:#b4131d;}.cls-2{fill:#211c1d;}.cls-3{fill:#fff;}</style></defs><g id="Layer_2" data-name="Layer 2"><g id="svg3399"><g id="g3407"><g id="g3409"><path id="path3411" class="cls-1" d="M0,463.29H999V0H0Z"/><path id="path3413" class="cls-2" d="M172.23,114.58v4s0,7,0,13.08c-6.09-6.74-15.36-17-15.36-17H114.58v210L139,343.81l25.4-3.18s.1-11.09.18-18.62c8.34,6.87,19.76,16.24,19.76,16.24L225.9,334V136.19l-22.57-21.57-31.1,0"/><path id="path3415" class="cls-2" d="M428.39,114.55h-72.3v28l21.74,17.08V303.78L401.75,323l28.94-.73V159.59l21.38-.16V139.06l-21.92-24.51h-1.76"/><path id="path3417" class="cls-2" d="M720.58,114.58H692.11v193l24.28,22.52,28.73,2.38V136.71l-22.93-22.13h-1.61"/><path id="path3419" class="cls-2" d="M862.05,232.58c.27-1.42,17.22-94.34,17.22-94.34l-23.12-23.65H826s-1.56,9.72-2.56,15.83c-6-6.47-14.58-15.83-14.58-15.83H777.82s17.71,92.73,18,94.07c-.22,1.35-17,105.57-17,105.57l32.92,25,19.66,2.34V324l27.06,21.09,26,3.57S862.33,234,862.05,232.58"/><path id="path3421" class="cls-2" d="M642.5,274.38V136l-22.63-21.44H589.46V302.9L613.59,324l55,2.73-1.22-24.4-24.91-28"/><path id="path3423" class="cls-2" d="M312.41,156.33H336v-20.2l-22.55-21.6h-1.58l-52.6,0V310.46l23.77,18.73,53-3.32V304.19s-21.76-24.06-23.63-26.14V243h23.95V221.2l-23.95-23.95V156.33"/><path id="path3425" class="cls-2" d="M533.06,156.32H556.7v-20.2l-22.54-21.59h-1.59l-52.6,0v187l24.11,20,29,.19V243h24V221.2s-21.85-21.86-24-23.95V156.32"/><path id="path3427" class="cls-3" d="M698.41,304s7.34.36,19.94,1.29V120.16l-19.94,0V304"/><path id="path3429" class="cls-3" d="M362.4,138.65h21.73v161s4.67-.37,19.91-.71l.1-160.29h22V120.22l-63.74,0v18.46"/><path id="path3431" class="cls-3" d="M179.15,279.29l-1.41.17L153.45,120.22l-32.36,0,0,199.88s6.42-.92,20.09-2.47l-1.41-151.94,1.4-.12,23.12,149.68s7.9-.93,34.77-3.59V120.19H178.44l.71,159.1"/><path id="path3433" class="cls-3" d="M853.52,120.16H831l-11.29,71.42h-1.34l-11.73-71.42H784.59l17.24,88.34L785.16,311.75l21.46,2.05,11-85.13,1.35,0,10.72,87.51,23.53,2.6L836.44,211l17.08-90.86"/><path id="path3435" class="cls-3" d="M615.83,120.15l-20.05,0V299s13.58.39,46.33,1.85V282.74s-3.66-.37-26.28-1.16V120.15"/><path id="path3437" class="cls-3" d="M265.61,306.21s11.83-.83,46-3V284.92l-25.87,1.78v-64l25.87,0V204h-26V138.67h26.05V120.18H265.61v186"/><path id="path3439" class="cls-3" d="M486.28,297.58h20.18V222.66l25.86,0V204l-26,0V138.67h26.06V120.18H486.28V297.58"/></g></g></g></g></svg>