<svg xmlns="http://www.w3.org/2000/svg" viewBox="0 0 91.88 166"><defs><style>.cls-1{fill:#f9bc15;}</style></defs><g id="Layer_2" data-name="Layer 2"><g id="Layer_1-2" data-name="Layer 1"><path class="cls-1" d="M.06,82.88V12A11.57,11.57,0,0,1,11.6.07c6-.13,12,0,18,0H79.49c7.28,0,12.38,5.09,12.38,12.36q0,56.2,0,112.4,0,14.35,0,28.69c0,7.44-5,12.48-12.42,12.49-22.41,0-44.82,0-67.23,0A12.25,12.25,0,0,1,0,153.77C.15,130.14.06,106.51.06,82.88Zm8.88-65V130.2H83V17.87ZM45.92,157c2,0,4,0,6,0a2.77,2.77,0,0,0,2.88-2.8c0-4,.05-8,0-12A2.77,2.77,0,0,0,52,139.33q-6-.09-12,0a2.73,2.73,0,0,0-2.84,2.84q-.08,6,0,12a2.68,2.68,0,0,0,3,2.85C42,157,44,157,45.92,157ZM46,4.46a4.55,4.55,0,0,0-4.5,4.4,4.5,4.5,0,0,0,4.4,4.48A4.59,4.59,0,0,0,50.43,9,4.67,4.67,0,0,0,46,4.46Z"/><path class="cls-1" d="M49,25.5a12.49,12.49,0,0,1-.93,2.21Q39.91,40.27,31.7,52.8c-3.59,5.48-7.16,11-10.77,16.42a10.57,10.57,0,0,1-2.07,2.56,4.36,4.36,0,0,1-5.66-.4,4.42,4.42,0,0,1-.61-5.64c3.07-4.75,6.19-9.48,9.29-14.22q9.16-14,18.32-28c1.09-1.67,2.38-2.91,4.59-2.71a4.14,4.14,0,0,1,3.64,2.48A13.61,13.61,0,0,1,49,25.5Z"/><path class="cls-1" d="M26.68,20.81a4.32,4.32,0,0,1,3.87,6.46c-1,1.85-2.21,3.59-3.34,5.37-2.35,3.7-4.69,7.4-7.07,11.08a4.39,4.39,0,0,1-6.35,1.46A4.44,4.44,0,0,1,12.63,39q5.05-8,10.2-16A4.12,4.12,0,0,1,26.68,20.81Z"/><path class="cls-1" d="M43,151v-5.64h5.72V151Z"/></g></g></svg>