<svg xmlns="http://www.w3.org/2000/svg" viewBox="0 0 705.11 284.49"><defs><style>.cls-1{fill:#4e3695;}</style></defs><g id="Layer_2" data-name="Layer 2"><g id="Layer_1-2" data-name="Layer 1"><path class="cls-1" d="M705.11,133.43H673.42c-.07-1.51-.18-2.83-.18-4.15q0-26.64,0-53.28c0-2-.06-3.9-.25-5.83-.53-5.54-2.22-7.86-6.22-8.7-4.93-1-10.25.79-12,5.14a33.51,33.51,0,0,0-2.5,11.93c-.26,16.84-.11,33.69-.11,50.53v4.08H620v-4q0-27.16,0-54.32c0-1.49,0-3-.13-4.46-.43-5.5-2.11-7.95-6-8.86-4.86-1.14-10.29.63-12.14,4.91A31,31,0,0,0,599.16,78c-.27,17.07-.12,34.15-.12,51.22v4H567v-3.8c0-29.79,0-59.58-.07-89.38,0-3,.61-4.27,3.94-4.09a153,153,0,0,0,16.17,0c3-.16,4.28,1,5,3.74.84,3.27,2,6.44,3.37,10.46,6.54-10.26,15-16.21,26.91-16.13,11.49.09,21.26,3.3,26.77,14.64,2.1-2.36,3.87-4.6,5.89-6.59,9.15-9,20.26-9.48,31.76-6.52,10.68,2.75,15.74,10.75,17.75,21.07a12,12,0,0,0,.69,1.87Z"/><path class="cls-1" d="M224.35,0c0,1.49-.12,3-.12,4.46q0,62.17,0,124.36v4.35H192V0Z"/><path class="cls-1" d="M705.11,196l-8.85.4v28.14H687.1V196.45l-8.75-.41v-8.28h26.76Z"/><path class="cls-1" d="M324.58,127.53c-9.25-12.3-8.57-19.1,3.3-32.14-8.45-8.56-9.82-19.27-8.22-30.55,2.32-16.32,13.85-26.95,31.58-28.92,6-.66,12.11-.2,18.16-.17,12.28,0,24.55.16,36.82.24h4.65V58.33h-8.41c.84,4.31,2.09,8.4,2.35,12.54,1.22,19.22-9.17,32.49-28.11,36.43-9.6,2-19.14,1.53-28.92-.57v10.09h3.66c9.3,0,18.59-.07,27.88,0a50.85,50.85,0,0,1,9.56.9c11.36,2.33,18.73,10.44,20,21.64,1.53,13.75-3.09,23.77-14.1,28.56a49.88,49.88,0,0,1-16.19,4.1c-13.72.9-27.53,1.73-41.16-.91-9-1.74-17-5.69-20.6-14.8C312.62,145.65,313.39,136.43,324.58,127.53Zm49.9-54c0-8.54-3.7-12.24-12.31-12.26-8.31,0-12.45,3.66-12.47,11.07,0,9,3.48,12.45,12.72,12.43C371,84.75,374.47,81.5,374.48,73.53Zm-12.43,77.06v-.16h8.23a7.16,7.16,0,0,0,1-.09c4.32-.54,6.32-2.71,6.17-6.68s-2.36-6.14-6.65-6.22c-6.75-.11-13.49-.06-20.24,0-.74,0-2,.28-2.12.65-.61,2.7-1.61,5.56-1.18,8.15.24,1.5,2.75,3.34,4.52,3.72C355.12,150.66,358.63,150.43,362.05,150.59Z"/><path class="cls-1" d="M0,172.22V36c7.25,0,14.34-.08,21.42.1.83,0,2,1.34,2.37,2.3,1.34,3.27,2.4,6.66,3.7,10.38.8-.89,1.39-1.5,1.91-2.15C40.22,33.17,62.58,29.9,76.78,39.77c7.94,5.52,11.85,13.66,12.33,22.83.7,13.58,1.19,27.31.07,40.83-2,23.35-26.85,38.24-48.89,30-2.85-1.06-5.42-2.87-8.44-4.5v43.26ZM57.72,84.6h0c0-4.46.1-8.93,0-13.39-.13-4.77-2.28-8.23-6.49-9a33.53,33.53,0,0,0-11.82,0c-5,1-7.54,4.54-7.62,9.66-.13,8.24-.17,16.48,0,24.72.14,6,3,9.92,8.45,11a24,24,0,0,0,9.47-.11c5.16-1.1,7.89-4.9,8-10.18C57.8,93.07,57.72,88.83,57.72,84.6Z"/><path class="cls-1" d="M227.58,36c11,0,21.42-.08,31.84.13.86,0,2.13,1.78,2.46,2.94,4.32,15.31,8.5,30.66,12.72,46,.27,1,.57,2,1.08,3.74.53-1.57.88-2.44,1.11-3.33,4.13-15.49,8.28-31,12.29-46.48.6-2.29,1.54-3.11,4-3.07,9.41.14,18.82.05,28.23.07.88,0,1.76.14,2.93.24-.33,1.19-.55,2.17-.87,3.1Q305.9,89.1,288.45,138.84c-.42,1.19-.9,2.36-1.3,3.55C280.45,162,266.28,171.46,246,172.5c-4.12.21-8.26.07-12.39.13-2,0-2.83-.77-2.8-2.88.1-6.64.08-13.29,0-19.93,0-1.77.65-2.38,2.41-2.46a115.75,115.75,0,0,0,11.64-.88c4.82-.68,9-2.76,11.8-6.94,2.5-3.66,3.38-7.18,1.78-11.82-10-29.11-19.74-58.33-29.54-87.52C228.5,39,228.15,37.84,227.58,36Z"/><path class="cls-1" d="M97.17,84.5c0-5.72-.53-11.51.1-17.16,1.68-15.05,10.3-25,24.36-30A55.4,55.4,0,0,1,158.46,37c15.14,5,24.38,15.44,25.47,31.6a243.16,243.16,0,0,1,0,32.28c-1.08,16.31-10.38,26.83-25.7,31.78-13.57,4.39-27.22,4-40.3-2C104.5,124.5,97.6,113.68,97,98.94c-.2-4.8,0-9.62,0-14.44Zm31.94.16c0,4.35-.08,8.7,0,13,.16,6.7,4.21,10.31,11.44,10.34s11.4-3.6,11.49-10.28q.16-13,0-26.08c-.09-6.46-4.33-10.2-11.25-10.26-7.15-.06-11.48,3.66-11.66,10.2C129,76,129.12,80.31,129.11,84.66Z"/><path class="cls-1" d="M558.81,133.45c-6.8,0-13,.08-19.17-.09a3.67,3.67,0,0,1-2.5-2.05c-1.35-3.24-2.4-6.61-3.67-10.24-.65.72-1.05,1.11-1.41,1.54-9.9,11.94-24.79,16-39.38,10.62-12-4.39-19-15.58-18.54-29.6.36-11.89,6.19-20,16.72-25.13,8.35-4,17.39-4.85,26.44-5.48,3-.21,5.92,0,8.74,0,2-7.72-1.12-12.4-8.75-12.25-9.83.19-19.64,1.39-29.45,2.21-2,.17-4,.6-6.5,1,0-7.79,0-15.32.07-22.85a2.54,2.54,0,0,1,1.51-1.83c16.78-4.31,33.75-7.37,50.95-3.09,14.63,3.64,23.76,14.5,24.47,29.57s.37,30.23.46,45.35C558.84,118.39,558.81,125.7,558.81,133.45ZM526.58,89.29c-5.4,1-10.48,1.76-15.45,3a7.42,7.42,0,0,0-5.85,6.84c-.35,3.19,0,6.23,2.85,8.3,5.65,4,17.33-.56,18.36-7.42C527,96.66,526.58,93.21,526.58,89.29Z"/><path class="cls-1" d="M476.55,63.48c-8.22,2.58-15.94,5-23.64,7.42-3.34,1.08-4.51,3.28-4.46,7,.23,17.06.1,34.12.1,51.18v4.21H416.72V36c7.45,0,14.87-.07,22.28.11.68,0,1.58,1.44,1.93,2.39,1.16,3.08,2.11,6.23,3.24,9.65,9.64-7.66,19.57-13.8,32.38-14.12Z"/><path class="cls-1" d="M521.55,209.14c-1.6,2.75-3.16,5.52-4.8,8.25s-3,2.81-4.63.07-3.16-5.3-4.76-7.94c0,0-.19,0-.69,0v15h-9.12V188a67.51,67.51,0,0,1,7.55.1c.85.1,1.8,1.24,2.29,2.13,2.32,4.29,4.5,8.66,7,13.61,2.27-4.41,4.43-8.14,6.13-12.07,1.27-2.92,3-4.33,6.23-3.83a31.1,31.1,0,0,0,4.55,0v36.55h-8.89V209.28Z"/><path class="cls-1" d="M436.87,188.5c6.36-1.47,7.37-1.07,10.67,4.12A87.68,87.68,0,0,0,456,204.39c0-4.39.15-8.79,0-13.18-.12-2.64.84-3.47,3.35-3.23,1.9.17,3.82,0,5.81,0v36.36c-7,1.28-7.38,1.14-11-4.49A92.21,92.21,0,0,0,446,208.4v16.14h-9.08Z"/><path class="cls-1" d="M57.27,188.44c5.19-1.34,8.8-.37,11.2,4.63a52,52,0,0,0,8.11,11.53V188.33h9.1v36c-7.1,1.35-7.36,1.23-11-4.42a93.91,93.91,0,0,0-8.3-11.58v16.26H57.27Z"/><path class="cls-1" d="M639,204.39V188.33h9v36c-6.82,1.4-7.43,1.15-11-4.4a85.21,85.21,0,0,0-8.45-11.71v16.39h-8.85V188.46c6.57-1.36,7.34-1.05,10.71,4.23l7.68,12Z"/><path class="cls-1" d="M259,224.61c-10.3.7-10.3.7-14.24-7.91A17.51,17.51,0,0,0,243,213a12.76,12.76,0,0,0-2.89-2.12l-.9.67v13.06h-9V187.77c6.25.3,12.54.16,18.68,1,4.22.6,6.89,4,7.81,8.23s.06,8.19-3.48,11.17c-.52.44-1.05.87-1.77,1.45C253.91,214.56,256.37,219.39,259,224.61Zm-19.57-20a64.39,64.39,0,0,0,7.81-3.16c.46-.25.35-3.06-.14-3.28a59.48,59.48,0,0,0-7.67-2.43Z"/><path class="cls-1" d="M588.46,216.52v8h-24.6a17.79,17.79,0,0,1-.33-2.47c0-10.3,0-20.61-.06-30.91,0-2.32.59-3.23,3.07-3.18,7.2.14,14.4,0,21.83,0v8.1h-15.3v6H586v8.22H573.07v6.23Z"/><path class="cls-1" d="M9,210.3v6.19H24.48v8.08H0V188.25H24.49v7.9H9.12v6H22.28v8.15Z"/><path class="cls-1" d="M180.5,196.1V202h13.2v8.19H180.64v6.35H196v8H171.5V188.33h24.58v7.77Z"/><path class="cls-1" d="M367.24,224.8c-2.3,0-4-.12-5.7,0-2.69.25-4.57-.26-5.14-3.41-.15-.84-1.75-1.75-2.82-2-1.53-.34-3.2,0-4.79-.12-2.71-.27-4.57.28-5.2,3.39-.17.86-1.77,1.86-2.82,2a52.11,52.11,0,0,1-7,.09,16.71,16.71,0,0,1,.46-2.33c3.89-10.74,7.85-21.46,11.67-32.23.68-1.91,1.81-2.51,3.6-2.21s4-1.05,5,1.67C358.63,201.18,362.82,212.65,367.24,224.8Zm-13.83-13.28c-1-3-1.77-5.41-2.57-7.87l-.77.16-2.54,7.71Z"/><path class="cls-1" d="M141,196.22h-8.46v28.37H123.3V196.45l-8.85-.41v-8h20.29C142.2,188,142.2,188,141,196.22Z"/><path class="cls-1" d="M293.68,196.23H284.9v-7.9h26.7v7.79h-8.67v28.47h-9.25Z"/><path class="cls-1" d="M404.52,188V224.5h-8.88c-.07-.94-.23-2-.23-3.1,0-10,.09-19.91-.08-29.86-.05-2.94.94-3.86,3.72-3.56A54.61,54.61,0,0,0,404.52,188Z"/><path class="cls-1" d="M302.81,275.81c-1.18,2.71-2.36,5.41-3.55,8.12l-.93.12q-1.8-4.08-3.59-8.16l-.66,0v7.74l-1.06.28c-.33-.63-.92-1.25-.94-1.88-.09-3.77-.1-7.54,0-11.31,0-.69.77-1.37,1.19-2.05.68.46,1.7.76,2,1.4,1.31,2.78,2.41,5.65,3.91,9.24,1.31-3.29,2.27-6,3.5-8.61.39-.83,1.49-1.33,2.27-2a8.73,8.73,0,0,1,1,2.62c.11,3.53.09,7.08,0,10.61,0,.62-.69,1.22-1.06,1.83-.45-.62-1.25-1.21-1.31-1.87-.17-2-.06-4-.06-6Z"/><path class="cls-1" d="M404.85,283.4c-2.92,1.4-3.45-.85-4.42-2.38s-1.5-4.06-4.63-2.86a30.47,30.47,0,0,1-.06,4.06c-.08.59-.8,1.08-1.23,1.61-.43-.55-1.21-1.09-1.22-1.65-.1-4.32-.06-8.64-.06-13.41a73.3,73.3,0,0,1,8.68.07c3,.37,4.08,4.55,2.07,7.16a15.63,15.63,0,0,1-2,1.87Zm-8.93-7.12a51.47,51.47,0,0,0,5.89-2.12c.3-.14.15-2.3-.14-2.39a49.72,49.72,0,0,0-5.75-1.1Z"/><path class="cls-1" d="M223.7,278.19a39.12,39.12,0,0,1,0,4.22c-.05.51-.68,1-1.05,1.44-.5-.48-1.42-1-1.44-1.45-.11-4.43-.06-8.87-.06-13.79,2.28,0,4.19,0,6.09,0,2.17,0,4.62-.26,5.35,2.55.7,2.65.25,5-2.71,6.44l2.9,5.81c-2.79,1.33-3.3-.78-4.27-2.24S227.12,276.91,223.7,278.19Zm.23-2.07a49.89,49.89,0,0,0,5.77-1.85c.31-.14.23-2.32,0-2.41a50,50,0,0,0-5.73-1.25Z"/><path class="cls-1" d="M503.45,268.62h6.44c2,0,4.39.12,4.56,2.53.13,1.89-.94,3.87-1.55,5.79-.11.33-.62.55-1,.87l2.87,5.59c-2.7,1.39-3.26-.65-4.24-2.11s-1.25-4.27-4.25-3.31c-1.75,1.51,1.16,5.12-2.82,6.08Zm2.48,7.7a47.84,47.84,0,0,0,5.77-2.07c.33-.17.23-2.31,0-2.39a52.22,52.22,0,0,0-5.73-1.26Z"/><path class="cls-1" d="M416.6,284c-4.42,0-7-2.94-7-7.89,0-4.8,2.86-7.95,7.11-7.91s7,3.28,7,8.08S421,284.06,416.6,284Zm4.42-7.93c-.06-3.27-1.85-5.61-4.3-5.64s-4.43,2.52-4.37,5.91,1.83,5.59,4.3,5.61S421.09,279.51,421,276.11Z"/><path class="cls-1" d="M581.52,283.45c-3.26,1.25-3.57-1.26-4.54-2.74s-1.51-3.86-4.55-2.43a20.61,20.61,0,0,1,0,3.59c-.13.71-.83,1.31-1.27,2-.38-.59-1.07-1.18-1.08-1.78-.09-4.32,0-8.64,0-13.44,2.15,0,3.94,0,5.73,0,2.27,0,4.76-.32,5.65,2.66.84,2.8-.17,4.89-2.76,6.44Zm-8.85-7.37a38.86,38.86,0,0,0,5.66-1.66c.36-.16.29-2.56,0-2.66a40.59,40.59,0,0,0-5.65-1.18Z"/><path class="cls-1" d="M174.69,268.91v15.58c-4.79-2.87-6.22-7.91-10.35-11.71v11l-1.33,0c-1.15-4.83-.24-9.77-.56-15.38,5.79,1.41,6.47,7.16,10.8,10.33v-9.81Z"/><path class="cls-1" d="M548.26,278.34v-9.48l1.08-.14a8.2,8.2,0,0,1,.63,2.13c.07,3.42.1,6.85,0,10.28a9.81,9.81,0,0,1-.85,2.68,8.66,8.66,0,0,1-2.4-1.53c-2.28-2.93-4.41-6-6.59-9l-.91.21v10.24l-1.16.1a12.71,12.71,0,0,1-.57-2.52c-.07-3.32-.09-6.63,0-9.94a9.54,9.54,0,0,1,.91-2.66c1,.45,2.22.64,2.81,1.37,2.2,2.71,4.18,5.59,6.23,8.41Z"/><path class="cls-1" d="M472.68,279.36c-.94,1.83-1.63,3.15-2.31,4.48a43.34,43.34,0,0,1-1.2-4.81,19.48,19.48,0,0,1,0-4.45c.19-1.94.35-5.45.91-5.53a18.2,18.2,0,0,1,8.67.49c1.19.45,2,3.72,1.76,5.55-.18,1.46-2,3.11-3.45,3.91C475.77,279.69,473.92,279.3,472.68,279.36Zm-.73-8.89v7.13c2.14-.65,4.1-.85,5.47-1.86.63-.46.61-3.26,0-3.66C476,271.14,474,271,472,270.47Z"/><path class="cls-1" d="M387.68,272.13l-1.24-.55c-2.25-1-5-2.25-6.5.27-1.16,2-1.3,5-1,7.37s2.53,3,4.86,2.75,1.84-2.07,2.09-3.57a9,9,0,0,1,1.21-2.39c.42.77,1.24,1.59,1.17,2.3-.19,1.76-.55,4.84-1.28,5-2.66.49-5.81.71-8.21-.31-3.43-1.45-4.26-7.67-2.16-11.34,1.89-3.32,6.17-4.46,9.93-2.48.85.45,1.36,1.54,2,2.34Z"/><path class="cls-1" d="M440.61,275c0,1,0,2.06,0,3.08-.2,4.34-2,5.95-6.57,5.92-4.25,0-5.85-1.65-5.95-6.1-.06-2.51-.08-5,.06-7.53,0-.58.76-1.11,1.17-1.67.45.53,1.25,1,1.29,1.6.15,2.5.06,5,.11,7.53.05,2.33.93,4.09,3.56,4.1s3.6-1.67,3.67-4c.06-2.17-.09-4.35.1-6.5a9.14,9.14,0,0,1,1.19-2.72,9.89,9.89,0,0,1,1.33,2.55,20.47,20.47,0,0,1,.06,3.76Z"/><path class="cls-1" d="M449,279.26l-2,4.58c-.47-1.43-1.26-2.83-1.34-4.28-.19-3.5-.06-7-.06-10.94,2.22,0,4,0,5.82,0,4.4.1,5.78,1.28,5.85,4.94.07,4-1.49,5.56-5.9,5.7C450.42,279.28,449.52,279.26,449,279.26Zm-.57-8.74v7.16c2.16-.72,4.11-1,5.46-2,.62-.47.55-3.25-.06-3.64C452.33,271.12,450.37,271,448.38,270.52Z"/><path class="cls-1" d="M328.2,280.76a32.29,32.29,0,0,0,5.22,1.14c.78.05,1.63-.92,2.45-1.43-.53-.78-.88-1.82-1.61-2.28-1.33-.86-3.26-1-4.23-2.13-1.14-1.29-2.27-3.4-2-4.86.25-1.21,2.49-2.52,4-2.82,2.28-.44,4.73-.05,5.47,3.14a24.31,24.31,0,0,0-4.52-1c-.83,0-1.68.83-2.51,1.29.47.7.8,1.65,1.46,2,1.36.82,3.25,1,4.26,2.08,1.18,1.24,2.48,3.35,2.16,4.72s-2.45,2.66-4.05,3.21a8.25,8.25,0,0,1-4.67-.42c-.84-.27-1.4-1.4-2.09-2.14Z"/><path class="cls-1" d="M238.2,280.75a21.2,21.2,0,0,0,4.58,1.15c.93,0,1.9-.87,2.85-1.35a10.32,10.32,0,0,0-1.8-2.49,17.33,17.33,0,0,0-3.13-1.37c-2.29-1.09-3.8-2.79-3.07-5.44s3.08-3.28,5.49-2.94c1.8.26,4.29-.1,4.58,3.27a27.21,27.21,0,0,0-4.71-1c-.85,0-1.74.72-2.61,1.13.52.78.86,1.83,1.58,2.28,1.33.85,3.28,1,4.25,2.09,1.13,1.26,2.24,3.35,2,4.82-.24,1.24-2.32,2.53-3.84,3a8.54,8.54,0,0,1-4.69-.36c-.88-.26-1.51-1.37-2.26-2.1Z"/><path class="cls-1" d="M554.44,283.61c0-4.48-.06-8.79.07-13.1,0-.63.9-1.73,1.43-1.76a39.76,39.76,0,0,1,9.15.44c-2,2.93-5.32.76-7.94,2.15,0,1-.09,2.06-.15,3.45l5.69.62c-1.13,3-3.77,1-5.45,2.23v3.89l8,.37C564.1,284.2,562.24,284.46,554.44,283.61Z"/><path class="cls-1" d="M206,268.9h10.21c-1.88,3.27-5.2,1-7.7,2.43v3.41l5.29.8v1.15l-5.22.78v4l8,.4c-1.27,2.16-4.43,2.56-10.59,1.61Z"/><path class="cls-1" d="M323.5,274.88c0,1,0,2.06,0,3.09-.11,4.18-1.82,6-5.69,6.07-4.94.1-6.63-1.32-6.85-5.93a70,70,0,0,1,0-7.53c0-.63.89-1.21,1.36-1.82.38.59,1.05,1.17,1.09,1.78.15,2.51.06,5,.17,7.53s1.16,4,3.76,3.9,3.47-1.86,3.47-4.2-.11-4.58.08-6.85c.06-.76.89-1.46,1.36-2.19a6.43,6.43,0,0,1,1.16,2A29.48,29.48,0,0,1,323.5,274.88Z"/><path class="cls-1" d="M157.5,274.73c0,1.14,0,2.29,0,3.43-.18,4.18-2,5.87-6.24,5.88-4.42,0-6.12-1.5-6.3-5.78-.11-2.62-.09-5.25,0-7.87,0-.57.78-1.1,1.2-1.65.43.55,1.18,1.07,1.22,1.65.16,2.5,0,5,.14,7.53.09,2.31,1,4.07,3.64,4.05s3.58-1.71,3.64-4.06-.07-4.8.08-7.19c0-.69.79-1.33,1.22-2,.45.63,1.19,1.22,1.29,1.9A26.67,26.67,0,0,1,157.5,274.73Z"/><path class="cls-1" d="M266.22,284.31c-3-1.55-5-2.75-7.17-3.67-3.24-1.38-4.32,2.09-6.28,3.56l-.87-.71c2-4.74,3.9-9.48,6-14.16.08-.19,2.32,0,2.53.52C262.36,274.3,264.07,278.85,266.22,284.31Zm-7.51-12-2.36,5.94H261C260.28,276.39,259.69,274.85,258.71,272.3Z"/><path class="cls-1" d="M119.12,284.14c2.2-5.34,3.95-9.91,6-14.35.79-1.74,2.21-1.64,3,.17,1.83,4.42,3.52,8.89,5.56,14.07-1.41-.33-2.43-.26-2.9-.74-3.74-3.8-5.65-3.78-9.36.23C121.09,283.78,120.54,283.76,119.12,284.14Zm9.43-5.82c-.87-2.08-1.5-3.62-2.44-5.88l-2.3,5.88Z"/><path class="cls-1" d="M498.86,283.45c-3.68,1.55-3.27-3.66-6.89-3.19-3,.4-4.21,2.57-6.24,3.89l-.83-.7c1.94-4.67,3.83-9.37,5.9-14,.13-.27,2.37-.16,2.55.24C495.29,274.19,497,278.76,498.86,283.45Zm-7.16-11.09-2.35,5.83H494Z"/><path class="cls-1" d="M363.5,282.18c-.47,2.54-3.2,1.82-5.31,1.82-4,0-6.39-2.69-6.6-7.16-.23-4.77,2.13-8.1,6.08-8.56,3.21-.38,5.16.68,5.57,3.28-2.92-.66-6.17-2.6-8.14,1.23-1.35,2.61-1.6,5.82.66,7.63C357.45,281.77,360.38,281.55,363.5,282.18Z"/><path class="cls-1" d="M524.05,271.17l-5.5-.79.16-1.33h13.76l.19,1.2-5.48,1c0,3.07.12,6.24-.07,9.38-.07,1.1-.92,2.15-1.41,3.22-.55-1.11-1.49-2.2-1.57-3.36C523.9,277.47,524.05,274.4,524.05,271.17Z"/><path class="cls-1" d="M189.43,268.42c3.81,2.35,3.21,7.51,6,11l5.07-11,1.51.71c-2,4.75-3.94,9.5-6.05,14.19-.06.14-2.24-.16-2.46-.67-1.89-4.4-3.56-8.88-5.3-13.34Z"/><path class="cls-1" d="M280.23,283.32h-9.92c0-4.22,0-8.63.06-13.05,0-.51.85-1,1.3-1.5.36.61,1,1.21,1,1.82.1,3.52.05,7,.05,10.89l7.47.45Z"/><path class="cls-1" d="M181,276.34c0-1.94-.09-3.89.05-5.82,0-.61.68-1.19,1.05-1.78.48.61,1.36,1.21,1.38,1.84.13,3.88.12,7.76,0,11.64,0,.55-.83,1.08-1.28,1.61-.4-.55-1.11-1.09-1.16-1.67C180.86,280.23,181,278.28,181,276.34Z"/><path class="cls-1" d="M346.36,276.4c0,2,.1,3.9-.05,5.84-.05.56-.79,1.07-1.21,1.6-.45-.55-1.25-1.08-1.27-1.64q-.15-6,0-12c0-.49.95-1,1.45-1.44.35.5,1,1,1,1.49C346.43,272.27,346.36,274.34,346.36,276.4Z"/></g></g></svg>