<svg xmlns="http://www.w3.org/2000/svg" viewBox="0 0 3577.83 498.68"><defs><style>.cls-1{fill:#2084c0;}</style></defs><g id="Layer_2" data-name="Layer 2"><g id="Layer_1-2" data-name="Layer 1"><path class="cls-1" d="M1583.75,498.6c-39.06,1-69.62-7.6-99.37-21.47-40.25-18.77-76.38-43.3-109.64-72.48-38.55-33.84-57.16-77.75-63.74-127.18-8.81-66.24-.25-128.84,42.78-183.27C1380,61.08,1416,41.83,1453,24.07c14-6.74,29.18-11.07,43.8-16.53,33.36-12.46,66.42-7.37,100,.14,20.09,4.5,37.06,11.89,49.66,28.77,2.43,3.26,9,3.64,13.75,4.94C1697,51.45,1734.68,59,1770.4,72.06c40.35,14.73,61.59,47.16,69.89,89.2,7.53,38.16-1,73.26-14.87,108.24-9.28,23.38-16.63,47.53-25.72,71-8.8,22.69-19,43.93-36.27,62.76-35.19,38.42-76.06,67.22-125.11,83.76C1619,493.54,1598.14,495.65,1583.75,498.6Zm23-268.32-5.78-1.45c-1-4.71-2.22-9.38-2.93-14.13-1.87-12.48-2.78-25.15-5.43-37.45-3.9-18.11-17.84-28.81-33.56-25.45a450.44,450.44,0,0,0-50.23,13.52c-37,12.52-65,42.84-65,85.83,0,18.7-5.66,37.78-11.27,55.92-2.79,9-2.31,14.92,3.28,21.84,18.87,23.4,44,37.95,70,52,63.19,34.3,118,9.25,170.75-39.48,33.06-30.52,47.88-71.5,56.87-114.73,4.52-21.77-3.91-42-24.08-51.43a385.79,385.79,0,0,0-46.54-17.7c-27.5-8.72-50.33,11.15-48.24,36.95a77.91,77.91,0,0,1-1.08,21.13C1612.46,220.8,1609.1,225.43,1606.79,230.28Z"/><path class="cls-1" d="M982.2,154.84c28.8,1.32,57.16.58,84.86,4.53,22.86,3.26,39.16,18.21,45,41.88,6.24,25.17-.69,43.32-24.38,64.13.56,1.14.86,3.07,1.83,3.5,23.52,10.49,36,36.89,30.18,65-5.26,25.38-25.75,44.66-54.81,47.07-27,2.25-54.41.48-82.71.48Zm20.62,208.43c17,0,32.62.23,48.19-.13a71,71,0,0,0,16.42-2.71c21-5.63,33.06-21.27,32.54-41.78-.52-20.74-13.3-36.95-35-39.17-20.3-2.07-41-.44-62.19-.44Zm.12-188.77v84c16.3,0,31.83.21,47.34-.05,24.33-.4,40.64-15,42.92-38.1,2.08-21-10.62-38.49-34.35-42.56C1041.14,174.74,1022.78,175.51,1002.94,174.5Z"/><path class="cls-1" d="M3424.15,156.24c30.53,0,59.4-1.11,88.16.29,35.56,1.72,61.28,27,63.38,59.68,2.29,35.63-19,62.19-55.9,69.6l-14.62,3c24.54,31.1,48.15,61,72.66,92-15,3.35-25.45,2.76-34.47-10-15.14-21.44-33.56-40.63-48.08-62.44-12.33-18.52-27-25.78-50.42-19.05v92.32h-20.71Zm21.25,19.36v91.8c22,0,43.1.76,64.16-.19,26.22-1.18,44.08-19.56,44.8-44.3s-17.83-45.47-43.94-47C3489.33,174.59,3468.09,175.6,3445.4,175.6Z"/><path class="cls-1" d="M659,380.56c-15.22,5.55-22.54.56-28.17-13.66-11.82-29.85-3.78-23.63-34.85-24.07-29.37-.41-58.76.28-88.13-.3-9.52-.19-15.38,2.26-17.78,11.87-1.09,4.36-3.95,8.27-5.08,12.62-3.61,13.91-11.87,18.89-27.49,13.65,1.63-4.45,3.06-9,4.9-13.31,27.92-66.09,55.73-132.22,84.16-198.09,2.31-5.35,8.89-8.87,13.48-13.24,4.11,4.37,9.88,8,12.06,13.22C600,235.38,627.27,301.72,654.66,368,656.35,372.11,657.59,376.38,659,380.56ZM504.1,321.94H612.62C594.8,278.59,577.72,237.07,559.2,192Z"/><path class="cls-1" d="M2916.13,156.87h21.22V174c0,43-.42,85.92.14,128.87.58,44.81,34.77,71.46,77.39,61.2,26.77-6.44,43.88-28.91,44.18-59.66.42-43.46.12-86.93.13-130.39V156.89h20.39c.32,5,.85,9.37.85,13.78.06,43.46.25,86.93,0,130.39-.34,51.61-33,85.5-82,85.62-48.81.12-82.05-34.37-82.2-85.61C2916,253.64,2916.13,206.2,2916.13,156.87Z"/><path class="cls-1" d="M2466.14,156.88h124.92v18.56H2487.17v81.95h100v19.93h-100v85.39h104.59v18.84H2466.14Z"/><path class="cls-1" d="M143.21,177.64l-10.75,12.53c-14.47-5.9-27-12.93-40.46-15.87-9.8-2.13-21.25-.45-31.12,2.4-13.09,3.78-20.72,14.17-22.37,28-1.59,13.24,3.3,24.42,14.63,31.11s23.59,11.4,35.49,16.92c10.54,4.88,21.66,8.76,31.57,14.68,25,14.9,34.51,37.88,29.88,65.93-4.43,26.82-21.91,42.78-47.89,48.77C62.81,391.14,29.82,378.82,0,350l15-13.7c6.69,5.09,12.68,10.37,19.35,14.6C54.92,364,77.08,369,100.92,361.25c15-4.9,25.29-15.1,28.3-30.84,3.2-16.8-2-31.64-16-41.43-9.8-6.83-21.35-11.21-32.26-16.39-12.31-5.84-25.37-10.35-37.06-17.2-20.26-11.89-29.39-30.48-26.08-53.8C21,179,34.66,164.34,56,156.76,84.49,146.65,120,154.72,143.21,177.64Z"/><path class="cls-1" d="M2066.93,175.87V381.19h-20.75V176.34h-75.79v-19.1h171.76v18.63Z"/></g></g></svg>