<svg xmlns="http://www.w3.org/2000/svg" viewBox="0 0 507.88 107.83"><defs><style>.cls-1{fill:#be2226;}</style></defs><g id="Layer_2" data-name="Layer 2"><g id="Layer_1-2" data-name="Layer 1"><path class="cls-1" d="M0,2.25c17.58-6,26,0,29.74,17.52C33.37,36.82,40,53.22,46.82,74.42c7.61-24.13,14.56-43.5,19.71-63.32C70.4-3.79,81.21.72,90.18,1.08c4.69.2,2.47,5,1.47,7.89-3.47,10.21-7.06,20.39-11.54,33.29,14.56-11,28.74-16.9,45.31-14.62,19.21,2.65,24.79,8.65,24.91,28.09.08,12.24-2,25,.62,36.61,3.12,13.78-4.11,15.4-12.47,12.27-8.79-3.29-15.33-1-23,1.61a31.84,31.84,0,0,1-22.81-1.11c-9.46-4-13.12-11-13.2-20.92-.07-9.73,4.84-16.26,13.13-19.29,7.17-2.61,15.15-3,22.8-4.26,5.5-.87,11.44-1.25,13.86-7.25,1.66-4.11-.5-7.4-4.33-9.67-6-3.52-13.71-4.12-16.87.88-5.94,9.4-13.91,9.57-22.69,8.81-7-.6-10,3.15-11.77,9-2.78,9-5.67,17.93-8.47,26.91s-4.76,16.36-18.15,16.58C32.7,106.11,31,98.33,28,88.62,18.88,59.68,9.31,30.88,0,2.25ZM129.82,78.07c-.57-3.3,1.35-8.84-5.46-7.09-9.06,2.33-21.83-.56-23.88,13-1,6.33,5.27,9.48,11.33,9.67C122.27,94,128.48,88.86,129.82,78.07Z"/><path class="cls-1" d="M286.64,35.73c0-8.44.06-15.58,0-22.71C286.55,6.34,285.15.2,296.15.19c10.63,0,11.38,4.54,11.19,13-.46,20.6-.15,41.22-.15,64.48,10.78-12.75,23.57-16.86,38-17.05,5.63-.07,11.28-1.33,13.89-7.3,2-4.5-.92-7.55-4.32-9.65-5.8-3.58-13.62-4-16.93,1-6.05,9.08-13.67,10.08-22.65,8.5-3.47-.61-2.88-4-2.06-6.85,3-10.44,11.25-14.56,20.76-17.07a54.85,54.85,0,0,1,29.61.36c11.72,3.34,17.71,10.26,17.41,22.87-.36,15,0,30.08.16,45.12.06,4,.85,9.29-5.17,7.37-14.61-4.67-28.19,1.89-42.25,2.45-10.84.43-19-4.94-25.64-17.88,0,11.51-3.72,20.9-12.78,15.08-10.56-6.79-16.65,1.13-24.79,2.47-14.54,2.4-26.29-2.53-34.15-15.37-10.35-16.9-9.13-38.83,3.11-52.75C249.84,27,262.48,24.25,277,30.82,279.89,32.14,282.67,33.7,286.64,35.73Zm.6,31.54c-1-11.53-2.88-22.48-17.66-23.35-11.64-.7-19.24,9.11-19,23.81s8,24.25,19.6,23.41C285.23,90,286.24,78.66,287.24,67.27Zm64,3.81c-6.65,3.84-20.07-1-20.46,13.3-.23,8.12,6.65,9.6,13,9.27,10.77-.56,15.38-7.5,16.19-17.58C360.52,69.52,355.89,71,351.27,71.08Z"/><path class="cls-1" d="M451,107.54c-23.62,0-39.79-16.19-39.83-39.89,0-23.39,16.62-40.29,39.69-40.24,23.3.05,40.65,16.68,39.46,40.19C489,93.76,474.57,107.19,451,107.54Zm17.92-38.87c-.72-10.22.06-23.17-16.3-24.69-15.08-1.4-19.32,9-19.53,21.13-.21,11.59-.42,24.62,16.15,26C464.28,92.42,468.13,82.56,468.93,68.67Z"/><path class="cls-1" d="M156.56,67c0-8.37.86-16.83-.18-25.06-2-15.69,12.52-14.88,16-10.89,7.39,8.42,10.87,1.21,15.38-.68,21.14-8.9,38.34,1.49,39.22,24.46.51,13.35-.29,26.77.38,40.11.4,8-2,10.57-10.18,10.3-7.35-.26-11.23-1.19-10.62-10,.81-11.65.31-23.4.11-35.1-.15-8.55-2.75-15.53-12.94-16.08-9.66-.53-14.28,5.41-15.92,13.78-1.06,5.4.74,11.64-1.2,16.52-4,10,11.36,29.47-9.47,29.71-23.39.27-4.6-20.76-10.47-30.48C155.71,72,156.56,69.27,156.56,67Z"/><path class="cls-1" d="M387.32,51.31c0-13.91.51-27.85-.19-41.72C386.64,0,392.19.93,398.6.48c7.77-.56,9.22,2.76,9.14,9.64-.29,28.38-.46,56.77.09,85.13.16,8.59-3.12,10-10.65,10.1-8.32.18-10.28-3-10-10.64C387.7,80.26,387.33,65.78,387.32,51.31Z"/><path class="cls-1" d="M498,85.19c4.69,1.07,9.17,3,9.79,8.89s-2.11,9.66-8.07,10.33c-6.5.73-11-2.3-11.33-8.92C488.07,89.66,492.55,87,498,85.19Z"/></g></g></svg>