<svg xmlns="http://www.w3.org/2000/svg" viewBox="0 0 376.58 383.14"><defs><style>.cls-1{fill:#f9bc15;}</style></defs><g id="Layer_2" data-name="Layer 2"><g id="Layer_1-2" data-name="Layer 1"><path class="cls-1" d="M173.45,0h28.44c.2.83.88.68,1.47.73a144.16,144.16,0,0,1,37.4,8A160,160,0,0,1,347.91,173a157.07,157.07,0,0,1-30.4,81.67c-1.87,2.55-3.81,5.05-6.12,8.09a66.54,66.54,0,0,1,15.46.9c31.77,6.07,52.41,33.58,49.44,65.76-2.73,29.68-28.75,53.65-58.55,53.67q-129.42.09-258.84.05a52.39,52.39,0,0,1-10-1A60.66,60.66,0,0,1,0,324.4c-.77-27.73,18.1-52.51,45.4-59.71,6.37-1.69,12.89-2,19.44-2.07,0-1.31-.81-1.79-1.32-2.44C30.86,218,19.73,170.61,33.9,119.31,51.38,56,93.81,17.4,158,2.83,163.11,1.66,168.47,1.91,173.45,0Zm15.19,275H62.24A61.54,61.54,0,0,0,50,276c-24.7,5-42,30.83-37,55.27,5,24.24,24,39.82,48.78,39.82H315a60.23,60.23,0,0,0,7.82-.56,48,48,0,0,0,39.31-62.76c-6.64-20-24.8-32.84-46.68-32.85Q252,274.91,188.64,275ZM78.18,154c11.34,0,22.69-.09,34,.07,2.83,0,3.72-.58,3.75-3.61a273,273,0,0,1,4-44.22c.72-4.12-.76-4.65-3.87-5.34-17.63-3.88-34.72-9.37-50.67-18-2-1.1-2.86-.74-4,1.11a147.22,147.22,0,0,0-20.65,67c-.16,2.65.64,3.09,3,3.07C55.24,154,66.71,154,78.18,154Zm220.06,0c11.6,0,23.19,0,34.79,0,2.3,0,3.22-.31,3.05-3a150,150,0,0,0-2.49-19.6,145.8,145.8,0,0,0-18.4-47.65c-.75-1.23-1.22-2.22-3-1.22C295.48,91.71,277.52,97.31,259,101.4c-1.73.39-2.87.65-2.45,3a293.77,293.77,0,0,1,4.32,46.81c0,2.29.61,2.91,2.93,2.89C275.31,154,286.78,154,298.24,154ZM78.1,166.09c-11.58,0-23.17,0-34.76,0-2,0-2.71.35-2.59,2.62A143.12,143.12,0,0,0,44,192.28,145.8,145.8,0,0,0,61.37,236c.72,1.2,1.12,2.62,3.33,1.42,16.81-9.12,34.84-14.86,53.48-18.8,2.4-.5,2.27-1.68,2-3.44a302.44,302.44,0,0,1-4.22-46c0-2.38-.58-3.11-3.06-3.08C101.28,166.17,89.69,166.09,78.1,166.09Zm220.48,0c-11.46,0-22.93.09-34.39-.06-2.59,0-3.26.59-3.3,3.23A299.22,299.22,0,0,1,256.71,215c-.39,2.25-.13,3.15,2.46,3.72,18.21,4,36,9.44,52.4,18.5,2.13,1.17,2.94.49,4-1.29a146.87,146.87,0,0,0,20.5-67c.14-2.37-.4-2.9-2.71-2.87C321.76,166.16,310.17,166.09,298.58,166.09ZM221.43,16.76a105.69,105.69,0,0,1,10.4,14.09c10.69,17.47,17,36.63,21.55,56.42.45,1.93.83,2.93,3.06,2.41C272.92,85.86,289,81,304.16,73.26c2.27-1.16,2.8-1.87,1-4.16C284.3,43,257.84,25.43,225.52,16.78,224.23,16.44,223,16,221.43,16.76Zm-66.71.08c-1.25-.85-2.4-.3-3.57,0-32.3,8.65-58.73,26.2-79.52,52.35-1.57,2-1.47,2.75.82,3.92C86.78,80.47,102,85.32,117.57,89c5.24,1.23,5.18,1.12,6.51-4.34,5.89-24.18,14-47.35,30.37-66.79C154.65,17.63,154.63,17.2,154.72,16.84Zm39.69,37.84c0,13,.07,25.93-.06,38.89,0,2.51.71,3.1,3.1,3,14.06-.64,28.08-1.72,42-3.72,2-.3,2.55-1.06,2.07-2.9-1-4-1.89-8-3-11.89C233.41,60.43,227,43.39,215.61,28.72c-4.86-6.24-10.5-11.59-18-14.77-2.7-1.15-3.31-.67-3.28,2.21C194.48,29,194.41,41.84,194.41,54.68Zm-12,.33c0-13-.07-25.93.06-38.9,0-3-.74-3.23-3.33-2.13C171.55,17.19,165.82,22.65,161,29c-13.74,18.11-20.5,39.21-25.69,61-.37,1.55-.2,2.53,1.77,2.8,14.19,2,28.45,3.2,42.77,3.77,2.14.09,2.67-.57,2.66-2.66C182.38,80.93,182.43,68,182.43,55Zm-27.28,99c8.22,0,16.43,0,24.65,0,1.73,0,2.7-.14,2.68-2.33-.1-13.69-.07-27.39,0-41.08,0-1.6-.47-2.16-2.11-2.16-15.33,0-30.52-1.66-45.67-3.88-1.65-.24-2.24-.12-2.57,1.8-2.57,15-3.51,30.12-4.23,45.28-.11,2.21.87,2.38,2.62,2.37C138.72,154,146.93,154,155.15,154Zm66.64,0c8.11,0,16.21,0,24.32,0,1.86,0,3-.09,2.84-2.52-.72-14.81-1.69-29.58-4.06-44.25-.44-2.71-1.41-3-3.75-2.6a288.81,288.81,0,0,1-44.24,3.78c-1.94,0-2.55.56-2.53,2.54q.12,20.2,0,40.4c0,2.18.66,2.7,2.74,2.67C205.33,154,213.56,154,221.79,154Zm-66.48,12.05c-8.22,0-16.44,0-24.66,0-1.91,0-2.89.17-2.77,2.54.75,15,1.67,30.05,4.23,44.92.32,1.88.92,2.26,2.57,2a311.14,311.14,0,0,1,45.3-4.05c2.3-.06,2.5-1.06,2.49-2.95-.07-13.2-.11-26.4,0-39.6,0-2.35-.61-2.9-2.89-2.85C171.51,166.18,163.41,166.09,155.31,166.09Zm66.42,0c-8.09,0-16.19.09-24.28-.05-2.37,0-3.13.5-3.1,3q.19,19.6,0,39.22c0,2.44.68,3.12,3.05,3.18a306.45,306.45,0,0,1,44.55,4c1.74.3,2.46,0,2.81-2.11,2.52-14.88,3.45-29.88,4.19-44.92.11-2.19-.78-2.39-2.56-2.38C238.17,166.13,230,166.09,221.73,166.09Zm-86.85,61.63a209.4,209.4,0,0,0,9.89,33.53c.75,1.95,2,1.45,3.28,1.45,10.47,0,20.93-.06,31.4.09,2.48,0,3.06-.69,3-3.09-.13-11-.15-21.93,0-32.89,0-2.62-.61-3.27-3.26-3.21A326.38,326.38,0,0,0,134.88,227.72ZM242,227.65a323.68,323.68,0,0,0-44.67-4c-1.75,0-3-.18-3,2.36.14,11.46.09,22.92,0,34.38,0,1.68.29,2.4,2.21,2.39,11-.09,21.92-.07,32.89,0A2.4,2.4,0,0,0,232.2,261,214.8,214.8,0,0,0,242,227.65Zm2.62,35.08h36.63c14.82,0,14.77,0,23.94-11.67,1.68-2.13,1.55-3-.91-4.22A190.29,190.29,0,0,0,262,231.72c-7.86-1.9-7.91-2-9.71,5.58C250.22,245.83,247.54,254.18,244.59,262.73Zm-112.25,0a217.74,217.74,0,0,1-9-30.73c-.42-2-1.42-1.9-2.89-1.59-16.76,3.63-33,8.77-48.31,16.63-1.75.9-2.55,1.64-.91,3.46,3.17,3.51,6.2,7.13,9.24,10.75a3.74,3.74,0,0,0,3.17,1.5C99.74,262.71,115.79,262.73,132.34,262.73Z"/><path class="cls-1" d="M188.41,317.79c-3.75,10.5-7.14,19.94-10.47,29.39-1,2.93-2.65,5.14-6,5.19s-5.11-1.91-6.18-4.92c-5.29-14.95-10.66-29.88-16-44.82-1.1-3.1-.89-5.93,2-8A5.62,5.62,0,0,1,159,295c1.45,1.13,2,2.81,2.53,4.46,3.31,9.33,6.66,18.64,10.24,28.66,1.68-4.6,3.18-8.62,4.63-12.67,2-5.59,4.08-11.17,6-16.82,1-3.06,2.92-5.08,6.13-5.05s5,2.1,6.06,5.15c3.08,8.9,6.33,17.74,9.52,26.6.24.68.56,1.34,1.09,2.57,3.71-10.33,7.22-20.13,10.73-29.93,1.11-3.08,3.35-4.73,6.56-4.32a5.65,5.65,0,0,1,5.21,5.49,10.12,10.12,0,0,1-.8,4c-5.15,14.61-10.35,29.2-15.5,43.82-1.07,3-2.62,5.46-6.2,5.48-3.75,0-5.29-2.47-6.4-5.68C195.52,337.37,192.12,328.11,188.41,317.79Z"/><path class="cls-1" d="M90,317.84c-3.46,9.66-6.76,18.85-10.06,28-.21.59-.44,1.16-.62,1.75-.92,2.91-2.76,4.71-5.92,4.76s-5-1.89-6-4.68q-8.1-22.77-16.12-45.57c-1.35-3.86.07-6.89,3.53-8.17s6.42.31,7.85,4.21c3.28,9,6.47,18,9.66,27a4.45,4.45,0,0,0,1.33,2.38c3.37-9.47,6.75-18.86,10-28.29,1.11-3.21,2.82-5.74,6.47-5.68,3.45.05,5.13,2.49,6.19,5.56,3.3,9.45,6.68,18.88,10.31,29.1,2.73-7.63,5.23-14.6,7.71-21.57,1-2.91,2-5.87,3.12-8.75,1.41-3.57,4.53-5.1,7.71-3.95,3.5,1.26,5,4.3,3.64,8.13q-8,22.83-16.13,45.58c-1,2.79-2.79,4.76-6,4.73s-4.94-1.79-6-4.7C97.28,337.87,93.72,328.1,90,317.84Z"/><path class="cls-1" d="M303.43,328.14c2.69-7.5,5.2-14.46,7.69-21.43,1-2.92,2-5.87,3.11-8.76,1.42-3.6,4.46-5.12,7.67-4,3.5,1.21,5,4.27,3.68,8.09q-8,23-16.26,45.92c-.95,2.65-2.8,4.44-5.81,4.43s-5-1.76-6-4.66c-3.47-9.8-7-19.58-10.72-29.9-3.61,10.14-7.08,19.79-10.48,29.46-1,2.8-2.55,4.87-5.71,5.09s-5.24-1.47-6.26-4.31Q256,325,247.9,301.82a5.81,5.81,0,0,1,3.66-7.84c3.35-1.23,6.45.32,7.88,4.2,3.29,8.95,6.47,17.95,9.66,26.95a4.15,4.15,0,0,0,1.33,2.37c3.34-9.32,6.75-18.56,9.94-27.87,1.14-3.35,2.7-6.12,6.53-6.07s5.29,2.93,6.42,6.24C296.49,309.06,299.88,318.24,303.43,328.14Z"/><path class="cls-1" d="M139.19,340.42c3.6,0,6.35,2.46,6.45,5.8a6.25,6.25,0,0,1-6.53,6.18,5.85,5.85,0,0,1-6.1-6.06C133,342.78,135.46,340.43,139.19,340.42Z"/><path class="cls-1" d="M237.61,340.42c3.73,0,6.19,2.33,6.22,5.89a5.86,5.86,0,0,1-6.07,6.09,6.23,6.23,0,0,1-6.56-6.14C231.28,342.9,234,340.42,237.61,340.42Z"/></g></g></svg>