<svg xmlns="http://www.w3.org/2000/svg" viewBox="0 0 302.46 164.81"><defs><style>.cls-1{fill:#70c16d;}</style></defs><g id="Layer_2" data-name="Layer 2"><g id="Layer_1-2" data-name="Layer 1"><path class="cls-1" d="M34.57,164.81c-.68-1.36-2.17-1.37-3.31-1.9-5.81-2.71-7-5-5.79-11.25,2.1-10.51,4.11-21,6.5-31.48a10,10,0,0,0-1.34-8.35A439.48,439.48,0,0,1,1,54.77c-1.71-3.91-1.17-7,1.35-10a28.24,28.24,0,0,1,12.21-9C20,33.74,22,34.65,24,40Q31.1,59.3,38.12,78.59c.26.72.63,1.41,1.44,3.22,2.12-10.21,4-19.36,5.91-28.51,1.45-7.11,2.8-14.24,4.29-21.34,1.68-8,8.24-13.31,18.29-15,.33-.05.66-.05,1-.09,11-1.45,12.31.07,9.46,10.72q-17.56,65.67-35,131.38c-.58,2.18-1,4.38-3,5.87Z"/><path class="cls-1" d="M302.46,16.89q-8.16,17.94-16.34,35.88c-1,2.25-2.16,4.46-3.27,6.67-2.88,5.74-8.32,7.13-13.77,3.58-1.88-1.23-2.74-2.74-2.09-5,4.44-15.7,8.89-31.39,13.24-47.11a4.9,4.9,0,0,1,4.66-3.77c6.67-.64,12.88.35,17.57,5.8Z"/><path class="cls-1" d="M106.45,55c5.51-1.53,10.54-3,15.59-4.3,4.63-1.23,5.89-.24,6.16,4.62.46,8.23-2.93,13.11-10.67,15.38-17.18,5-17.18,5-22.1,22.29-.53,1.87-1,3.77-1.62,6.22,7.78-3,15-5.94,22.36-8.73,4.92-1.87,7.16-.13,6.8,5.14-.49,7.26-3,10.23-10,12.82a315.79,315.79,0,0,0-33,14.79c-3.63,1.84-6.4,2-9.42-.54-3.18-2.7-5.4-5.63-4.36-10.25q6.35-28.24,14.63-56c3.23-10.9,6.92-21.66,10.4-32.49,2.06-6.43,5.91-10.61,12.91-12.22,12.1-2.77,24.18-5.51,36.51-7,4.9-.59,6.25.65,6.42,5.56.33,9.65-4.15,15.35-13.59,17.36-5.49,1.17-11,2.5-16.47,3.58a5.55,5.55,0,0,0-4.93,4.64C110.52,42.11,108.51,48.17,106.45,55Z"/><path class="cls-1" d="M173,82.37c.34-7.39.39-6.54-6.45-6.18-9.62.52-11.91,6.47-13.65,14.16s-6,10.53-13.8,10.93c-6.68.34-8.37-1.59-6.62-8,4.62-17,10.27-33.76,16-50.45,3.65-10.6,7.62-21.1,11.17-31.73a13.27,13.27,0,0,1,8.75-8.75,34.74,34.74,0,0,1,19.11-1.14c7.39,1.57,9.54,4.76,9,12.35q-1.34,18-2.51,36.1c-.15,2.44-1.13,5.63,3.45,5.15,1.13-.11,1.41,1.18,1.78,2.1,2.06,5.1-.18,11.91-5,14.49-1.45.77-1.2,1.77-1.29,2.84-.18,2.3-.15,4.63-.45,6.92A12.41,12.41,0,0,1,175.65,91C170.78,89.15,173.66,85,173,82.37ZM161.92,59.64c3.83-.66,7.18-1.32,10.57-1.78,1.92-.26,2.33-1.36,2.45-3,.7-9.71,1.49-19.41,2.16-29.12.09-1.33.89-3.28-1.19-3.76-2.25-.52-3.26,1.2-3.81,3C168.74,36.32,165.43,47.68,161.92,59.64Z"/><path class="cls-1" d="M232.19,51.63c7.44-.15,7.36-.17,8.63-8,1.9-11.72,4-23.41,5.86-35.13.57-3.58,2.74-5.23,6-5.52a35.46,35.46,0,0,1,8.43.12c7.53,1.15,9.48,4.23,7.55,11.55Q260.12,47,251.54,79.2c-1.19,4.47-3.76,5.47-10.32,4.2-4.2-.81-5.74-3.1-5.08-7.44,1.39-9.17,1.25-8.79-7.87-8.79-5.33,0-7.36,2.12-7.62,7a21.6,21.6,0,0,1-.71,2.88c-1.66,8.39-5,10.66-13.72,9.46-3.63-.51-5.33-2.41-5-6q3.09-32.28,6.23-64.58c.14-1.48.2-3,.39-4.44.48-3.67-.17-8,4.43-9.66,5.58-2,11.29-2.75,16.81.22a4.53,4.53,0,0,1,2.32,5c-2,13.21-3.74,26.47-6.14,39.61-.83,4.55.23,5.68,4.43,5A15.78,15.78,0,0,1,232.19,51.63Z"/><path class="cls-1" d="M269.64,83.36c-4.48,0-8.68-3.6-8.86-7.71-.15-3.45,3.63-7,7.59-7.09,4.54-.12,9.27,4,9.17,8C277.46,80.05,273.65,83.32,269.64,83.36Z"/></g></g></svg>