<svg xmlns="http://www.w3.org/2000/svg" viewBox="0 0 2558.71 370.8"><defs><style>.cls-1{fill:#ed2325;}.cls-2{fill:#c6c6c6;}.cls-3{fill:#fefefe;}</style></defs><g id="Layer_2" data-name="Layer 2"><g id="Layer_1-2" data-name="Layer 1"><path class="cls-1" d="M232.79,370.8c-1.85-1.09-3.92-.6-5.86-.62-35.48-.38-70.94-1.36-106.37-3.43-17.78-1-35.57-2.25-53.15-5.23C35.07,356,14.74,335.91,8.89,303.36.37,255.89-.82,207.94.41,159.9,1.1,132.5,2.64,105.14,6.91,78c1.55-9.83,3-19.74,7.16-28.88,10.58-23.4,29-36.47,54.3-40.18,39.48-5.78,79.29-6.64,119.07-7.82q77.69-2.32,155.38,0c35.63,1,71.25,2.13,106.71,6,9.41,1,18.89,2.09,27.84,5.42,25.19,9.36,39.25,27.85,44.32,53.79,4.82,24.69,6.54,49.68,7.88,74.72a882.35,882.35,0,0,1-2,119.48c-1.3,15.87-3.11,31.7-6.73,47.27-7.08,30.49-28.32,49.78-59.63,54-48.8,6.58-97.94,7.11-147,8.18-5.46.12-10.95-.43-16.36.79ZM350.1,185.34c-2.16-1.28-3.57-2.14-5-3q-64-36.85-128-73.68c-5-2.86-5-2.85-5,3q0,73.7,0,147.41c0,1.56-.53,3.25.73,5.15Z"/><path class="cls-2" d="M2558.71,288.08c-2.3,4.28-1.94,9.15-2.92,13.73-5.93,27.72-22.92,42.61-51.22,45.22a120.79,120.79,0,0,1-35.27-1.42c-21.62-4.36-34.24-18.27-40.49-38.77-5.08-16.69-6.46-33.9-6.76-51.14-.41-23.57-1-47.17.8-70.73,1-13.07,3.14-25.93,7.57-38.38,8.51-23.85,25.78-36.28,50.57-38.72a111.6,111.6,0,0,1,33.33,1.23c23.45,4.78,37,19.07,41.25,43.32a154,154,0,0,1,1.36,41.19c-.25,2.54-.71,3.66-3.65,3.81-13,.68-25.93,1.59-38.87,2.65-3.08.26-3.64-.8-3.61-3.52.13-11.46,0-22.92-2-34.26a57.37,57.37,0,0,0-2-8.17c-2.67-7.86-6.85-11.06-14.05-11s-11.37,3.21-14.13,11-3.46,15.91-3.65,24q-1.16,49.57,0,99.16c.18,8.08.91,16.21,3.57,24,2.11,6.22,5.86,10.31,12.76,10.76,7.54.5,12.95-2.57,16.07-9.34,3-6.59,3.86-13.7,4.38-20.81.48-6.62.83-13.27.76-19.9,0-3.52,1.29-4,4.33-3.82,14,.79,27.94,1.38,41.91,2.05Z"/><path class="cls-2" d="M1926.27,87.2q-3.66,18.66-7.31,37.33-14.2,73.41-28.4,146.84c-4.47,23.09-9.08,46.16-13.4,69.28-.54,2.9-1.65,3.36-4.18,3.34-12.83-.09-25.66-.28-38.48.1-4,.12-4.57-1.79-5.14-4.73q-8.07-41.44-16.24-82.89-14.28-72.63-28.56-145.27c-1.59-8.09-3.09-16.19-5.31-24.23v5.94q0,122.84.09,245.69c0,4.19-.71,5.63-5.3,5.48-11.81-.39-23.66-.32-35.48,0-4.19.1-5.53-.71-5.51-5.3q.27-103.65.12-207.31c0-33.39.08-66.79-.1-100.17,0-4.15,1.1-5.22,5.23-5.18,21.49.21,43,.16,64.47,0,3.34,0,4.79.57,5.54,4.32,10.12,50.16,21.41,100.09,30.3,150.49,5.12,29.06,9,58.33,12.47,87.64.24,2-.21,5.41,1.89,5.5,2.76.12,1.86-3.24,2.14-5.18,7.81-54.95,15.88-109.87,27.54-164.19,5.18-24.12,9.75-48.37,14.37-72.61.84-4.42,2.22-6.15,7.22-6.06,21.49.37,43,.23,64.47.08,3.39,0,4.51.74,4.51,4.34q-.15,154.74,0,309.48c0,3.25-.84,4.15-4.11,4.1-12.32-.2-24.66-.28-37,0-4.17.1-5.15-1-5.15-5.15q.21-122.85.1-245.69V87.3Z"/><path class="cls-2" d="M1406.3,137.08c8.15-14,18.29-23.57,32.58-27.54,22.7-6.3,46.16-.44,55.41,27.22,5.39,16.1,7.09,32.73,7.66,49.46q1.35,39.35,0,78.72c-.58,17.43-2.71,34.76-9,51.21-6.87,17.93-18.76,30.26-39.12,31.14-19.76.86-36.18-5.9-47.22-23.14-.43-.67-.59-1.59-2.12-1.82-1.44,5.93-3,11.9-4.33,17.91-.57,2.55-1.41,3.86-4.51,3.8q-18-.35-36,0c-3.48.07-4.08-1.14-4.06-4.24.1-25.75.06-51.49.06-77.24q0-121.09-.13-242.2c0-4.9,1.29-6,6-5.92,13.31.35,26.65.3,40,0,4.11-.09,4.81,1.29,4.79,5-.13,37-.08,74.09-.08,111.13Zm0,94.28q0,31.11,0,62.22c0,1.46-.23,3.17.42,4.36,4.16,7.66,11,11.34,19.48,11.82,7.52.43,13.13-3,16.56-9.7a45.35,45.35,0,0,0,4.49-16.17c3.68-36.75,2.62-73.55.74-110.33a53.69,53.69,0,0,0-4.34-19.29c-3.78-8.44-11.36-11.7-20.08-8.7-9.14,3.13-17.27,14.4-17.28,24.07Q1406.28,200.5,1406.3,231.36Z"/><path class="cls-2" d="M1278.49,314.91c-2.83,4.31-4.86,7.7-7.17,10.87a53.85,53.85,0,0,1-59.81,19.83c-13.59-4.28-21.17-14.23-25.15-27.36a91.39,91.39,0,0,1-3.95-26.46c-.08-58.62,0-117.25-.18-175.87,0-3.67,1.18-4.29,4.51-4.24,14.32.18,28.65.24,43,0,4.14-.08,5.24,1,5.23,5.17q-.23,80.46-.07,160.92c0,7-.13,13.94,1.37,20.82,2.29,10.51,8.57,14.33,19.06,11.53s16.39-10.32,16.39-21.11q0-85.94-.1-171.87c0-4.39,1-5.57,5.48-5.47,14.31.31,28.64.18,43,.06,2.92,0,4.35.27,4.34,3.88q-.18,112.35,0,224.69c0,3.23-1,3.79-3.93,3.74-11.16-.16-22.32-.23-33.47,0-3.43.08-4.18-1.32-4.58-4.19C1281.26,331.89,1279.91,324,1278.49,314.91Z"/><path class="cls-2" d="M2104,314.91c-3,4.58-5.09,8.13-7.53,11.43a54,54,0,0,1-60.06,19.1c-13.24-4.35-20.43-14.16-24.44-26.81-3.5-11.05-4.15-22.44-4.14-33.93q0-84.22-.09-168.45c0-3.81,1-4.65,4.71-4.59q21.48.34,43,0c4-.07,4.94,1,4.93,4.94q-.19,80.73-.07,161.46c0,7,0,14,1.57,20.81,2.33,10.09,8.28,13.72,18.38,11.24,10.87-2.67,16.94-10.25,16.94-21.17,0-57.14.07-114.29-.13-171.43,0-5,1.38-6,6.09-5.88,14,.34,28,.23,42,.05,3.47-.05,4.85.44,4.84,4.46q-.21,111.88,0,223.76c0,3.21-.77,4.19-4.08,4.13q-16.48-.33-33,0c-3.33.06-4.59-.84-5-4.27C2107,331.88,2105.49,324.07,2104,314.91Z"/><path class="cls-2" d="M1009,315.94c-3.16,4.82-6,9.81-9.88,14.16-14,15.9-37.19,22-57.33,15.12-13.21-4.5-20.3-14.36-24.23-27a91.17,91.17,0,0,1-4-27c-.11-58.46,0-116.92-.19-175.38,0-3.77,1.37-4.22,4.59-4.19,14.16.16,28.32.24,42.47,0,4.4-.08,5.85.85,5.83,5.61-.19,53.8-.13,107.61-.1,161.42,0,6.47-.13,12.94,1.16,19.35,2.19,11,8.83,15.05,19.64,12,10.24-2.92,16.09-10.52,16.09-20.94q0-85.93-.09-171.89c0-4.16.69-5.68,5.34-5.56,14.15.37,28.31.24,42.46.06,3.49-.05,4.83.49,4.82,4.47q-.21,111.85,0,223.71c0,3.12-.61,4.25-4,4.17q-16.49-.34-33,0c-3.35.07-4.61-1-5-4.26-.87-7.07-2.08-14.1-3.16-21.14C1010.28,317.68,1010.39,316.61,1009,315.94Z"/><path class="cls-2" d="M886.37,222.91c.3,26.57.48,48.33-3.91,69.8a111.81,111.81,0,0,1-5.39,18.57c-9.73,24.71-29.33,34.77-54.51,36.39a113.64,113.64,0,0,1-32.28-2.21c-23.2-5.21-36.47-20.33-42.68-42.53a160.3,160.3,0,0,1-5.8-40.78c-.4-26.22-1.34-52.48.82-78.68A135.49,135.49,0,0,1,750,148.05c7.71-21.15,22.2-34.57,44.66-38.82a106.64,106.64,0,0,1,39.7-.16c24.12,4.54,38.19,19.87,45.17,42.63,4.65,15.21,6.24,30.86,6.81,46.63C886.66,208.11,886.37,217.92,886.37,222.91Zm-52.86,10.14c0-19.9.2-34.85-.07-49.79-.18-9.78-.9-19.58-4.47-28.85-2.89-7.49-7.8-10.94-15-10.95-7,0-11.58,3.35-14.62,10.66A54.15,54.15,0,0,0,795.53,172c-2,34.18-.95,68.39-.66,102.59.08,9.07.87,18.23,4.23,26.88,2.51,6.48,7,10.35,14.2,10.55,7.35.22,12.3-3.34,15.26-9.86,2.49-5.5,3.37-11.39,4-17.33C834.56,266,833.05,247,833.51,233.05Z"/><path class="cls-2" d="M668.92,185.12c2.61-13.42,4.89-26.21,7.61-38.91,8.33-38.84,16.84-77.64,25.23-116.46.57-2.65,1.61-3.75,4.63-3.71,14.82.19,29.65.22,44.47,0,4-.06,3.74,1.21,2.87,4.3q-28.89,102.45-57.65,205a40.68,40.68,0,0,0-1.59,11.23c.07,30.89,0,61.79.14,92.68,0,4.07-1.23,4.82-5,4.77q-21.24-.32-42.47,0c-3.74.06-4.65-.88-4.63-4.62.16-31.05,0-62.11.12-93.17,0-10.17-4-19.39-6.58-28.9Q610.48,124,584.36,30.83c-1-3.71-.87-4.87,3.41-4.8,14.31.24,28.65.29,43,0,4-.09,5,1.58,5.7,4.85,10.17,51,23,101.42,31.31,152.78C667.78,183.9,668.12,184.13,668.92,185.12Z"/><path class="cls-2" d="M1620.7,245.34c-13.32,0-26.64,0-40,0-1.67,0-3.86-.75-3.81,2.34.29,16.4-1,32.91,2.38,49.14,2.59,12.48,11,17.4,23.23,14.22,5.43-1.42,8.83-5,10.74-10.13,2.84-7.74,3.6-15.83,3.77-23.95.07-3.56.6-4.78,4.69-4.41,12.42,1.13,24.89,1.76,37.36,2.33,3.07.14,3.92,1.19,4,4.09.15,8.67-.3,17.27-2.36,25.7-4.75,19.46-16.81,32.39-35.86,38.54-16.82,5.42-34,5.82-51.19,2-22.59-5-35-20.12-41.43-41.27-4.59-15-6.31-30.52-6.62-46.1-.49-24.39-1-48.81.74-73.18a140.94,140.94,0,0,1,6.77-35.52c8.93-26.11,26.63-39.74,54.34-41.37,11.3-.67,22.62-.51,33.74,2.17,21,5.07,32.54,19.36,37.79,39.42,4,15.34,5.17,31,5.31,46.83.13,15.11,0,30.22.24,45.32,0,3.1-.82,3.89-3.89,3.85C1647.34,245.24,1634,245.34,1620.7,245.34Zm-5.61-56.58c-1-11-.07-23.26-3.85-35-1.67-5.19-4.6-9.06-10.3-10.36-11.86-2.72-19.51,2.25-21.8,14.75-3.27,17.77-1.84,35.75-2.23,53.65-.05,2.55,1.39,2.48,3.17,2.48,10.66,0,21.32-.08,32,0,2.42,0,3.13-.75,3.09-3.12C1615,204.06,1615.09,196.92,1615.09,188.76Z"/><path class="cls-2" d="M2200.27,272.26c6.32,0,12.66.16,19-.07,3-.11,3.64.9,3.44,3.7-.52,7.32-.15,14.6,2.37,21.6,3.81,10.61,12.44,16.42,22.41,15.18,14.82-1.84,22.1-14.53,16.64-29-2.54-6.73-7.3-11.8-12.44-16.55-12.83-11.88-27.31-21.73-40.74-32.87-15.12-12.55-27.6-26.89-31.43-47a91.6,91.6,0,0,1,.76-40c4.64-18.37,16.32-30.39,34.59-35.72a106.86,106.86,0,0,1,53.3-1.58c22.73,4.95,34.58,20.27,38.51,42.35a131.18,131.18,0,0,1,1.65,31.74c-.19,2.7-1,3.65-3.75,3.74q-18.72.6-37.42,1.59c-2.72.14-3.31-.81-3.32-3.32,0-9.3-.5-18.59-3-27.62-3-11-9.5-15.24-20.75-13.86-10.82,1.33-15.84,7.19-16.52,18.21-.9,14.79,6.92,24.69,17.74,33.11,13.37,10.41,27.39,20,40.22,31.09,13,11.28,24.12,23.9,27.66,41.4,2.91,14.36,2.8,28.75-1.55,42.81-5.29,17.1-16.92,28.29-34,33.54a104.14,104.14,0,0,1-57.59,1.27c-24.25-6.27-37.88-23.47-39.08-48.41a112.37,112.37,0,0,1,.7-21.37c.37-2.57,1.11-3.33,3.58-3.28,6.32.12,12.65,0,19,0Z"/><path class="cls-2" d="M1146.12,206.32c0,44.18-.06,88.36.1,132.54,0,4.13-1,5.28-5.16,5.2q-20.47-.4-41,0c-4.39.09-5.75-.87-5.74-5.57.16-88,.08-176,.23-264.07,0-4.66-.84-6.14-5.82-6-14,.4-28,0-42,.22-3.56,0-4.46-1-4.4-4.46.21-11.29.19-22.59,0-33.88-.05-3.14.63-4.28,4.06-4.27q73.71.16,147.41,0c3.09,0,4.42.55,4.35,4q-.32,17.17,0,34.37c0,3.35-1,4.2-4.26,4.16-14.15-.16-28.31.11-42.46-.17-4.27-.09-5.52.81-5.5,5.33C1146.2,118,1146.12,162.15,1146.12,206.32Z"/><path class="cls-2" d="M2339.84,227.27c0-36.87,0-73.74-.08-110.61,0-3.69.63-5.11,4.79-5,13.65.3,27.31.22,41,0,3.28,0,4.59.5,4.59,4.23q-.18,112.11,0,224.21c0,3.6-1.39,3.91-4.32,3.89-13.82-.12-27.65-.22-41.47.05-3.85.07-4.57-1.06-4.56-4.68C2339.89,302,2339.84,264.64,2339.84,227.27Z"/><path class="cls-2" d="M2393.7,51.88a60.43,60.43,0,0,1-.91,13.89c-2,10.77-7.28,16.19-18.14,18.21a52.16,52.16,0,0,1-20.79-.37c-7.62-1.66-12.78-6.35-14.87-13.81a62.41,62.41,0,0,1-.12-33.86c2.41-8.72,8.47-13.6,17.35-14.93a63.92,63.92,0,0,1,10.42-.81c17.56.3,26.16,8.71,27.05,26.24C2393.8,48.59,2393.7,50.75,2393.7,51.88Z"/><path class="cls-3" d="M350.1,185.34,212.92,264.27c-1.26-1.9-.73-3.59-.73-5.15q0-73.71,0-147.41c0-5.86,0-5.87,5-3q64,36.83,128,73.68C346.53,183.2,347.94,184.06,350.1,185.34Z"/></g></g></svg>